{
.formatVersion = 3;
axes = (
{
name = Width;
tag = wdth;
},
{
name = Weight;
tag = wght;
}
);
classes = (
{
code = "space numbersign dollar cent currency Euro percent plus comma period semicolon less equal greater g o x asciitilde sterling section logicalnot plusminus multiply agrave aacute acircumflex atilde adieresis aring ae divide dotlessi aogonek abreve Tcedilla tcedilla Scedilla scedilla amacron gcommaaccent gbreve greaterequal lessequal approxequal notequal one.tf two.tf three.tf four.tf five.tf six.tf seven.tf eight.tf nine.tf period.tf comma.tf colon.tf semicolon.tf numbersign.tf colon.time space.tf cent.tf currency.tf dollar.tf Euro.tf sterling.tf plus.tf minus.tf multiply.tf divide.tf equal.tf notequal.tf greater.tf less.tf greaterequal.tf lessequal.tf plusminus.tf approxequal.tf logicalnot.tf percent.tf section.tf zeroslash zeroslash.tf acaron gdotaccent adotbelow baht-thai baht-thai.tf indianrupee won indianrupee.tf won.tf";
name = aalt;
},
{
code = "space.tf numbersign.tf dollar.tf cent.tf currency.tf Euro.tf percent.tf plus.tf comma.tf period.tf semicolon.tf less.tf equal.tf greater.tf g.alt ordmasculine xsupmod wiggle.medium sterling.tf section.tf logicalnot.tf plusminus.tf multiply.tf agrave.alt aacute.alt acircumflex.alt atilde.alt adieresis.alt aring.alt ae.alt divide.tf i aogonek.alt abreve.alt Tcommaaccent tcommaaccent Scommaaccent scommaaccent amacron.alt gcommaaccent.alt gbreve.alt greaterequal.tf lessequal.tf approxequal.tf notequal.tf one two three four five six seven eight nine period comma colon semicolon numbersign colon.tf space cent currency dollar Euro sterling plus minus multiply divide equal notequal greater less greaterequal lessequal plusminus approxequal logicalnot percent section zeroslash.tf zeroslash acaron.alt gdotaccent.alt adotbelow.alt baht-thai.tf baht-thai indianrupee.tf won.tf indianrupee won";
name = aalt2;
},
{
code = "zero one two three four five six seven eight nine zeroslash";
name = calt_ordn;
},
{

glyphs = (
{
glyphname = .notdef;
layers = (
{
layerId = "B75C80CA-8025-4CF8-A3E7-75A43A0995A3";
shapes = (
{
closed = 1;
nodes = (
(177,0,l),
(177,1432,l),
(1029,1432,l),
(1029,0,l)
);
},
{
closed = 1;
nodes = (
(305,120,l),
(901,120,l),
(901,1312,l),
(305,1312,l)
);
}
);
width = 1140;
}
);
},
{
glyphname = exclam;
layers = (
{
layerId = "872C3892-1949-4E27-92D3-5A16DDABBAC0";
shapes = (
{
closed = 1;
nodes = (
(191,506,l),
(191,506,o),
(191,506,o),
(191,506,q),
(292,1432,l),
(292,1432,o),
(292,1432,o),
(292,1432,q),
(756,1432,l),
(756,1432,o),
(756,1432,o),
(756,1432,q),
(531,506,l),
(531,506,o),
(531,506,o),
(531,506,q)
);
},
{
closed = 1;
nodes = (
(208,-26,o),
(73,106,o),
(73,200,qs),
(73,294,o),
(209,422,o),
(306,422,qs),
(404,422,o),
(540,294,o),
(540,200,qs),
(540,106,o),
(405,-26,o),
(306,-26,qs)
);
}
);
width = 731;
},
{
layerId = "E858B941-4367-47FB-AD3D-B27AC74F93CC";
shapes = (
{
closed = 1;
nodes = (
(179,506,l),
(179,506,o),
(179,506,o),
(179,506,q),
(283,1432,l),
(283,1432,o),
(283,1432,o),
(283,1432,q),
(737,1432,l),
(737,1432,o),
(737,1432,o),
(737,1432,q),
(513,506,l),
(513,506,o),
(513,506,o),
(513,506,q)
);
},
{
closed = 1;
nodes = (
(195,-25,o),
(62,106,o),
(62,199,qs),
(62,292,o),
(195,420,o),
(291,420,qs),
(388,420,o),
(523,293,o),
(523,199,qs),
(523,106,o),
(390,-25,o),
(291,-25,qs)
);
}
);
width = 702;
},
{
layerId = "B75C80CA-8025-4CF8-A3E7-75A43A0995A3";
shapes = (
{
closed = 1;
nodes = (
(200,427,l),
(200,427,o),
(200,427,o),
(200,427,q),
(358,1432,l),
(358,1432,o),
(358,1432,o),
(358,1432,q),
(567,1432,l),
(567,1432,o),
(567,1432,o),
(567,1432,q),
(369,427,l),
(369,427,o),
(369,427,o),
(369,427,q)
);
},
{
closed = 1;
nodes = (
(174,-15,o),
(93,67,o),
(93,128,qs),
(93,185,o),
(174,266,o),
(232,266,qs),
(291,266,o),
(373,185,o),
(373,128,qs),
(373,67,o),
(291,-15,o),
(232,-15,qs)
);
}
);
width = 609;
},
{
layerId = "A08665C1-CA57-4E4D-B402-868E03E7A8D5";
shapes = (
{
closed = 1;
nodes = (
(181,427,l),
(181,427,o),
(181,427,o),
(181,427,q),
(340,1432,l),
(340,1432,o),
(340,1432,o),
(340,1432,q),
(543,1432,l),
(543,1432,o),
(543,1432,o),
(543,1432,q),
(345,427,l),
(345,427,o),
(345,427,o),
(345,427,q)
);
},
{
closed = 1;
nodes = (
(154,-14,o),
(74,67,o),
(74,127,qs),
(74,183,o),
(154,263,o),
(211,263,qs),
(269,263,o),
(350,183,o),
(350,127,qs),
(350,67,o),
(270,-14,o),
(211,-14,qs)
);
}
);
width = 567;
},
{
layerId = "5EFB1F2B-6635-43CF-844A-B3185C929525";
shapes = (
{
closed = 1;
nodes = (
(218,380,l),
(218,380,o),
(218,380,o),
(218,380,q),
(397,1432,l),
(397,1432,o),
(397,1432,o),
(397,1432,q),
(469,1432,l),
(469,1432,o),
(469,1432,o),
(469,1432,q),
(275,380,l),
(275,380,o),
(275,380,o),
(275,380,q)
);
},
{
closed = 1;
nodes = (
(153,-12,o),
(100,42,o),
(100,83,qs),
(100,121,o),
(153,175,o),
(191,175,qs),
(231,175,o),
(285,121,o),
(285,83,qs),
(285,42,o),
(231,-12,o),
(192,-12,qs)
);
}
);
width = 540;
},
{
layerId = "530719F5-0959-4DA7-9A1D-C7B5EABE4A1F";
shapes = (
{
closed = 1;
nodes = (
(204,380,l),
(204,380,o),
(204,380,o),
(204,380,q),
(384,1432,l),
(384,1432,o),
(384,1432,o),
(384,1432,q),
(454,1432,l),
(454,1432,o),
(454,1432,o),
(454,1432,q),
(261,380,l),
(261,380,o),
(261,380,o),
(261,380,q)
);
},
{
closed = 1;
nodes = (
(140,-11,o),
(88,43,o),
(88,83,qs),
(88,120,o),
(140,174,o),
(177,174,qs),
(217,174,o),
(270,121,o),
(270,83,qs),
(270,43,o),
(218,-11,o),
(178,-11,qs)
);
}
);
width = 513;
}
);
unicode = 33;
},
{
glyphname = quotedbl;
layers = (
{
layerId = "872C3892-1949-4E27-92D3-5A16DDABBAC0";
shapes = (
{
closed = 1;
nodes = (
(238,878,l),
(238,878,o),
(238,878,o),
(238,878,q),
(330,1473,l),
(330,1473,o),
(330,1473,o),
(330,1473,q),
(669,1473,l),
(669,1473,o),
(669,1473,o),
(669,1473,q),
(576,878,l),
(576,878,o),
(576,878,o),
(576,878,q)
);
},
{
closed = 1;
nodes = (
(702,878,l),
(702,878,o),
(702,878,o),
(702,878,q),
(795,1473,l),
(795,1473,o),
(795,1473,o),
(795,1473,q),
(1134,1473,l),
(1134,1473,o),
(1134,1473,o),
(1134,1473,q),
(1041,878,l),
(1041,878,o),
(1041,878,o),
(1041,878,q)
);
}
);
width = 1144;
},
{
layerId = "E858B941-4367-47FB-AD3D-B27AC74F93CC";
shapes = (
{
closed = 1;
nodes = (
(228,892,l),
(228,892,o),
(228,892,o),
(228,892,q),
(318,1473,l),
(318,1473,o),
(318,1473,o),
(318,1473,q),
(646,1473,l),
(646,1473,o),
(646,1473,o),
(646,1473,q),
(555,892,l),
(555,892,o),
(555,892,o),
(555,892,q)
);
},
{
closed = 1;
nodes = (
(674,892,l),
(674,892,o),
(674,892,o),
(674,892,q),
(766,1473,l),
(766,1473,o),
(766,1473,o),
(766,1473,q),
(1094,1473,l),
(1094,1473,o),
(1094,1473,o),
(1094,1473,q),
(1002,892,l),
(1002,892,o),
(1002,892,o),
(1002,892,q)
);
}
);
width = 1091;
},
{
layerId = "B75C80CA-8025-4CF8-A3E7-75A43A0995A3";
shapes = (
{
closed = 1;
nodes = (
(255,941,l),
(255,941,o),
(255,941,o),
(255,941,q),
(345,1473,l),
(345,1473,o),
(345,1473,o),
(345,1473,q),
(513,1473,l),
(513,1473,o),
(513,1473,o),
(513,1473,q),
(422,941,l),
(422,941,o),
(422,941,o),
(422,941,q)
);
},
{
closed = 1;
nodes = (
(614,941,l),
(614,941,o),
(614,941,o),
(614,941,q),
(705,1473,l),
(705,1473,o),
(705,1473,o),
(705,1473,q),
(872,1473,l),
(872,1473,o),
(872,1473,o),
(872,1473,q),
(781,941,l),
(781,941,o),
(781,941,o),
(781,941,q)
);
}
);
width = 887;
},
{
layerId = "A08665C1-CA57-4E4D-B402-868E03E7A8D5";
shapes = (
{
closed = 1;
nodes = (
(250,953,l),
(250,953,o),
(250,953,o),
(250,953,q),
(337,1473,l),
(337,1473,o),
(337,1473,o),
(337,1473,q),
(503,1473,l),
(503,1473,o),
(503,1473,o),
(503,1473,q),
(415,953,l),
(415,953,o),
(415,953,o),
(415,953,q)
);
},
{
closed = 1;
nodes = (
(588,953,l),
(588,953,o),
(588,953,o),
(588,953,q),
(677,1473,l),
(677,1473,o),
(677,1473,o),
(677,1473,q),
(842,1473,l),
(842,1473,o),
(842,1473,o),
(842,1473,q),
(753,953,l),
(753,953,o),
(753,953,o),
(753,953,q)
);
}
);
width = 849;
},
{
layerId = "5EFB1F2B-6635-43CF-844A-B3185C929525";
shapes = (
{
closed = 1;
nodes = (
(303,976,l),
(303,976,o),
(303,976,o),
(303,976,q),
(391,1473,l),
(391,1473,o),
(391,1473,o),
(391,1473,q),
(459,1473,l),
(459,1473,o),
(459,1473,o),
(459,1473,q),
(371,976,l),
(371,976,o),
(371,976,o),
(371,976,q)
);
},
{
closed = 1;
nodes = (
(638,976,l),
(638,976,o),
(638,976,o),
(638,976,q),
(726,1473,l),
(726,1473,o),
(726,1473,o),
(726,1473,q),
(794,1473,l),
(794,1473,o),
(794,1473,o),
(794,1473,q),
(705,976,l),
(705,976,o),
(705,976,o),
(705,976,q)
);
}
);
width = 847;
},
{
layerId = "530719F5-0959-4DA7-9A1D-C7B5EABE4A1F";
shapes = (
{
closed = 1;
nodes = (
(294,986,l),
(294,986,o),
(294,986,o),
(294,986,q),
(379,1473,l),
(379,1473,o),
(379,1473,o),
(379,1473,q),
(447,1473,l),
(447,1473,o),
(447,1473,o),
(447,1473,q),
(362,986,l),
(362,986,o),
(362,986,o),
(362,986,q)
);
},
{
closed = 1;
nodes = (
(609,986,l),
(609,986,o),
(609,986,o),
(609,986,q),
(695,1473,l),
(695,1473,o),
(695,1473,o),
(695,1473,q),
(763,1473,l),
(763,1473,o),
(763,1473,o),
(763,1473,q),
(675,986,l),
(675,986,o),
(675,986,o),
(675,986,q)
);
}
);
width = 804;
}
);
leftKerningGroup = quotedbl2;
rightKerningGroup = quotedbl;
unicode = 34;
},
{
glyphname = numbersign;
layers = (
{
layerId = "872C3892-1949-4E27-92D3-5A16DDABBAC0";
shapes = (
{
closed = 1;
nodes = (
(647,-23,l),
(647,-23,o),
(647,-23,o),
(647,-23,q),
(1137,1456,l),
(1137,1456,o),
(1137,1456,o),
(1137,1456,q),
(1443,1456,l),
(1443,1456,o),
(1443,1456,o),
(1443,1456,q),
(951,-23,l),
(951,-23,o),
(951,-23,o),
(951,-23,q)
);
},
{
closed = 1;
nodes = (
(135,-23,l),
(135,-23,o),
(135,-23,o),
(135,-23,q),
(625,1456,l),
(625,1456,o),
(625,1456,o),
(625,1456,q),
(931,1456,l),
(931,1456,o),
(931,1456,o),
(931,1456,q),
(440,-23,l),
(440,-23,o),
(440,-23,o),
(440,-23,q)
);
},
{
closed = 1;
nodes = (
(0,269,l),
(0,269,o),
(0,269,o),
(0,269,q),
(100,570,l),
(100,570,o),
(100,570,o),
(100,570,q),
(1386,570,l),
(1386,570,o),
(1386,570,o),
(1386,570,q),
(1288,269,l),
(1288,269,o),
(1288,269,o),
(1288,269,q)
);
},
{
closed = 1;
nodes = (
(192,851,l),
(192,851,o),
(192,851,o),
(192,851,q),
(289,1153,l),
(289,1153,o),
(289,1153,o),
(289,1153,q),
(1577,1153,l),
(1577,1153,o),
(1577,1153,o),
(1577,1153,q),
(1479,851,l),
(1479,851,o),
(1479,851,o),
(1479,851,q)
);
}
);
width = 1515;
},
{
layerId = "E858B941-4367-47FB-AD3D-B27AC74F93CC";
shapes = (
{
closed = 1;
nodes = (
(601,-22,l),
(601,-22,o),
(601,-22,o),
(601,-22,q),
(1081,1455,l),
(1081,1455,o),
(1081,1455,o),
(1081,1455,q),
(1379,1455,l),
(1379,1455,o),
(1379,1455,o),
(1379,1455,q),
(898,-22,l),
(898,-22,o),
(898,-22,o),
(898,-22,q)
);
},
{
closed = 1;
nodes = (
(118,-22,l),
(118,-22,o),
(118,-22,o),
(118,-22,q),
(598,1455,l),
(598,1455,o),
(598,1455,o),
(598,1455,q),
(896,1455,l),
(896,1455,o),
(896,1455,o),
(896,1455,q),
(414,-22,l),
(414,-22,o),
(414,-22,o),
(414,-22,q)
);
},
{
closed = 1;
nodes = (
(-4,272,l),
(-4,272,o),
(-4,272,o),
(-4,272,q),
(92,570,l),
(92,570,o),
(92,570,o),
(92,570,q),
(1310,570,l),
(1310,570,o),
(1310,570,o),
(1310,570,q),
(1215,272,l),
(1215,272,o),
(1215,272,o),
(1215,272,q)
);
},
{
closed = 1;
nodes = (
(187,852,l),
(187,852,o),
(187,852,o),
(187,852,q),
(280,1151,l),
(280,1151,o),
(280,1151,o),
(280,1151,q),
(1499,1151,l),
(1499,1151,o),
(1499,1151,o),
(1499,1151,q),
(1405,852,l),
(1405,852,o),
(1405,852,o),
(1405,852,q)
);
}
);
width = 1434;
},
{
layerId = "B75C80CA-8025-4CF8-A3E7-75A43A0995A3";
shapes = (
{
closed = 1;
nodes = (
(638,-22,l),
(638,-22,o),
(638,-22,o),
(638,-22,q),
(1117,1455,l),
(1117,1455,o),
(1117,1455,o),
(1117,1455,q),
(1279,1455,l),
(1279,1455,o),
(1279,1455,o),
(1279,1455,q),
(799,-22,l),
(799,-22,o),
(799,-22,o),
(799,-22,q)
);
},
{
closed = 1;
nodes = (
(163,-22,l),
(163,-22,o),
(163,-22,o),
(163,-22,q),
(643,1455,l),
(643,1455,o),
(643,1455,o),
(643,1455,q),
(805,1455,l),
(805,1455,o),
(805,1455,o),
(805,1455,q),
(326,-22,l),
(326,-22,o),
(326,-22,o),
(326,-22,q)
);
},
{
closed = 1;
nodes = (
(42,379,l),
(42,379,o),
(42,379,o),
(42,379,q),
(94,535,l),
(94,535,o),
(94,535,o),
(94,535,q),
(1232,535,l),
(1232,535,o),
(1232,535,o),
(1232,535,q),
(1182,379,l),
(1182,379,o),
(1182,379,o),
(1182,379,q)
);
},
{
closed = 1;
nodes = (
(206,887,l),
(206,887,o),
(206,887,o),
(206,887,q),
(258,1043,l),
(258,1043,o),
(258,1043,o),
(258,1043,q),
(1396,1043,l),
(1396,1043,o),
(1396,1043,o),
(1396,1043,q),
(1345,887,l),
(1345,887,o),
(1345,887,o),
(1345,887,q)
);
}
);
width = 1374;
},
{
layerId = "A08665C1-CA57-4E4D-B402-868E03E7A8D5";
shapes = (
{
closed = 1;
nodes = (
(559,-20,l),
(559,-20,o),
(559,-20,o),
(559,-20,q),
(1027,1453,l),
(1027,1453,o),
(1027,1453,o),
(1027,1453,q),
(1189,1453,l),
(1189,1453,o),
(1189,1453,o),
(1189,1453,q),
(720,-20,l),
(720,-20,o),
(720,-20,o),
(720,-20,q)
);
},
{
closed = 1;
nodes = (
(127,-20,l),
(127,-20,o),
(127,-20,o),
(127,-20,q),
(596,1453,l),
(596,1453,o),
(596,1453,o),
(596,1453,q),
(758,1453,l),
(758,1453,o),
(758,1453,o),
(758,1453,q),
(289,-20,l),
(289,-20,o),
(289,-20,o),
(289,-20,q)
);
},
{
closed = 1;
nodes = (
(22,381,l),
(22,381,o),
(22,381,o),
(22,381,q),
(73,537,l),
(73,537,o),
(73,537,o),
(73,537,q),
(1130,537,l),
(1130,537,o),
(1130,537,o),
(1130,537,q),
(1080,381,l),
(1080,381,o),
(1080,381,o),
(1080,381,q)
);
},
{
closed = 1;
nodes = (
(183,888,l),
(183,888,o),
(183,888,o),
(183,888,q),
(234,1044,l),
(234,1044,o),
(234,1044,o),
(234,1044,q),
(1291,1044,l),
(1291,1044,o),
(1291,1044,o),
(1291,1044,q),
(1241,888,l),
(1241,888,o),
(1241,888,o),
(1241,888,q)
);
}
);
width = 1249;
},
{
layerId = "5EFB1F2B-6635-43CF-844A-B3185C929525";
shapes = (
{
closed = 1;
nodes = (
(661,-18,l),
(661,-18,o),
(661,-18,o),
(661,-18,q),
(1134,1451,l),
(1134,1451,o),
(1134,1451,o),
(1134,1451,q),
(1198,1451,l),
(1198,1451,o),
(1198,1451,o),
(1198,1451,q),
(725,-18,l),
(725,-18,o),
(725,-18,o),
(725,-18,q)
);
},
{
closed = 1;
nodes = (
(201,-18,l),
(201,-18,o),
(201,-18,o),
(201,-18,q),
(674,1452,l),
(674,1452,o),
(674,1452,o),
(674,1452,q),
(738,1452,l),
(738,1452,o),
(738,1452,o),
(738,1452,q),
(265,-18,l),
(265,-18,o),
(265,-18,o),
(265,-18,q)
);
},
{
closed = 1;
nodes = (
(66,440,l),
(66,440,o),
(66,440,o),
(66,440,q),
(85,498,l),
(85,498,o),
(85,498,o),
(85,498,q),
(1174,498,l),
(1174,498,o),
(1174,498,o),
(1174,498,q),
(1153,440,l),
(1153,440,o),
(1153,440,o),
(1153,440,q)
);
},
{
closed = 1;
nodes = (
(224,929,l),
(224,929,o),
(224,929,o),
(224,929,q),
(244,987,l),
(244,987,o),
(244,987,o),
(244,987,q),
(1331,987,l),
(1331,987,o),
(1331,987,o),
(1331,987,q),
(1310,929,l),
(1310,929,o),
(1310,929,o),
(1310,929,q)
);
}
);
width = 1328;
},
{
layerId = "530719F5-0959-4DA7-9A1D-C7B5EABE4A1F";
shapes = (
{
closed = 1;
nodes = (
(581,-16,l),
(581,-16,o),
(581,-16,o),
(581,-16,q),
(1044,1449,l),
(1044,1449,o),
(1044,1449,o),
(1044,1449,q),
(1108,1449,l),
(1108,1449,o),
(1108,1449,o),
(1108,1449,q),
(645,-16,l),
(645,-16,o),
(645,-16,o),
(645,-16,q)
);
},
{
closed = 1;
nodes = (
(162,-16,l),
(162,-16,o),
(162,-16,o),
(162,-16,q),
(625,1450,l),
(625,1450,o),
(625,1450,o),
(625,1450,q),
(689,1450,l),
(689,1450,o),
(689,1450,o),
(689,1450,q),
(225,-16,l),
(225,-16,o),
(225,-16,o),
(225,-16,q)
);
},
{
closed = 1;
nodes = (
(49,443,l),
(49,443,o),
(49,443,o),
(49,443,q),
(68,501,l),
(68,501,o),
(68,501,o),
(68,501,q),
(1066,501,l),
(1066,501,o),
(1066,501,o),
(1066,501,q),
(1045,443,l),
(1045,443,o),
(1045,443,o),
(1045,443,q)
);
},
{
closed = 1;
nodes = (
(203,927,l),
(203,927,o),
(203,927,o),
(203,927,q),
(223,985,l),
(223,985,o),
(223,985,o),
(223,985,q),
(1219,985,l),
(1219,985,o),
(1219,985,o),
(1219,985,q),
(1199,927,l),
(1199,927,o),
(1199,927,o),
(1199,927,q)
);
}
);
width = 1199;
}
);
unicode = 35;
},
{
glyphname = dollar;
layers = (
{
layerId = "872C3892-1949-4E27-92D3-5A16DDABBAC0";
shapes = (
{
closed = 1;
nodes = (
(479,0,o),
(248,89,o),
(109,199,o),
(35,315,o),
(35,315,o),
(35,315,q),
(360,513,l),
(360,513,o),
(360,513,o),
(393,464,o),
(462,398,o),
(582,346,o),
(655,346,qs),
(741,346,o),
(836,391,o),
(844,432,q),
(844,432,l),
(850,467,o),
(794,518,o),
(620,571,qs),
(337,658,o),
(179,875,o),
(208,1038,q),
(208,1038,l),
(241,1217,o),
(563,1432,o),
(813,1432,qs),
(925,1432,o),
(1119,1375,o),
(1250,1287,o),
(1360,1170,o),
(1360,1170,o),
(1360,1170,q),
(1046,968,l),
(1046,968,o),
(1046,968,o),
(995,1022,o),
(918,1072,o),
(830,1099,o),
(775,1099,qs),
(703,1099,o),
(631,1058,o),
(627,1027,q),
(627,1027,l),
(622,998,o),
(663,953,o),
(839,901,q),
(1125,812,o),
(1295,594,o),
(1266,432,q),
(1266,432,l),
(1232,235,o),
(903,0,o),
(629,0,qs)
);
},
{
closed = 1;
nodes = (
(720,1272,l),
(778,1598,l),
(778,1598,o),
(778,1598,o),
(778,1598,q),
(1011,1598,l),
(1011,1598,o),
(1011,1598,o),
(1011,1598,q),
(954,1272,l)
);
},
{
closed = 1;
nodes = (
(462,-166,l),
(462,-166,o),
(462,-166,o),
(462,-166,q),
(522,186,l),
(757,186,l),
(696,-166,l),
(696,-166,o),
(696,-166,o),
(696,-166,q)
);
}
);
width = 1371;
},
{
layerId = "E858B941-4367-47FB-AD3D-B27AC74F93CC";
shapes = (
{
closed = 1;
nodes = (
(435,0,o),
(217,89,o),
(89,213,o),
(30,339,o),
(30,339,o),
(30,339,q),
(367,513,l),
(367,513,o),
(367,513,o),
(396,454,o),
(450,392,o),
(546,346,o),
(607,346,qs),
(678,346,o),
(760,389,o),
(768,429,q),
(767,428,l),
(774,465,o),
(720,517,o),
(567,576,q),
(314,676,o),
(176,891,o),
(203,1045,q),
(203,1044,l),
(235,1223,o),
(538,1432,o),
(773,1432,qs),
(893,1432,o),
(1084,1365,o),
(1197,1261,o),
(1278,1139,o),
(1278,1139,o),
(1278,1139,q),
(951,966,l),
(951,966,o),
(951,966,o),
(916,1022,o),
(856,1070,o),
(785,1097,o),
(740,1097,qs),
(681,1097,o),
(618,1056,o),
(613,1025,q),
(614,1025,l),
(608,995,o),
(647,946,o),
(804,887,qs),
(1058,790,o),
(1207,569,o),
(1179,417,q),
(1179,417,l),
(1146,226,o),
(834,0,o),
(582,0,qs)
);
},
{
closed = 1;
nodes = (
(675,1280,l),
(731,1598,l),
(731,1598,o),
(731,1598,o),
(731,1598,q),
(964,1598,l),
(964,1598,o),
(964,1598,o),
(964,1598,q),
(907,1280,l)
);
},
{
closed = 1;
nodes = (
(417,-166,l),
(417,-166,o),
(417,-166,o),
(417,-166,q),
(476,178,l),
(710,178,l),
(650,-166,l),
(650,-166,o),
(650,-166,o),
(650,-166,q)
);
}
);
width = 1278;
},
{
layerId = "569F41A6-723D-49A2-B88E-3C818B339C68";
partSelection = {
Wd = 2;
Wt = 2;
};
shapes = (
{
closed = 1;
nodes = (
(457,0,o),
(249,77,o),
(125,193,o),
(47,330,o),
(47,330,o),
(47,330,q),
(298,464,l),
(298,464,o),
(298,464,o),
(338,387,o),
(415,306,o),
(532,258,o),
(613,258,qs),
(721,258,o),
(860,334,o),
(873,405,q),
(873,405,l),
(884,470,o),
(815,558,o),
(621,617,qs),
(352,700,o),
(202,918,o),
(229,1068,q),
(229,1068,l),
(260,1239,o),
(550,1432,o),
(775,1432,qs),
(884,1432,o),
(1068,1371,o),
(1197,1269,o),
(1282,1159,o),
(1282,1159,o),
(1282,1159,q),
(1036,1021,l),
(1036,1021,o),
(1036,1021,o),
(989,1083,o),
(910,1145,o),
(811,1180,o),
(748,1180,qs),
(654,1180,o),
(546,1113,o),
(536,1058,q),
(536,1058,l),
(527,1005,o),
(584,923,o),
(776,866,q),
(1044,782,o),
(1211,563,o),
(1182,402,q),
(1182,402,l),
(1148,208,o),
(841,0,o),
(596,0,qs)
);
},
{
closed = 1;
nodes = (
(702,1268,l),
(760,1598,l),
(760,1598,o),
(760,1598,o),
(760,1598,q),
(946,1598,l),
(946,1598,o),
(946,1598,o),
(946,1598,q),
(889,1268,l)
);
},
{
closed = 1;
nodes = (
(447,-166,l),
(447,-166,o),
(447,-166,o),
(447,-166,q),
(505,162,l),
(691,162,l),
(633,-166,l),
(633,-166,o),
(633,-166,o),
(633,-166,q)
);
}
);
width = 1304;
},
{
layerId = "DFC139CB-188F-4691-9702-4D0266AFBA9B";
partSelection = {
Wd = 2;
Wt = 2;
};
shapes = (
{
closed = 1;
nodes = (
(404,0,o),
(211,80,o),
(100,205,o),
(40,343,o),
(40,343,o),
(40,343,q),
(295,462,l),
(295,462,o),
(295,462,o),
(324,380,o),
(387,302,o),
(485,256,o),
(555,256,qs),
(647,256,o),
(765,327,o),
(777,393,q),
(778,401,l),
(789,465,o),
(730,554,o),
(557,629,qs),
(323,729,o),
(194,938,o),
(218,1076,q),
(220,1080,l),
(249,1246,o),
(517,1432,o),
(724,1432,qs),
(834,1432,o),
(1004,1367,o),
(1117,1260,o),
(1182,1143,o),
(1182,1143,o),
(1182,1143,q),
(933,1022,l),
(933,1022,o),
(933,1022,o),
(898,1089,o),
(834,1148,o),
(753,1180,o),
(700,1180,qs),
(621,1180,o),
(528,1118,o),
(518,1066,q),
(518,1061,l),
(509,1009,o),
(558,930,o),
(727,858,qs),
(963,757,o),
(1106,541,o),
(1079,395,q),
(1078,388,l),
(1045,201,o),
(761,0,o),
(538,0,qs)
);
},
{
closed = 1;
nodes = (
(651,1268,l),
(710,1598,l),
(710,1598,o),
(710,1598,o),
(710,1598,q),
(884,1598,l),
(884,1598,o),
(884,1598,o),
(884,1598,q),
(826,1268,l)
);
},
{
closed = 1;
nodes = (
(398,-166,l),
(398,-166,o),
(398,-166,o),
(398,-166,q),
(455,164,l),
(629,164,l),
(570,-166,l),
(570,-166,o),
(570,-166,o),
(570,-166,q)
);
}
);
width = 1191;
},
{
layerId = "62B63748-D98B-40C2-83F2-ADC20DCFEBE5";
shapes = (
{
closed = 1;
nodes = (
(457,0,o),
(249,77,o),
(125,193,o),
(47,330,o),
(47,330,o),
(47,330,q),
(298,464,l),
(298,464,o),
(298,464,o),
(338,387,o),
(415,306,o),
(532,258,o),
(613,258,qs),
(721,258,o),
(860,334,o),
(873,405,q),
(873,405,l),
(884,470,o),
(815,558,o),
(621,617,qs),
(352,700,o),
(202,918,o),
(229,1068,q),
(229,1068,l),
(260,1239,o),
(550,1432,o),
(775,1432,qs),
(884,1432,o),
(1068,1371,o),
(1197,1269,o),
(1282,1159,o),
(1282,1159,o),
(1282,1159,q),
(1036,1021,l),
(1036,1021,o),
(1036,1021,o),
(989,1083,o),
(910,1145,o),
(811,1180,o),
(748,1180,qs),
(654,1180,o),
(546,1113,o),
(536,1058,q),
(536,1058,l),
(527,1005,o),
(584,923,o),
(776,866,q),
(1044,782,o),
(1211,563,o),
(1182,402,q),
(1182,402,l),
(1148,208,o),
(841,0,o),
(596,0,qs)
);
},
{
closed = 1;
nodes = (
(617,790,l),
(760,1598,l),
(760,1598,o),
(760,1598,o),
(760,1598,q),
(946,1598,l),
(946,1598,o),
(946,1598,o),
(946,1598,q),
(804,790,l)
);
},
{
closed = 1;
nodes = (
(447,-166,l),
(447,-166,o),
(447,-166,o),
(447,-166,q),
(606,739,l),
(792,739,l),
(633,-166,l),
(633,-166,o),
(633,-166,o),
(633,-166,q)
);
}
);
width = 1304;
},
{
layerId = "A7B03EDC-3DE9-436C-A9B0-BDB893F66A68";
shapes = (
{
closed = 1;
nodes = (
(404,0,o),
(211,80,o),
(100,205,o),
(40,343,o),
(40,343,o),
(40,343,q),
(295,462,l),
(295,462,o),
(295,462,o),
(324,380,o),
(387,302,o),
(485,256,o),
(555,256,qs),
(647,256,o),
(765,327,o),
(777,393,q),
(778,401,l),
(789,465,o),
(730,554,o),
(557,629,qs),
(323,729,o),
(194,938,o),
(218,1076,q),
(220,1080,l),
(249,1246,o),
(517,1432,o),
(724,1432,qs),
(834,1432,o),
(1004,1367,o),
(1117,1260,o),
(1182,1143,o),
(1182,1143,o),
(1182,1143,q),
(933,1022,l),
(933,1022,o),
(933,1022,o),
(898,1089,o),
(834,1148,o),
(753,1180,o),
(700,1180,qs),
(621,1180,o),
(528,1118,o),
(518,1066,q),
(518,1061,l),
(509,1009,o),
(558,929,o),
(727,858,q),
(963,757,o),
(1106,541,o),
(1079,395,q),
(1078,388,l),
(1045,201,o),
(761,0,o),
(538,0,qs)
);
},
{
closed = 1;
nodes = (
(570,788,l),
(713,1598,l),
(713,1598,o),
(713,1598,o),
(713,1598,q),
(883,1598,l),
(883,1598,o),
(883,1598,o),
(883,1598,q),
(740,788,l)
);
},
{
closed = 1;
nodes = (
(399,-166,l),
(399,-166,o),
(399,-166,o),
(399,-166,q),
(558,741,l),
(727,741,l),
(567,-166,l),
(567,-166,o),
(567,-166,o),
(567,-166,q)
);
}
);
width = 1191;
},
{
layerId = "B75C80CA-8025-4CF8-A3E7-75A43A0995A3";
shapes = (
{
closed = 1;
nodes = (
(501,0,o),
(303,78,o),
(176,217,o),
(123,346,o),
(123,346,o),
(123,346,q),
(302,415,l),
(302,415,o),
(302,415,o),
(340,321,o),
(420,224,o),
(548,170,o),
(637,170,qs),
(768,170,o),
(949,277,o),
(967,378,q),
(967,378,l),
(983,472,o),
(900,596,o),
(686,662,q),
(432,742,o),
(290,960,o),
(315,1096,q),
(315,1096,l),
(344,1260,o),
(604,1432,o),
(803,1432,qs),
(908,1432,o),
(1083,1368,o),
(1209,1253,o),
(1270,1147,o),
(1270,1147,o),
(1270,1147,q),
(1092,1073,l),
(1092,1073,o),
(1092,1073,o),
(1048,1142,o),
(968,1217,o),
(858,1261,o),
(787,1261,qs),
(671,1261,o),
(527,1168,o),
(512,1088,q),
(512,1088,l),
(498,1012,o),
(571,895,o),
(778,831,qs),
(1030,752,o),
(1193,532,o),
(1164,372,q),
(1164,372,l),
(1130,182,o),
(846,0,o),
(629,0,qs)
);
},
{
closed = 1;
nodes = (
(660,756,l),
(809,1598,l),
(809,1598,o),
(809,1598,o),
(809,1598,q),
(947,1598,l),
(947,1598,o),
(947,1598,o),
(947,1598,q),
(799,756,l)
);
},
{
closed = 1;
nodes = (
(498,-166,l),
(498,-166,o),
(498,-166,o),
(498,-166,q),
(655,727,l),
(794,727,l),
(637,-166,l),
(637,-166,o),
(637,-166,o),
(637,-166,q)
);
}
);
width = 1304;
},
{
layerId = "A08665C1-CA57-4E4D-B402-868E03E7A8D5";
shapes = (
{
closed = 1;
nodes = (
(426,0,o),
(247,79,o),
(140,217,o),
(100,347,o),
(100,347,o),
(100,347,q),
(275,411,l),
(275,411,o),
(275,411,o),
(302,314,o),
(365,220,o),
(475,167,o),
(555,167,qs),
(668,167,o),
(820,264,o),
(837,358,q),
(839,373,l),
(855,464,o),
(788,589,o),
(600,679,q),
(382,781,o),
(263,984,o),
(285,1105,qs),
(287,1115,ls),
(314,1269,o),
(549,1432,o),
(728,1432,qs),
(826,1432,o),
(982,1369,o),
(1090,1256,o),
(1138,1145,o),
(1138,1145,o),
(1138,1145,q),
(964,1077,l),
(964,1077,o),
(964,1077,o),
(931,1152,o),
(866,1224,o),
(773,1264,o),
(713,1264,qs),
(613,1264,o),
(491,1180,o),
(477,1106,q),
(476,1097,l),
(462,1023,o),
(525,915,o),
(707,827,q),
(924,725,o),
(1057,513,o),
(1031,373,q),
(1029,359,l),
(996,177,o),
(741,0,o),
(546,0,qs)
);
},
{
closed = 1;
nodes = (
(587,771,l),
(733,1598,l),
(733,1598,o),
(733,1598,o),
(733,1598,q),
(862,1598,l),
(862,1598,o),
(862,1598,o),
(862,1598,q),
(716,771,l)
);
},
{
closed = 1;
nodes = (
(422,-166,l),
(422,-166,o),
(422,-166,o),
(422,-166,q),
(581,739,l),
(710,739,l),
(551,-166,l),
(551,-166,o),
(551,-166,o),
(551,-166,q)
);
}
);
width = 1163;
},
{
layerId = "5EFB1F2B-6635-43CF-844A-B3185C929525";
shapes = (
{
closed = 1;
nodes = (
(380,0,o),
(199,89,o),
(109,218,o),
(71,349,o),
(71,349,o),
(71,349,q),
(133,369,l),
(133,369,o),
(133,369,o),
(168,249,o),
(246,134,o),
(394,61,o),
(508,61,qs),
(676,61,o),
(904,214,o),
(927,345,q),
(927,345,l),
(952,485,o),
(821,661,o),
(612,730,q),
(382,808,o),
(250,990,o),
(274,1124,q),
(274,1124,l),
(299,1264,o),
(533,1432,o),
(715,1432,qs),
(814,1432,o),
(965,1368,o),
(1066,1263,o),
(1119,1157,o),
(1119,1157,o),
(1119,1157,q),
(1058,1133,l),
(1058,1133,o),
(1058,1133,o),
(1015,1223,o),
(926,1317,o),
(799,1371,o),
(710,1371,qs),
(556,1371,o),
(362,1232,o),
(343,1121,q),
(343,1121,l),
(321,1009,o),
(427,862,o),
(631,794,qs),
(859,719,o),
(1024,508,o),
(994,347,q),
(994,347,l),
(966,181,o),
(706,0,o),
(503,0,qs)
);
},
{
closed = 1;
nodes = (
(592,755,l),
(741,1598,l),
(741,1598,o),
(741,1598,o),
(741,1598,q),
(799,1598,l),
(799,1598,o),
(799,1598,o),
(799,1598,q),
(650,754,l)
);
},
{
closed = 1;
nodes = (
(429,-166,l),
(429,-166,o),
(429,-166,o),
(429,-166,q),
(591,751,l),
(650,751,l),
(488,-166,l),
(488,-166,o),
(488,-166,o),
(488,-166,q)
);
}
);
width = 1157;
},
{
layerId = "530719F5-0959-4DA7-9A1D-C7B5EABE4A1F";
shapes = (
{
closed = 1;
nodes = (
(328,0,o),
(169,90,o),
(98,229,o),
(69,348,o),
(69,348,o),
(69,348,q),
(131,366,l),
(131,366,o),
(131,366,o),
(157,259,o),
(215,134,o),
(344,61,o),
(447,61,qs),
(594,61,o),
(790,204,o),
(812,331,q),
(813,341,l),
(837,468,o),
(725,644,o),
(547,736,q),
(355,833,o),
(239,1010,o),
(261,1135,q),
(263,1143,l),
(286,1277,o),
(493,1432,o),
(654,1432,qs),
(747,1432,o),
(882,1360,o),
(961,1247,o),
(1000,1149,o),
(1000,1149,o),
(1000,1149,q),
(939,1128,l),
(939,1128,o),
(939,1128,o),
(907,1213,o),
(840,1311,o),
(731,1372,o),
(649,1372,qs),
(515,1372,o),
(348,1243,o),
(330,1139,q),
(329,1131,l),
(309,1026,o),
(406,878,o),
(574,793,qs),
(769,695,o),
(907,485,o),
(879,341,q),
(878,329,l),
(851,173,o),
(623,0,o),
(442,0,qs)
);
},
{
closed = 1;
nodes = (
(532,763,l),
(680,1598,l),
(680,1598,o),
(680,1598,o),
(680,1598,q),
(738,1598,l),
(738,1598,o),
(738,1598,o),
(738,1598,q),
(590,760,l)
);
},
{
closed = 1;
nodes = (
(368,-166,l),
(368,-166,o),
(368,-166,o),
(368,-166,q),
(530,756,l),
(589,754,l),
(427,-166,l),
(427,-166,o),
(427,-166,o),
(427,-166,q)
);
}
);
width = 1037;
}
);
partsSettings = (
{
bottomValue = 0;
name = Wd;
topValue = 1000;
},
{
bottomValue = 0;
name = Wt;
topValue = 1000;
}
);
unicode = 36;
},
{
glyphname = cent;
layers = (
{
layerId = "872C3892-1949-4E27-92D3-5A16DDABBAC0";
shapes = (
{
closed = 1;
nodes = (
(335,160,o),
(66,473,o),
(109,708,q),
(109,708,l),
(150,941,o),
(486,1213,o),
(732,1213,qs),
(845,1213,o),
(1015,1143,o),
(1125,1020,o),
(1174,917,o),
(1174,917,o),
(1174,917,q),
(865,782,l),
(865,782,o),
(865,782,o),
(844,819,o),
(805,858,o),
(753,883,o),
(710,883,qs),
(630,883,o),
(513,777,o),
(497,686,q),
(497,686,l),
(481,598,o),
(562,490,o),
(641,490,qs),
(677,490,o),
(735,511,o),
(784,548,o),
(817,589,o),
(817,589,o),
(817,589,q),
(1102,459,l),
(1102,459,o),
(1102,459,o),
(1033,350,o),
(899,232,o),
(705,160,o),
(588,160,qs)
);
},
{
closed = 1;
nodes = (
(598,1032,l),
(657,1365,l),
(657,1365,o),
(657,1365,o),
(657,1365,q),
(915,1365,l),
(915,1365,o),
(915,1365,o),
(915,1365,q),
(856,1032,l)
);
},
{
closed = 1;
nodes = (
(416,0,l),
(416,0,o),
(416,0,o),
(416,0,q),
(476,337,l),
(733,337,l),
(673,0,l),
(673,0,o),
(673,0,o),
(673,0,q)
);
}
);
width = 1176;
},
{
layerId = "E858B941-4367-47FB-AD3D-B27AC74F93CC";
shapes = (
{
closed = 1;
nodes = (
(316,158,o),
(62,469,o),
(105,709,q),
(105,708,l),
(147,946,o),
(468,1215,o),
(707,1215,qs),
(817,1215,o),
(980,1148,o),
(1085,1032,o),
(1131,926,o),
(1131,926,o),
(1131,926,q),
(825,788,l),
(825,788,o),
(825,788,o),
(807,825,o),
(774,862,o),
(725,886,o),
(687,886,qs),
(613,886,o),
(505,783,o),
(489,694,qs),
(486,676,ls),
(470,589,o),
(542,486,o),
(616,486,qs),
(649,486,o),
(705,508,o),
(749,543,o),
(780,584,o),
(780,584,o),
(780,584,q),
(1053,449,l),
(1053,449,o),
(1053,449,o),
(987,340,o),
(859,226,o),
(676,158,o),
(564,158,qs)
);
},
{
closed = 1;
nodes = (
(582,1037,l),
(639,1365,l),
(639,1365,o),
(639,1365,o),
(639,1365,q),
(885,1365,l),
(885,1365,o),
(885,1365,o),
(885,1365,q),
(827,1037,l)
);
},
{
closed = 1;
nodes = (
(399,0,l),
(399,0,o),
(399,0,o),
(399,0,q),
(459,336,l),
(703,336,l),
(643,0,l),
(643,0,o),
(643,0,o),
(643,0,q)
);
}
);
width = 1136;
},
{
layerId = "569F41A6-723D-49A2-B88E-3C818B339C68";
partSelection = {
Wd = 2;
Wt = 2;
};
shapes = (
{
closed = 1;
nodes = (
(328,162,o),
(75,473,o),
(117,707,q),
(117,707,l),
(158,938,o),
(479,1211,o),
(712,1211,qs),
(817,1211,o),
(978,1145,o),
(1083,1031,o),
(1134,928,o),
(1134,928,o),
(1134,928,q),
(903,825,l),
(903,825,o),
(903,825,o),
(874,881,o),
(821,934,o),
(752,965,o),
(698,965,qs),
(587,965,o),
(424,817,o),
(400,688,q),
(400,688,l),
(378,561,o),
(490,407,o),
(599,407,qs),
(649,407,o),
(732,438,o),
(801,489,o),
(847,547,o),
(847,547,o),
(847,547,q),
(1061,445,l),
(1061,445,o),
(1061,445,o),
(991,338,o),
(858,228,o),
(675,162,o),
(567,162,qs)
);
},
{
closed = 1;
nodes = (
(614,1043,l),
(671,1365,l),
(671,1365,o),
(671,1365,o),
(671,1365,q),
(852,1365,l),
(852,1365,o),
(852,1365,o),
(852,1365,q),
(794,1043,l)
);
},
{
closed = 1;
nodes = (
(431,0,l),
(431,0,o),
(431,0,o),
(431,0,q),
(486,306,l),
(665,306,l),
(611,0,l),
(611,0,o),
(611,0,o),
(611,0,q)
);
}
);
width = 1140;
},
{
layerId = "DFC139CB-188F-4691-9702-4D0266AFBA9B";
partSelection = {
Wd = 2;
Wt = 2;
};
shapes = (
{
closed = 1;
nodes = (
(318,162,o),
(83,468,o),
(124,702,qs),
(126,712,ls),
(167,945,o),
(471,1212,o),
(692,1212,qs),
(789,1212,o),
(939,1150,o),
(1038,1044,o),
(1086,944,o),
(1086,944,o),
(1086,944,q),
(864,834,l),
(864,834,o),
(864,834,o),
(838,889,o),
(792,941,o),
(728,969,o),
(680,969,qs),
(577,969,o),
(427,821,o),
(403,694,qs),
(400,680,l),
(378,554,o),
(476,403,o),
(578,403,qs),
(624,403,o),
(701,434,o),
(764,482,o),
(808,539,o),
(808,539,o),
(808,539,q),
(1005,430,l),
(1005,430,o),
(1005,430,o),
(938,325,o),
(815,223,o),
(647,162,o),
(547,162,qs)
);
},
{
closed = 1;
nodes = (
(602,1043,l),
(658,1366,l),
(658,1366,o),
(658,1366,o),
(658,1366,q),
(827,1366,l),
(827,1366,o),
(827,1366,o),
(827,1366,q),
(769,1043,l)
);
},
{
closed = 1;
nodes = (
(418,0,l),
(418,0,o),
(418,0,o),
(418,0,q),
(475,312,l),
(641,312,l),
(586,0,l),
(586,0,o),
(586,0,o),
(586,0,q)
);
}
);
width = 1103;
},
{
layerId = "62B63748-D98B-40C2-83F2-ADC20DCFEBE5";
shapes = (
{
closed = 1;
nodes = (
(328,162,o),
(75,473,o),
(117,707,q),
(117,707,l),
(158,938,o),
(479,1211,o),
(712,1211,qs),
(817,1211,o),
(978,1145,o),
(1083,1031,o),
(1134,928,o),
(1134,928,o),
(1134,928,q),
(903,825,l),
(903,825,o),
(903,825,o),
(874,881,o),
(821,934,o),
(752,965,o),
(698,965,qs),
(587,965,o),
(424,817,o),
(401,688,q),
(401,688,l),
(378,561,o),
(490,407,o),
(599,407,qs),
(649,407,o),
(732,438,o),
(801,489,o),
(847,547,o),
(847,547,o),
(847,547,q),
(1061,445,l),
(1061,445,o),
(1061,445,o),
(991,338,o),
(858,228,o),
(675,162,o),
(567,162,qs)
);
},
{
closed = 1;
nodes = (
(553,687,l),
(671,1365,l),
(671,1365,o),
(671,1365,o),
(671,1365,q),
(852,1365,l),
(852,1365,o),
(852,1365,o),
(852,1365,q),
(733,687,l)
);
},
{
closed = 1;
nodes = (
(431,0,l),
(431,0,o),
(431,0,o),
(431,0,q),
(553,687,l),
(733,687,l),
(611,0,l),
(611,0,o),
(611,0,o),
(611,0,q)
);
}
);
width = 1140;
},
{
layerId = "A7B03EDC-3DE9-436C-A9B0-BDB893F66A68";
shapes = (
{
closed = 1;
nodes = (
(318,162,o),
(83,468,o),
(124,702,qs),
(126,712,ls),
(167,945,o),
(471,1212,o),
(692,1212,qs),
(789,1212,o),
(939,1150,o),
(1038,1044,o),
(1086,944,o),
(1086,944,o),
(1086,944,q),
(864,834,l),
(864,834,o),
(864,834,o),
(838,889,o),
(792,940,o),
(728,969,o),
(680,969,qs),
(577,969,o),
(427,821,o),
(404,694,q),
(401,680,l),
(378,554,o),
(476,403,o),
(578,403,qs),
(624,403,o),
(701,434,o),
(764,482,o),
(808,539,o),
(808,539,o),
(808,539,q),
(1005,430,l),
(1005,430,o),
(1005,430,o),
(938,325,o),
(815,223,o),
(647,162,o),
(547,162,qs)
);
},
{
closed = 1;
nodes = (
(541,691,l),
(658,1366,l),
(658,1366,o),
(658,1366,o),
(658,1366,q),
(827,1366,l),
(827,1366,o),
(827,1366,o),
(827,1366,q),
(708,691,l)
);
},
{
closed = 1;
nodes = (
(418,0,l),
(418,0,o),
(418,0,o),
(418,0,q),
(541,691,l),
(708,691,l),
(586,0,l),
(586,0,o),
(586,0,o),
(586,0,q)
);
}
);
width = 1103;
},
{
layerId = "B75C80CA-8025-4CF8-A3E7-75A43A0995A3";
shapes = (
{
closed = 1;
nodes = (
(343,164,o),
(106,473,o),
(147,706,q),
(147,706,l),
(188,936,o),
(495,1208,o),
(714,1208,qs),
(812,1208,o),
(963,1147,o),
(1065,1041,o),
(1116,938,o),
(1116,938,o),
(1116,938,q),
(963,867,l),
(963,867,o),
(963,867,o),
(926,942,o),
(860,1010,o),
(774,1048,o),
(708,1048,qs),
(567,1048,o),
(358,857,o),
(328,689,q),
(328,689,l),
(299,524,o),
(442,325,o),
(580,325,qs),
(645,325,o),
(752,364,o),
(841,431,o),
(898,506,o),
(898,506,o),
(898,506,q),
(1042,431,l),
(1042,431,o),
(1042,431,o),
(973,327,o),
(840,224,o),
(667,164,o),
(569,164,qs)
);
},
{
closed = 1;
nodes = (
(573,690,l),
(690,1365,l),
(690,1365,o),
(690,1365,o),
(690,1365,q),
(830,1365,l),
(830,1365,o),
(830,1365,o),
(830,1365,q),
(712,690,l)
);
},
{
closed = 1;
nodes = (
(450,0,l),
(450,0,o),
(450,0,o),
(450,0,q),
(573,690,l),
(712,690,l),
(589,0,l),
(589,0,o),
(589,0,o),
(589,0,q)
);
}
);
width = 1136;
},
{
layerId = "A08665C1-CA57-4E4D-B402-868E03E7A8D5";
shapes = (
{
closed = 1;
nodes = (
(310,164,o),
(99,452,o),
(138,673,qs),
(149,737,ls),
(188,956,o),
(463,1208,o),
(662,1208,qs),
(751,1208,o),
(889,1148,o),
(980,1046,o),
(1025,944,o),
(1025,944,o),
(1025,944,q),
(877,876,l),
(877,876,o),
(877,876,o),
(846,950,o),
(790,1015,o),
(713,1050,o),
(655,1050,qs),
(532,1050,o),
(354,876,o),
(326,721,qs),
(314,655,ls),
(287,502,o),
(405,321,o),
(527,321,qs),
(586,321,o),
(681,360,o),
(758,424,o),
(809,500,o),
(809,500,o),
(809,500,q),
(947,428,l),
(947,428,o),
(947,428,o),
(882,321,o),
(763,222,o),
(606,164,o),
(515,164,qs)
);
},
{
closed = 1;
nodes = (
(527,692,l),
(644,1365,l),
(644,1365,o),
(644,1365,o),
(644,1365,q),
(773,1365,l),
(773,1365,o),
(773,1365,o),
(773,1365,q),
(655,692,l)
);
},
{
closed = 1;
nodes = (
(404,0,l),
(404,0,o),
(404,0,o),
(404,0,q),
(527,692,l),
(655,692,l),
(532,0,l),
(532,0,o),
(532,0,o),
(532,0,q)
);
}
);
width = 1038;
},
{
layerId = "5EFB1F2B-6635-43CF-844A-B3185C929525";
shapes = (
{
closed = 1;
nodes = (
(314,163,o),
(115,476,o),
(156,703,q),
(156,703,l),
(197,931,o),
(478,1209,o),
(689,1209,qs),
(786,1209,o),
(926,1142,o),
(1015,1034,o),
(1055,941,o),
(1055,941,o),
(1055,941,q),
(999,916,l),
(999,916,o),
(999,916,o),
(962,1001,o),
(889,1093,o),
(773,1150,o),
(685,1150,qs),
(507,1150,o),
(257,902,o),
(221,696,q),
(221,696,l),
(185,493,o),
(350,222,o),
(530,222,qs),
(613,222,o),
(752,278,o),
(861,374,o),
(923,463,o),
(923,463,o),
(923,463,q),
(978,435,l),
(978,435,o),
(978,435,o),
(913,338,o),
(791,230,o),
(623,163,o),
(526,163,qs)
);
},
{
closed = 1;
nodes = (
(570,687,l),
(689,1365,l),
(689,1365,o),
(689,1365,o),
(689,1365,q),
(750,1365,l),
(750,1365,o),
(750,1365,o),
(750,1365,q),
(630,687,l)
);
},
{
closed = 1;
nodes = (
(448,0,l),
(448,0,o),
(448,0,o),
(448,0,q),
(570,687,l),
(630,687,l),
(508,0,l),
(508,0,o),
(508,0,o),
(508,0,q)
);
}
);
width = 1098;
},
{
layerId = "530719F5-0959-4DA7-9A1D-C7B5EABE4A1F";
shapes = (
{
closed = 1;
nodes = (
(283,164,o),
(109,450,o),
(149,670,q),
(160,735,ls),
(199,953,o),
(447,1208,o),
(632,1208,qs),
(718,1208,o),
(843,1142,o),
(920,1037,o),
(951,941,o),
(951,941,o),
(951,941,q),
(895,918,l),
(895,918,o),
(895,918,o),
(866,1007,o),
(805,1096,o),
(705,1148,o),
(629,1148,qs),
(473,1148,o),
(258,917,o),
(224,725,qs),
(213,664,ls),
(179,473,o),
(317,223,o),
(474,223,qs),
(545,223,o),
(668,278,o),
(763,368,o),
(819,462,o),
(819,462,o),
(819,462,q),
(874,436,l),
(874,436,o),
(874,436,o),
(815,334,o),
(705,229,o),
(556,164,o),
(470,164,qs)
);
},
{
closed = 1;
nodes = (
(519,694,l),
(637,1365,l),
(637,1365,o),
(637,1365,o),
(637,1365,q),
(695,1365,l),
(695,1365,o),
(695,1365,o),
(695,1365,q),
(577,694,l)
);
},
{
closed = 1;
nodes = (
(396,0,l),
(396,0,o),
(396,0,o),
(396,0,q),
(519,694,l),
(577,694,l),
(454,0,l),
(454,0,o),
(454,0,o),
(454,0,q)
);
}
);
width = 987;
}
);
partsSettings = (
{
bottomValue = 0;
name = Wd;
topValue = 1000;
},
{
bottomValue = 0;
name = Wt;
topValue = 1000;
}
);
unicode = 162;
},
{
glyphname = currency;
layers = (
{
layerId = "872C3892-1949-4E27-92D3-5A16DDABBAC0";
shapes = (
{
closed = 1;
nodes = (
(430,124,o),
(170,403,o),
(170,578,qs),
(170,753,o),
(430,1031,o),
(639,1031,qs),
(846,1031,o),
(1106,753,o),
(1106,578,qs),
(1106,403,o),
(845,124,o),
(638,124,qs)
);
},
{
closed = 1;
nodes = (
(706,425,o),
(788,508,o),
(788,578,qs),
(788,647,o),
(706,731,o),
(639,731,qs),
(571,731,o),
(485,647,o),
(485,578,qs),
(485,508,o),
(571,425,o),
(639,425,qs)
);
},
{
closed = 1;
nodes = (
(363,652,l),
(92,922,l),
(92,922,o),
(92,922,o),
(92,922,q),
(282,1109,l),
(282,1109,o),
(282,1109,o),
(282,1109,q),
(553,842,l)
);
},
{
closed = 1;
nodes = (
(911,652,l),
(722,841,l),
(992,1109,l),
(992,1109,o),
(992,1109,o),
(992,1109,q),
(1182,921,l),
(1182,921,o),
(1182,921,o),
(1182,921,q)
);
},
{
closed = 1;
nodes = (
(280,45,l),
(280,45,o),
(280,45,o),
(280,45,q),
(92,235,l),
(92,235,o),
(92,235,o),
(92,235,q),
(361,503,l),
(551,314,l)
);
},
{
closed = 1;
nodes = (
(722,313,l),
(912,503,l),
(1182,235,l),
(1182,235,o),
(1182,235,o),
(1182,235,q),
(993,45,l),
(993,45,o),
(993,45,o),
(993,45,q)
);
}
);
width = 1258;
},
{
layerId = "E858B941-4367-47FB-AD3D-B27AC74F93CC";
shapes = (
{
closed = 1;
nodes = (
(408,126,o),
(160,399,o),
(160,579,qs),
(160,758,o),
(408,1029,o),
(606,1029,qs),
(802,1029,o),
(1050,758,o),
(1050,579,qs),
(1050,399,o),
(801,126,o),
(605,126,qs)
);
},
{
closed = 1;
nodes = (
(665,426,o),
(736,504,o),
(736,578,qs),
(736,651,o),
(665,729,o),
(606,729,qs),
(546,729,o),
(472,651,o),
(472,578,qs),
(472,504,o),
(546,426,o),
(606,426,qs)
);
},
{
closed = 1;
nodes = (
(335,667,l),
(85,925,l),
(85,925,o),
(85,925,o),
(85,925,q),
(276,1108,l),
(276,1108,o),
(276,1108,o),
(276,1108,q),
(525,854,l)
);
},
{
closed = 1;
nodes = (
(873,667,l),
(684,852,l),
(932,1108,l),
(932,1108,o),
(932,1108,o),
(932,1108,q),
(1123,925,l),
(1123,925,o),
(1123,925,o),
(1123,925,q)
);
},
{
closed = 1;
nodes = (
(275,47,l),
(275,47,o),
(275,47,o),
(275,47,q),
(86,231,l),
(86,231,o),
(86,231,o),
(86,231,q),
(334,486,l),
(524,302,l)
);
},
{
closed = 1;
nodes = (
(684,300,l),
(875,486,l),
(1123,231,l),
(1123,231,o),
(1123,231,o),
(1123,231,q),
(932,46,l),
(932,46,o),
(932,46,o),
(932,46,q)
);
}
);
width = 1193;
},
{
layerId = "B75C80CA-8025-4CF8-A3E7-75A43A0995A3";
shapes = (
{
closed = 1;
nodes = (
(435,133,o),
(185,404,o),
(185,578,qs),
(185,752,o),
(435,1022,o),
(628,1022,qs),
(820,1022,o),
(1071,752,o),
(1071,578,qs),
(1071,404,o),
(820,133,o),
(628,133,qs)
);
},
{
closed = 1;
nodes = (
(737,305,o),
(890,463,o),
(890,578,qs),
(890,692,o),
(737,851,o),
(628,851,qs),
(519,851,o),
(365,692,o),
(365,578,qs),
(365,463,o),
(519,305,o),
(628,305,qs)
);
},
{
closed = 1;
nodes = (
(330,756,l),
(120,967,l),
(120,967,o),
(120,967,o),
(120,967,q),
(238,1080,l),
(238,1080,o),
(238,1080,o),
(238,1080,q),
(447,875,l)
);
},
{
closed = 1;
nodes = (
(929,753,l),
(811,869,l),
(1021,1080,l),
(1021,1080,o),
(1021,1080,o),
(1021,1080,q),
(1135,962,l),
(1135,962,o),
(1135,962,o),
(1135,962,q)
);
},
{
closed = 1;
nodes = (
(233,74,l),
(233,74,o),
(233,74,o),
(233,74,q),
(120,192,l),
(120,192,o),
(120,192,o),
(120,192,q),
(325,401,l),
(444,285,l)
);
},
{
closed = 1;
nodes = (
(808,279,l),
(924,398,l),
(1135,187,l),
(1135,187,o),
(1135,187,o),
(1135,187,q),
(1016,74,l),
(1016,74,o),
(1016,74,o),
(1016,74,q)
);
}
);
width = 1240;
},
{
layerId = "A08665C1-CA57-4E4D-B402-868E03E7A8D5";
shapes = (
{
closed = 1;
nodes = (
(393,134,o),
(171,388,o),
(171,579,qs),
(171,769,o),
(393,1021,o),
(569,1021,qs),
(744,1021,o),
(967,769,o),
(967,579,qs),
(967,388,o),
(744,134,o),
(569,134,qs)
);
},
{
closed = 1;
nodes = (
(666,302,o),
(791,450,o),
(791,578,qs),
(791,705,o),
(666,854,o),
(569,854,qs),
(472,854,o),
(346,705,o),
(346,578,qs),
(346,450,o),
(472,302,o),
(569,302,qs)
);
},
{
closed = 1;
nodes = (
(292,784,l),
(110,972,l),
(110,972,o),
(110,972,o),
(110,972,q),
(224,1079,l),
(224,1079,o),
(224,1079,o),
(224,1079,q),
(405,895,l)
);
},
{
closed = 1;
nodes = (
(847,782,l),
(734,890,l),
(916,1079,l),
(916,1079,o),
(916,1079,o),
(916,1079,q),
(1026,969,l),
(1026,969,o),
(1026,969,o),
(1026,969,q)
);
},
{
closed = 1;
nodes = (
(219,76,l),
(219,76,o),
(219,76,o),
(219,76,q),
(111,184,l),
(111,184,o),
(111,184,o),
(111,184,q),
(288,370,l),
(401,263,l)
);
},
{
closed = 1;
nodes = (
(732,259,l),
(844,370,l),
(1026,182,l),
(1026,182,o),
(1026,182,o),
(1026,182,q),
(912,75,l),
(912,75,o),
(912,75,o),
(912,75,q)
);
}
);
width = 1121;
},
{
layerId = "5EFB1F2B-6635-43CF-844A-B3185C929525";
shapes = (
{
closed = 1;
nodes = (
(445,148,o),
(211,403,o),
(211,578,qs),
(211,753,o),
(445,1007,o),
(623,1007,qs),
(801,1007,o),
(1035,753,o),
(1035,578,qs),
(1035,403,o),
(801,148,o),
(623,148,qs)
);
},
{
closed = 1;
nodes = (
(768,209,o),
(968,419,o),
(968,578,qs),
(968,737,o),
(769,948,o),
(625,948,qs),
(480,948,o),
(277,737,o),
(277,578,qs),
(277,419,o),
(480,209,o),
(624,209,qs)
);
},
{
closed = 1;
nodes = (
(338,836,l),
(161,1015,l),
(161,1015,o),
(161,1015,o),
(161,1015,q),
(205,1060,l),
(205,1060,o),
(205,1060,o),
(205,1060,q),
(384,884,l)
);
},
{
closed = 1;
nodes = (
(907,836,l),
(864,884,l),
(1040,1060,l),
(1040,1060,o),
(1040,1060,o),
(1040,1060,q),
(1084,1015,l),
(1084,1015,o),
(1084,1015,o),
(1084,1015,q)
);
},
{
closed = 1;
nodes = (
(205,93,l),
(205,93,o),
(205,93,o),
(205,93,q),
(161,137,l),
(161,137,o),
(161,137,o),
(161,137,q),
(339,319,l),
(384,271,l)
);
},
{
closed = 1;
nodes = (
(863,269,l),
(907,318,l),
(1084,138,l),
(1084,138,o),
(1084,138,o),
(1084,138,q),
(1040,93,l),
(1040,93,o),
(1040,93,o),
(1040,93,q)
);
}
);
width = 1225;
},
{
layerId = "530719F5-0959-4DA7-9A1D-C7B5EABE4A1F";
shapes = (
{
closed = 1;
nodes = (
(404,149,o),
(200,392,o),
(200,579,qs),
(200,765,o),
(404,1006,o),
(568,1006,qs),
(732,1006,o),
(936,765,o),
(936,579,qs),
(936,392,o),
(732,149,o),
(568,149,qs)
);
},
{
closed = 1;
nodes = (
(701,209,o),
(870,411,o),
(870,578,qs),
(870,745,o),
(702,948,o),
(569,948,qs),
(436,948,o),
(265,745,o),
(265,578,qs),
(265,411,o),
(436,209,o),
(569,209,qs)
);
},
{
closed = 1;
nodes = (
(313,847,l),
(150,1017,l),
(150,1017,o),
(150,1017,o),
(150,1017,q),
(196,1060,l),
(196,1060,o),
(196,1060,o),
(196,1060,q),
(359,894,l)
);
},
{
closed = 1;
nodes = (
(822,848,l),
(779,893,l),
(939,1061,l),
(939,1061,o),
(939,1061,o),
(939,1061,q),
(984,1017,l),
(984,1017,o),
(984,1017,o),
(984,1017,q)
);
},
{
closed = 1;
nodes = (
(196,93,l),
(196,93,o),
(196,93,o),
(196,93,q),
(151,136,l),
(151,136,o),
(151,136,o),
(151,136,q),
(314,307,l),
(360,262,l)
);
},
{
closed = 1;
nodes = (
(777,260,l),
(822,307,l),
(984,137,l),
(984,137,o),
(984,137,o),
(984,137,q),
(938,93,l),
(938,93,o),
(938,93,o),
(938,93,q)
);
}
);
width = 1115;
}
);
unicode = 164;
},
{
glyphname = Euro;
layers = (
{
layerId = "872C3892-1949-4E27-92D3-5A16DDABBAC0";
shapes = (
{
closed = 1;
nodes = (
(479,-37,o),
(153,375,o),
(218,743,q),
(218,743,l),
(282,1106,o),
(682,1471,o),
(970,1471,qs),
(1069,1471,o),
(1236,1421,o),
(1370,1334,o),
(1448,1250,o),
(1448,1250,o),
(1448,1250,q),
(1133,1005,l),
(1133,1005,o),
(1133,1005,o),
(1098,1035,o),
(1046,1065,o),
(986,1079,o),
(954,1079,qs),
(835,1079,o),
(678,917,o),
(643,720,q),
(643,720,l),
(609,527,o),
(710,353,o),
(823,353,qs),
(865,353,o),
(937,372,o),
(996,401,o),
(1034,430,o),
(1034,430,o),
(1034,430,q),
(1260,159,l),
(1260,159,o),
(1260,159,o),
(1177,87,o),
(1037,9,o),
(865,-37,o),
(763,-37,qs)
);
},
{
closed = 1;
nodes = (
(101,761,l),
(101,761,o),
(101,761,o),
(101,761,q),
(136,953,l),
(136,953,o),
(136,953,o),
(136,953,q),
(1063,953,l),
(1063,953,o),
(1063,953,o),
(1063,953,q),
(1027,761,l),
(1027,761,o),
(1027,761,o),
(1027,761,q)
);
},
{
closed = 1;
nodes = (
(53,485,l),
(53,485,o),
(53,485,o),
(53,485,q),
(88,678,l),
(88,678,o),
(88,678,o),
(88,678,q),
(1015,678,l),
(1015,678,o),
(1015,678,o),
(1015,678,q),
(979,485,l),
(979,485,o),
(979,485,o),
(979,485,q)
);
}
);
width = 1377;
},
{
layerId = "E858B941-4367-47FB-AD3D-B27AC74F93CC";
shapes = (
{
closed = 1;
nodes = (
(425,-34,o),
(137,376,o),
(202,744,q),
(202,744,l),
(266,1105,o),
(633,1468,o),
(908,1468,qs),
(1012,1468,o),
(1177,1409,o),
(1298,1310,o),
(1361,1221,o),
(1361,1221,o),
(1361,1221,q),
(1036,1005,l),
(1036,1005,o),
(1036,1005,o),
(1010,1035,o),
(970,1067,o),
(917,1083,o),
(887,1083,qs),
(789,1083,o),
(659,932,o),
(627,750,qs),
(616,686,ls),
(584,508,o),
(662,349,o),
(757,349,qs),
(793,349,o),
(854,368,o),
(904,398,o),
(935,428,o),
(935,428,o),
(935,428,q),
(1183,193,l),
(1183,193,o),
(1183,193,o),
(1106,113,o),
(973,21,o),
(802,-34,o),
(698,-34,qs)
);
},
{
closed = 1;
nodes = (
(96,761,l),
(96,761,o),
(96,761,o),
(96,761,q),
(130,951,l),
(130,951,o),
(130,951,o),
(130,951,q),
(1027,951,l),
(1027,951,o),
(1027,951,o),
(1027,951,q),
(992,761,l),
(992,761,o),
(992,761,o),
(992,761,q)
);
},
{
closed = 1;
nodes = (
(48,488,l),
(48,488,o),
(48,488,o),
(48,488,q),
(83,679,l),
(83,679,o),
(83,679,o),
(83,679,q),
(980,679,l),
(980,679,o),
(980,679,o),
(980,679,q),
(945,488,l),
(945,488,o),
(945,488,o),
(945,488,q)
);
}
);
width = 1291;
},
{
layerId = "B75C80CA-8025-4CF8-A3E7-75A43A0995A3";
shapes = (
{
closed = 1;
nodes = (
(418,-34,o),
(152,365,o),
(215,726,q),
(215,726,l),
(277,1079,o),
(650,1467,o),
(893,1467,qs),
(982,1467,o),
(1132,1419,o),
(1251,1326,o),
(1316,1243,o),
(1316,1243,o),
(1316,1243,q),
(1159,1133,l),
(1159,1133,o),
(1159,1133,o),
(1097,1207,o),
(1036,1250,o),
(942,1281,o),
(881,1281,qs),
(717,1281,o),
(460,989,o),
(414,727,q),
(414,727,l),
(366,455,o),
(510,151,o),
(677,151,qs),
(738,151,o),
(845,183,o),
(940,241,o),
(1006,304,o),
(1006,304,o),
(1006,304,q),
(1136,182,l),
(1136,182,o),
(1136,182,o),
(1050,94,o),
(914,11,o),
(754,-34,o),
(660,-34,qs)
);
},
{
closed = 1;
nodes = (
(128,795,l),
(128,795,o),
(128,795,o),
(128,795,q),
(152,929,l),
(152,929,o),
(152,929,o),
(152,929,q),
(1055,929,l),
(1055,929,o),
(1055,929,o),
(1055,929,q),
(1031,795,l),
(1031,795,o),
(1031,795,o),
(1031,795,q)
);
},
{
closed = 1;
nodes = (
(79,510,l),
(79,510,o),
(79,510,o),
(79,510,q),
(103,644,l),
(103,644,o),
(103,644,o),
(103,644,q),
(1005,644,l),
(1005,644,o),
(1005,644,o),
(1005,644,q),
(981,510,l),
(981,510,o),
(981,510,o),
(981,510,q)
);
}
);
width = 1250;
},
{
layerId = "A08665C1-CA57-4E4D-B402-868E03E7A8D5";
shapes = (
{
closed = 1;
nodes = (
(361,-30,o),
(129,333,o),
(189,675,qs),
(208,780,ls),
(267,1119,o),
(590,1463,o),
(807,1463,qs),
(893,1463,o),
(1030,1411,o),
(1132,1316,o),
(1185,1229,o),
(1185,1229,o),
(1185,1229,q),
(1026,1132,l),
(1026,1132,o),
(1026,1132,o),
(979,1203,o),
(928,1252,o),
(849,1283,o),
(795,1283,qs),
(657,1283,o),
(444,1022,o),
(402,781,qs),
(382,667,ls),
(338,420,o),
(455,149,o),
(594,149,qs),
(647,149,o),
(739,182,o),
(820,244,o),
(876,310,o),
(876,310,o),
(876,310,q),
(1011,201,l),
(1011,201,o),
(1011,201,o),
(935,108,o),
(815,20,o),
(667,-30,o),
(577,-30,qs)
);
},
{
closed = 1;
nodes = (
(115,792,l),
(115,792,o),
(115,792,o),
(115,792,q),
(139,926,l),
(139,926,o),
(139,926,o),
(139,926,q),
(937,926,l),
(937,926,o),
(937,926,o),
(937,926,q),
(913,792,l),
(913,792,o),
(913,792,o),
(913,792,q)
);
},
{
closed = 1;
nodes = (
(67,513,l),
(67,513,o),
(67,513,o),
(67,513,q),
(91,647,l),
(91,647,o),
(91,647,o),
(91,647,q),
(888,647,l),
(888,647,o),
(888,647,o),
(888,647,q),
(864,513,l),
(864,513,o),
(864,513,o),
(864,513,q)
);
}
);
width = 1121;
},
{
layerId = "5EFB1F2B-6635-43CF-844A-B3185C929525";
shapes = (
{
closed = 1;
nodes = (
(433,-29,o),
(198,375,o),
(261,736,q),
(261,736,l),
(325,1094,o),
(664,1462,o),
(896,1462,qs),
(980,1462,o),
(1120,1413,o),
(1229,1323,o),
(1289,1242,o),
(1289,1242,o),
(1289,1242,q),
(1236,1206,l),
(1236,1206,o),
(1236,1206,o),
(1181,1280,o),
(1089,1359,o),
(968,1400,o),
(891,1400,qs),
(688,1400,o),
(385,1054,o),
(328,732,q),
(328,732,l),
(269,402,o),
(465,32,o),
(670,32,qs),
(746,32,o),
(877,78,o),
(985,151,o),
(1061,229,o),
(1061,229,o),
(1061,229,q),
(1107,187,l),
(1107,187,o),
(1107,187,o),
(1029,103,o),
(907,21,o),
(755,-29,o),
(665,-29,qs)
);
},
{
closed = 1;
nodes = (
(173,830,l),
(173,830,o),
(173,830,o),
(173,830,q),
(184,891,l),
(184,891,o),
(184,891,o),
(184,891,q),
(1059,891,l),
(1059,891,o),
(1059,891,o),
(1059,891,q),
(1048,830,l),
(1048,830,o),
(1048,830,o),
(1048,830,q)
);
},
{
closed = 1;
nodes = (
(124,549,l),
(124,549,o),
(124,549,o),
(124,549,q),
(135,610,l),
(135,610,o),
(135,610,o),
(135,610,q),
(1009,610,l),
(1009,610,o),
(1009,610,o),
(1009,610,q),
(998,549,l),
(998,549,o),
(998,549,o),
(998,549,q)
);
}
);
width = 1286;
},
{
layerId = "530719F5-0959-4DA7-9A1D-C7B5EABE4A1F";
shapes = (
{
closed = 1;
nodes = (
(378,-25,o),
(176,337,o),
(236,679,qs),
(256,790,ls),
(316,1129,o),
(609,1458,o),
(810,1458,qs),
(888,1458,o),
(1014,1407,o),
(1107,1314,o),
(1153,1230,o),
(1153,1230,o),
(1153,1230,q),
(1099,1197,l),
(1099,1197,o),
(1099,1197,o),
(1057,1275,o),
(982,1355,o),
(876,1397,o),
(806,1397,qs),
(636,1397,o),
(376,1091,o),
(322,785,qs),
(302,673,ls),
(246,362,o),
(412,35,o),
(585,35,qs),
(655,35,o),
(770,82,o),
(863,160,o),
(927,241,o),
(927,241,o),
(927,241,q),
(975,203,l),
(975,203,o),
(975,203,o),
(908,114,o),
(801,27,o),
(663,-25,o),
(580,-25,qs)
);
},
{
closed = 1;
nodes = (
(161,827,l),
(161,827,o),
(161,827,o),
(161,827,q),
(172,888,l),
(172,888,o),
(172,888,o),
(172,888,q),
(940,888,l),
(940,888,o),
(940,888,o),
(940,888,q),
(929,827,l),
(929,827,o),
(929,827,o),
(929,827,q)
);
},
{
closed = 1;
nodes = (
(113,552,l),
(113,552,o),
(113,552,o),
(113,552,q),
(124,613,l),
(124,613,o),
(124,613,o),
(124,613,q),
(891,613,l),
(891,613,o),
(891,613,o),
(891,613,q),
(880,552,l),
(880,552,o),
(880,552,o),
(880,552,q)
);
}
);
width = 1142;
}
);
unicode = 8364;
},
{
glyphname = ampersand;
layers = (
{
layerId = "872C3892-1949-4E27-92D3-5A16DDABBAC0";
shapes = (
{
closed = 1;
nodes = (
(1140,-67,l),
(1140,-67,o),
(1140,-67,o),
(1140,-67,q),
(491,782,ls),
(432,859,o),
(362,1032,o),
(377,1120,q),
(377,1120,l),
(404,1274,o),
(673,1471,o),
(890,1471,qs),
(1001,1471,o),
(1171,1405,o),
(1292,1295,o),
(1348,1211,o),
(1348,1211,o),
(1348,1211,q),
(1040,1038,l),
(1040,1038,o),
(1040,1038,o),
(1017,1076,o),
(981,1113,o),
(935,1137,o),
(904,1137,qs),
(866,1137,o),
(816,1099,o),
(810,1068,q),
(810,1068,l),
(804,1036,o),
(833,980,o),
(872,931,qs),
(1465,173,l),
(1465,173,o),
(1465,173,o),
(1465,173,q)
);
},
{
closed = 1;
nodes = (
(331,-37,o),
(27,276,o),
(66,500,q),
(66,500,l),
(95,659,o),
(325,877,o),
(518,940,q),
(686,664,l),
(600,633,o),
(511,547,o),
(501,490,q),
(501,490,l),
(489,422,o),
(587,317,o),
(693,317,qs),
(791,317,o),
(996,443,o),
(1145,612,o),
(1245,784,o),
(1245,784,o),
(1245,784,q),
(1566,649,l),
(1566,649,o),
(1566,649,o),
(1444,417,o),
(1186,143,o),
(834,-37,o),
(640,-37,qs)
);
}
);
width = 1581;
},
{
layerId = "E858B941-4367-47FB-AD3D-B27AC74F93CC";
shapes = (
{
closed = 1;
nodes = (
(1044,-62,l),
(1044,-62,o),
(1044,-62,o),
(1044,-62,q),
(457,787,ls),
(401,868,o),
(339,1039,o),
(354,1128,q),
(354,1128,l),
(380,1279,o),
(639,1468,o),
(842,1468,qs),
(953,1468,o),
(1117,1403,o),
(1227,1295,o),
(1280,1201,o),
(1280,1201,o),
(1280,1201,q),
(973,1040,l),
(973,1040,o),
(973,1040,o),
(955,1081,o),
(924,1117,o),
(882,1140,o),
(853,1140,qs),
(818,1140,o),
(771,1102,o),
(764,1071,q),
(765,1070,l),
(758,1039,o),
(784,979,o),
(819,931,qs),
(1368,165,l),
(1368,165,o),
(1368,165,o),
(1368,165,q)
);
},
{
closed = 1;
nodes = (
(306,-34,o),
(20,271,o),
(58,495,q),
(59,495,l),
(87,654,o),
(304,871,o),
(490,936,q),
(647,657,l),
(570,628,o),
(487,542,o),
(477,484,q),
(477,485,l),
(464,414,o),
(551,316,o),
(646,316,qs),
(733,316,o),
(925,439,o),
(1063,605,o),
(1153,779,o),
(1153,779,o),
(1153,779,q),
(1465,664,l),
(1465,664,o),
(1465,664,o),
(1356,430,o),
(1114,157,o),
(778,-34,o),
(593,-34,qs)
);
}
);
width = 1481;
},
{
layerId = "B75C80CA-8025-4CF8-A3E7-75A43A0995A3";
shapes = (
{
closed = 1;
nodes = (
(1085,-40,l),
(1085,-40,o),
(1085,-40,o),
(1085,-40,q),
(479,815,ls),
(422,895,o),
(360,1070,o),
(377,1164,q),
(377,1164,l),
(400,1299,o),
(611,1467,o),
(765,1467,qs),
(852,1467,o),
(987,1413,o),
(1082,1322,o),
(1140,1234,o),
(1140,1234,o),
(1140,1234,q),
(984,1136,l),
(984,1136,o),
(984,1136,o),
(943,1199,o),
(884,1255,o),
(812,1287,o),
(767,1287,qs),
(686,1287,o),
(582,1202,o),
(570,1131,q),
(570,1131,l),
(561,1081,o),
(597,969,o),
(652,896,q),
(1238,71,l),
(1238,71,o),
(1238,71,o),
(1238,71,q)
);
},
{
closed = 1;
nodes = (
(295,-34,o),
(42,263,o),
(79,478,q),
(79,478,l),
(109,645,o),
(336,877,o),
(491,926,q),
(579,784,l),
(456,742,o),
(298,583,o),
(278,468,q),
(278,468,l),
(253,328,o),
(407,144,o),
(564,144,qs),
(676,144,o),
(895,260,o),
(1062,459,o),
(1165,657,o),
(1165,657,o),
(1165,657,q),
(1327,590,l),
(1327,590,o),
(1327,590,o),
(1194,330,o),
(987,108,o),
(712,-34,o),
(541,-34,qs)
);
}
);
width = 1360;
},
{
layerId = "A08665C1-CA57-4E4D-B402-868E03E7A8D5";
shapes = (
{
closed = 1;
nodes = (
(942,-35,l),
(942,-35,o),
(942,-35,o),
(942,-35,q),
(427,817,ls),
(375,902,o),
(321,1072,o),
(337,1160,q),
(338,1170,l),
(361,1304,o),
(557,1463,o),
(702,1463,qs),
(784,1463,o),
(909,1409,o),
(993,1314,o),
(1041,1221,o),
(1041,1221,o),
(1041,1221,q),
(881,1135,l),
(881,1135,o),
(881,1135,o),
(850,1198,o),
(802,1254,o),
(740,1285,o),
(700,1285,qs),
(629,1285,o),
(538,1207,o),
(526,1140,q),
(525,1133,l),
(515,1081,o),
(548,966,o),
(597,890,q),
(1098,64,l),
(1098,64,o),
(1098,64,o),
(1098,64,q)
);
},
{
closed = 1;
nodes = (
(251,-30,o),
(25,248,o),
(61,457,qs),
(66,483,ls),
(95,647,o),
(301,869,o),
(449,921,q),
(530,773,l),
(418,732,o),
(279,583,o),
(259,467,q),
(255,447,ls),
(231,313,o),
(361,145,o),
(496,145,qs),
(596,145,o),
(789,258,o),
(938,450,o),
(1031,649,o),
(1031,649,o),
(1031,649,q),
(1192,590,l),
(1192,590,o),
(1192,590,o),
(1073,331,o),
(883,109,o),
(627,-30,o),
(473,-30,qs)
);
}
);
width = 1219;
},
{
layerId = "5EFB1F2B-6635-43CF-844A-B3185C929525";
shapes = (
{
closed = 1;
nodes = (
(1116,-28,l),
(1116,-28,o),
(1116,-28,o),
(1116,-28,q),
(531,812,l),
(473,893,o),
(403,1077,o),
(420,1173,q),
(420,1173,l),
(443,1302,o),
(631,1462,o),
(773,1462,qs),
(849,1462,o),
(972,1406,o),
(1055,1312,o),
(1097,1228,o),
(1097,1228,o),
(1097,1228,q),
(1043,1197,l),
(1043,1197,o),
(1043,1197,o),
(1003,1274,o),
(933,1353,o),
(834,1402,o),
(768,1402,qs),
(660,1402,o),
(505,1276,o),
(487,1169,q),
(487,1169,l),
(472,1087,o),
(525,931,o),
(583,850,q),
(1171,10,l),
(1171,10,o),
(1171,10,o),
(1171,10,q)
);
},
{
closed = 1;
nodes = (
(335,-29,o),
(96,257,o),
(133,469,q),
(133,469,l),
(161,622,o),
(368,839,o),
(518,894,q),
(549,845,l),
(413,797,o),
(226,602,o),
(202,462,q),
(202,462,l),
(169,280,o),
(369,32,o),
(558,32,qs),
(699,32,o),
(943,170,o),
(1118,390,o),
(1220,578,o),
(1220,578,o),
(1220,578,q),
(1278,553,l),
(1278,553,o),
(1278,553,o),
(1173,354,o),
(982,116,o),
(718,-29,o),
(554,-29,qs)
);
}
);
width = 1357;
},
{
layerId = "530719F5-0959-4DA7-9A1D-C7B5EABE4A1F";
shapes = (
{
closed = 1;
nodes = (
(983,-25,l),
(983,-25,o),
(983,-25,o),
(983,-25,q),
(483,815,l),
(430,899,o),
(369,1077,o),
(387,1174,q),
(387,1179,l),
(409,1307,o),
(580,1458,o),
(711,1458,qs),
(782,1458,o),
(894,1405,o),
(966,1311,o),
(1001,1217,o),
(1001,1217,o),
(1001,1217,q),
(944,1190,l),
(944,1190,o),
(944,1190,o),
(914,1272,o),
(855,1351,o),
(767,1399,o),
(706,1399,qs),
(608,1399,o),
(472,1278,o),
(454,1174,qs),
(453,1168,ls),
(437,1085,o),
(485,932,o),
(536,850,q),
(1039,10,l),
(1039,10,o),
(1039,10,o),
(1039,10,q)
);
},
{
closed = 1;
nodes = (
(288,-25,o),
(81,241,o),
(116,443,qs),
(119,460,ls),
(148,623,o),
(343,836,o),
(478,887,q),
(507,838,l),
(385,792,o),
(212,601,o),
(187,452,q),
(184,437,ls),
(153,265,o),
(322,35,o),
(490,35,qs),
(613,35,o),
(829,168,o),
(981,380,o),
(1075,581,o),
(1075,581,o),
(1075,581,q),
(1133,559,l),
(1133,559,o),
(1133,559,o),
(1037,348,o),
(870,118,o),
(633,-25,o),
(486,-25,qs)
);
}
);
width = 1212;
}
);
unicode = 38;
},
{
glyphname = quotesingle;
layers = (
{
layerId = "872C3892-1949-4E27-92D3-5A16DDABBAC0";
shapes = (
{
closed = 1;
nodes = (
(225,878,l),
(225,878,o),
(225,878,o),
(225,878,q),
(330,1473,l),
(330,1473,o),
(330,1473,o),
(330,1473,q),
(712,1473,l),
(712,1473,o),
(712,1473,o),
(712,1473,q),
(607,878,l),
(607,878,o),
(607,878,o),
(607,878,q)
);
}
);
width = 712;
},
{
layerId = "E858B941-4367-47FB-AD3D-B27AC74F93CC";
shapes = (
{
closed = 1;
nodes = (
(216,892,l),
(216,892,o),
(216,892,o),
(216,892,q),
(318,1473,l),
(318,1473,o),
(318,1473,o),
(318,1473,q),
(686,1473,l),
(686,1473,o),
(686,1473,o),
(686,1473,q),
(583,892,l),
(583,892,o),
(583,892,o),
(583,892,q)
);
}
);
width = 675;
},
{
layerId = "B75C80CA-8025-4CF8-A3E7-75A43A0995A3";
shapes = (
{
closed = 1;
nodes = (
(251,941,l),
(251,941,o),
(251,941,o),
(251,941,q),
(345,1473,l),
(345,1473,o),
(345,1473,o),
(345,1473,q),
(518,1473,l),
(518,1473,o),
(518,1473,o),
(518,1473,q),
(424,941,l),
(424,941,o),
(424,941,o),
(424,941,q)
);
}
);
width = 531;
},
{
layerId = "A08665C1-CA57-4E4D-B402-868E03E7A8D5";
shapes = (
{
closed = 1;
nodes = (
(246,953,l),
(246,953,o),
(246,953,o),
(246,953,q),
(337,1473,l),
(337,1473,o),
(337,1473,o),
(337,1473,q),
(509,1473,l),
(509,1473,o),
(509,1473,o),
(509,1473,q),
(417,953,l),
(417,953,o),
(417,953,o),
(417,953,q)
);
}
);
width = 515;
},
{
layerId = "5EFB1F2B-6635-43CF-844A-B3185C929525";
shapes = (
{
closed = 1;
nodes = (
(302,976,l),
(302,976,o),
(302,976,o),
(302,976,q),
(391,1473,l),
(391,1473,o),
(391,1473,o),
(391,1473,q),
(459,1473,l),
(459,1473,o),
(459,1473,o),
(459,1473,q),
(371,976,l),
(371,976,o),
(371,976,o),
(371,976,q)
);
}
);
width = 513;
},
{
layerId = "530719F5-0959-4DA7-9A1D-C7B5EABE4A1F";
shapes = (
{
closed = 1;
nodes = (
(293,986,l),
(293,986,o),
(293,986,o),
(293,986,q),
(379,1473,l),
(379,1473,o),
(379,1473,o),
(379,1473,q),
(447,1473,l),
(447,1473,o),
(447,1473,o),
(447,1473,q),
(361,986,l),
(361,986,o),
(361,986,o),
(361,986,q)
);
}
);
width = 491;
}
);
leftKerningGroup = quotedbl2;
rightKerningGroup = quotedbl;
unicode = 39;
},
{
glyphname = parenleft;
layers = (
{
layerId = "872C3892-1949-4E27-92D3-5A16DDABBAC0";
shapes = (
{
closed = 1;
nodes = (
(504,529,o),
(523,289,o),
(599,65,o),
(683,-101,o),
(683,-101,o),
(683,-101,q),
(342,-294,l),
(342,-294,o),
(342,-294,o),
(230,-102,o),
(126,173,o),
(88,514,o),
(122,704,qs),
(152,872,o),
(276,1167,o),
(452,1415,o),
(644,1617,o),
(644,1617,o),
(644,1617,q),
(952,1394,l),
(952,1394,o),
(952,1394,o),
(802,1225,o),
(653,1019,o),
(552,800,o),
(528,664,qs)
);
}
);
width = 862;
},
{
layerId = "E858B941-4367-47FB-AD3D-B27AC74F93CC";
shapes = (
{
closed = 1;
nodes = (
(502,533,o),
(517,296,o),
(582,78,o),
(663,-108,o),
(663,-108,o),
(663,-108,q),
(320,-292,l),
(320,-292,o),
(320,-292,o),
(222,-105,o),
(122,186,o),
(92,524,o),
(123,706,qs),
(152,876,o),
(272,1164,o),
(439,1409,o),
(621,1613,o),
(621,1613,o),
(621,1613,q),
(934,1402,l),
(934,1402,o),
(934,1402,o),
(782,1218,o),
(645,1015,o),
(549,796,o),
(525,663,qs)
);
}
);
width = 835;
},
{
layerId = "B75C80CA-8025-4CF8-A3E7-75A43A0995A3";
shapes = (
{
closed = 1;
nodes = (
(320,515,o),
(340,251,o),
(421,14,o),
(520,-166,o),
(520,-166,o),
(520,-166,q),
(372,-265,l),
(372,-265,o),
(372,-265,o),
(265,-88,o),
(159,192,o),
(129,523,o),
(158,691,qs),
(188,862,o),
(315,1145,o),
(506,1405,o),
(682,1592,o),
(682,1592,o),
(682,1592,q),
(812,1476,l),
(812,1476,o),
(812,1476,o),
(653,1301,o),
(486,1064,o),
(372,809,o),
(346,661,qs)
);
}
);
width = 706;
},
{
layerId = "A08665C1-CA57-4E4D-B402-868E03E7A8D5";
shapes = (
{
closed = 1;
nodes = (
(300,511,o),
(318,243,o),
(392,6,o),
(484,-171,o),
(484,-171,o),
(484,-171,q),
(335,-265,l),
(335,-265,o),
(335,-265,o),
(233,-83,o),
(136,199,o),
(113,519,o),
(141,685,qs),
(170,855,o),
(292,1139,o),
(473,1397,o),
(647,1591,o),
(647,1591,o),
(647,1591,q),
(778,1479,l),
(778,1479,o),
(778,1479,o),
(623,1300,o),
(463,1064,o),
(353,808,o),
(327,660,qs)
);
}
);
width = 664;
},
{
layerId = "5EFB1F2B-6635-43CF-844A-B3185C929525";
shapes = (
{
closed = 1;
nodes = (
(214,499,o),
(247,198,o),
(351,-72,o),
(445,-223,o),
(445,-223,o),
(445,-223,q),
(391,-263,l),
(391,-263,o),
(391,-263,o),
(291,-105,o),
(181,175,o),
(144,494,o),
(178,684,q),
(212,881,o),
(356,1182,o),
(564,1442,o),
(713,1592,o),
(713,1592,o),
(713,1592,q),
(759,1546,l),
(759,1546,o),
(759,1546,o),
(616,1402,o),
(416,1149,o),
(277,855,o),
(246,678,qs)
);
}
);
width = 680;
},
{
layerId = "530719F5-0959-4DA7-9A1D-C7B5EABE4A1F";
shapes = (
{
closed = 1;
nodes = (
(207,493,o),
(233,194,o),
(327,-73,o),
(417,-225,o),
(417,-225,o),
(417,-225,q),
(364,-263,l),
(364,-263,o),
(364,-263,o),
(267,-101,o),
(167,173,o),
(138,488,o),
(172,678,q),
(205,874,o),
(343,1176,o),
(540,1439,o),
(685,1592,o),
(685,1592,o),
(685,1592,q),
(732,1547,l),
(732,1547,o),
(732,1547,o),
(593,1401,o),
(402,1144,o),
(271,850,o),
(239,672,qs)
);
}
);
width = 636;
}
);
unicode = 40;
},
{
glyphname = parenright;
layers = (
{
layerId = "872C3892-1949-4E27-92D3-5A16DDABBAC0";
shapes = (
{
closed = 1;
nodes = (
(403,794,o),
(384,1034,o),
(309,1259,o),
(224,1424,o),
(224,1424,o),
(224,1424,q),
(565,1617,l),
(565,1617,o),
(565,1617,o),
(677,1425,o),
(781,1150,o),
(820,809,o),
(785,620,q),
(755,451,o),
(631,156,o),
(456,-92,o),
(263,-294,o),
(263,-294,o),
(263,-294,q),
(-45,-70,l),
(-45,-70,o),
(-45,-70,o),
(105,99,o),
(254,305,o),
(356,524,o),
(380,659,qs)
);
}
);
width = 862;
},
{
layerId = "E858B941-4367-47FB-AD3D-B27AC74F93CC";
shapes = (
{
closed = 1;
nodes = (
(378,787,o),
(362,1023,o),
(298,1243,o),
(217,1427,o),
(217,1427,o),
(217,1427,q),
(560,1613,l),
(560,1613,o),
(560,1613,o),
(658,1424,o),
(758,1134,o),
(789,796,o),
(757,614,qs),
(727,443,o),
(608,156,o),
(441,-90,o),
(259,-292,o),
(259,-292,o),
(259,-292,q),
(-54,-81,l),
(-54,-81,o),
(-54,-81,o),
(97,102,o),
(235,305,o),
(332,525,o),
(356,657,q)
);
}
);
width = 835;
},
{
layerId = "B75C80CA-8025-4CF8-A3E7-75A43A0995A3";
shapes = (
{
closed = 1;
nodes = (
(433,812,o),
(413,1076,o),
(333,1313,o),
(233,1493,o),
(233,1493,o),
(233,1493,q),
(381,1592,l),
(381,1592,o),
(381,1592,o),
(488,1415,o),
(594,1135,o),
(625,804,o),
(595,636,qs),
(565,465,o),
(438,182,o),
(248,-78,o),
(71,-265,o),
(71,-265,o),
(71,-265,q),
(-59,-149,l),
(-59,-149,o),
(-59,-149,o),
(100,26,o),
(267,263,o),
(382,518,o),
(408,666,qs)
);
}
);
width = 706;
},
{
layerId = "A08665C1-CA57-4E4D-B402-868E03E7A8D5";
shapes = (
{
closed = 1;
nodes = (
(411,815,o),
(393,1082,o),
(320,1319,o),
(227,1496,o),
(227,1496,o),
(227,1496,q),
(376,1591,l),
(376,1591,o),
(376,1591,o),
(478,1408,o),
(575,1127,o),
(599,807,o),
(570,640,qs),
(540,470,o),
(419,187,o),
(239,-72,o),
(64,-265,o),
(64,-265,o),
(64,-265,q),
(-67,-153,l),
(-67,-153,o),
(-67,-153,o),
(87,25,o),
(248,261,o),
(359,518,o),
(385,666,qs)
);
}
);
width = 664;
},
{
layerId = "5EFB1F2B-6635-43CF-844A-B3185C929525";
shapes = (
{
closed = 1;
nodes = (
(517,829,o),
(484,1131,o),
(381,1400,o),
(286,1552,o),
(286,1552,o),
(286,1552,q),
(340,1592,l),
(340,1592,o),
(340,1592,o),
(440,1434,o),
(550,1154,o),
(587,835,o),
(553,644,qs),
(519,447,o),
(375,146,o),
(168,-113,o),
(18,-263,o),
(18,-263,o),
(18,-263,q),
(-28,-218,l),
(-28,-218,o),
(-28,-218,o),
(115,-73,o),
(315,179,o),
(455,473,o),
(485,650,q)
);
}
);
width = 680;
},
{
layerId = "530719F5-0959-4DA7-9A1D-C7B5EABE4A1F";
shapes = (
{
closed = 1;
nodes = (
(480,835,o),
(454,1134,o),
(361,1400,o),
(269,1553,o),
(269,1553,o),
(269,1553,q),
(323,1592,l),
(323,1592,o),
(323,1592,o),
(420,1429,o),
(519,1156,o),
(548,841,o),
(515,649,qs),
(481,453,o),
(344,152,o),
(147,-111,o),
(2,-263,o),
(2,-263,o),
(2,-263,q),
(-45,-219,l),
(-45,-219,o),
(-45,-219,o),
(92,-73,o),
(285,183,o),
(417,478,o),
(448,656,qs)
);
}
);
width = 636;
}
);
unicode = 41;
},
{
glyphname = asterisk;
layers = (
{
layerId = "872C3892-1949-4E27-92D3-5A16DDABBAC0";
shapes = (
{
closed = 1;
nodes = (
(172,817,l),
(172,817,o),
(172,817,o),
(172,817,q),
(426,1022,l),
(426,1033,l),
(154,1169,l),
(154,1169,o),
(154,1169,o),
(154,1169,q),
(299,1415,l),
(299,1415,o),
(299,1415,o),
(299,1415,q),
(536,1242,l),
(547,1249,l),
(577,1540,l),
(577,1540,o),
(577,1540,o),
(577,1540,q),
(868,1488,l),
(868,1488,o),
(868,1488,o),
(868,1488,q),
(798,1205,l),
(807,1195,l),
(1086,1274,l),
(1086,1274,o),
(1086,1274,o),
(1086,1274,q),
(1137,998,l),
(1137,998,o),
(1137,998,o),
(1137,998,q),
(840,960,l),
(836,949,l),
(1002,673,l),
(1002,673,o),
(1002,673,o),
(1002,673,q),
(734,555,l),
(734,555,o),
(734,555,o),
(734,555,q),
(611,851,l),
(602,853,l),
(386,618,l),
(386,618,o),
(386,618,o),
(386,618,q)
);
}
);
width = 1097;
},
{
layerId = "E858B941-4367-47FB-AD3D-B27AC74F93CC";
shapes = (
{
closed = 1;
nodes = (
(168,844,l),
(168,844,o),
(168,844,o),
(168,844,q),
(411,1039,l),
(411,1050,l),
(151,1180,l),
(151,1180,o),
(151,1180,o),
(151,1180,q),
(292,1419,l),
(292,1419,o),
(292,1419,o),
(292,1419,q),
(517,1252,l),
(528,1258,l),
(556,1537,l),
(556,1537,o),
(556,1537,o),
(556,1537,q),
(838,1486,l),
(838,1486,o),
(838,1486,o),
(838,1486,q),
(770,1216,l),
(779,1206,l),
(1045,1284,l),
(1045,1284,o),
(1045,1284,o),
(1045,1284,q),
(1095,1015,l),
(1095,1015,o),
(1095,1015,o),
(1095,1015,q),
(810,979,l),
(806,968,l),
(966,705,l),
(966,705,o),
(966,705,o),
(966,705,q),
(707,591,l),
(707,591,o),
(707,591,o),
(707,591,q),
(590,875,l),
(581,877,l),
(375,650,l),
(375,650,o),
(375,650,o),
(375,650,q)
);
}
);
width = 1047;
},
{
layerId = "B75C80CA-8025-4CF8-A3E7-75A43A0995A3";
shapes = (
{
closed = 1;
nodes = (
(230,884,l),
(230,884,o),
(230,884,o),
(230,884,q),
(441,1081,l),
(439,1096,l),
(198,1215,l),
(198,1215,o),
(198,1215,o),
(198,1215,q),
(274,1355,l),
(274,1355,o),
(274,1355,o),
(274,1355,q),
(507,1223,l),
(518,1229,l),
(561,1497,l),
(561,1497,o),
(561,1497,o),
(561,1497,q),
(718,1468,l),
(718,1468,o),
(718,1468,o),
(718,1468,q),
(667,1203,l),
(676,1193,l),
(939,1238,l),
(939,1238,o),
(939,1238,o),
(939,1238,q),
(963,1080,l),
(963,1080,o),
(963,1080,o),
(963,1080,q),
(695,1051,l),
(688,1038,l),
(820,780,l),
(820,780,o),
(820,780,o),
(820,780,q),
(675,709,l),
(675,709,o),
(675,709,o),
(675,709,q),
(556,972,l),
(543,974,l),
(341,768,l),
(341,768,o),
(341,768,o),
(341,768,q)
);
}
);
width = 943;
},
{
layerId = "A08665C1-CA57-4E4D-B402-868E03E7A8D5";
shapes = (
{
closed = 1;
nodes = (
(217,908,l),
(217,908,o),
(217,908,o),
(217,908,q),
(419,1097,l),
(417,1110,l),
(188,1225,l),
(188,1225,o),
(188,1225,o),
(188,1225,q),
(262,1361,l),
(262,1361,o),
(262,1361,o),
(262,1361,q),
(484,1234,l),
(494,1239,l),
(535,1495,l),
(535,1495,o),
(535,1495,o),
(535,1495,q),
(688,1467,l),
(688,1467,o),
(688,1467,o),
(688,1467,q),
(638,1214,l),
(646,1205,l),
(897,1248,l),
(897,1248,o),
(897,1248,o),
(897,1248,q),
(921,1096,l),
(921,1096,o),
(921,1096,o),
(921,1096,q),
(665,1066,l),
(659,1055,l),
(784,808,l),
(784,808,o),
(784,808,o),
(784,808,q),
(644,740,l),
(644,740,o),
(644,740,o),
(644,740,q),
(530,991,l),
(519,993,l),
(326,796,l),
(326,796,o),
(326,796,o),
(326,796,q)
);
}
);
width = 886;
},
{
layerId = "5EFB1F2B-6635-43CF-844A-B3185C929525";
shapes = (
{
closed = 1;
nodes = (
(257,885,l),
(257,885,o),
(257,885,o),
(257,885,q),
(499,1116,l),
(499,1119,l),
(216,1267,l),
(216,1267,o),
(216,1267,o),
(216,1267,q),
(248,1327,l),
(248,1327,o),
(248,1327,o),
(248,1327,q),
(521,1174,l),
(524,1176,l),
(573,1481,l),
(573,1481,o),
(573,1481,o),
(573,1481,q),
(639,1467,l),
(639,1467,o),
(639,1467,o),
(639,1467,q),
(582,1165,l),
(585,1162,l),
(895,1212,l),
(895,1212,o),
(895,1212,o),
(895,1212,q),
(903,1146,l),
(903,1146,o),
(903,1146,o),
(903,1146,q),
(587,1103,l),
(587,1100,l),
(734,801,l),
(734,801,o),
(734,801,o),
(734,801,q),
(675,769,l),
(675,769,o),
(675,769,o),
(675,769,q),
(538,1068,l),
(535,1069,l),
(303,835,l),
(303,835,o),
(303,835,o),
(303,835,q)
);
}
);
width = 877;
},
{
layerId = "530719F5-0959-4DA7-9A1D-C7B5EABE4A1F";
shapes = (
{
closed = 1;
nodes = (
(247,905,l),
(247,905,o),
(247,905,o),
(247,905,q),
(480,1127,l),
(480,1131,l),
(208,1273,l),
(208,1273,o),
(208,1273,o),
(208,1273,q),
(240,1333,l),
(240,1333,o),
(240,1333,o),
(240,1333,q),
(501,1185,l),
(505,1186,l),
(552,1481,l),
(552,1481,o),
(552,1481,o),
(552,1481,q),
(618,1467,l),
(618,1467,o),
(618,1467,o),
(618,1467,q),
(562,1176,l),
(565,1173,l),
(863,1221,l),
(863,1221,o),
(863,1221,o),
(863,1221,q),
(872,1156,l),
(872,1156,o),
(872,1156,o),
(872,1156,q),
(568,1114,l),
(567,1111,l),
(708,823,l),
(708,823,o),
(708,823,o),
(708,823,q),
(650,792,l),
(650,792,o),
(650,792,o),
(650,792,q),
(519,1080,l),
(516,1081,l),
(293,855,l),
(293,855,o),
(293,855,o),
(293,855,q)
);
}
);
width = 835;
}
);
unicode = 42;
},
{
glyphname = plus;
layers = (
{
layerId = "872C3892-1949-4E27-92D3-5A16DDABBAC0";
shapes = (
{
closed = 1;
nodes = (
(485,102,l),
(485,102,o),
(485,102,o),
(485,102,q),
(485,1196,l),
(485,1196,o),
(485,1196,o),
(485,1196,q),
(829,1196,l),
(829,1196,o),
(829,1196,o),
(829,1196,q),
(829,102,l),
(829,102,o),
(829,102,o),
(829,102,q)
);
},
{
closed = 1;
nodes = (
(124,481,l),
(124,481,o),
(124,481,o),
(124,481,q),
(124,819,l),
(124,819,o),
(124,819,o),
(124,819,q),
(1191,819,l),
(1191,819,o),
(1191,819,o),
(1191,819,q),
(1191,481,l),
(1191,481,o),
(1191,481,o),
(1191,481,q)
);
}
);
width = 1276;
},
{
layerId = "E858B941-4367-47FB-AD3D-B27AC74F93CC";
shapes = (
{
closed = 1;
nodes = (
(459,123,l),
(459,123,o),
(459,123,o),
(459,123,q),
(464,1175,l),
(464,1175,o),
(464,1175,o),
(464,1175,q),
(804,1175,l),
(804,1175,o),
(804,1175,o),
(804,1175,q),
(799,123,l),
(799,123,o),
(799,123,o),
(799,123,q)
);
},
{
closed = 1;
nodes = (
(121,482,l),
(121,482,o),
(121,482,o),
(121,482,q),
(121,817,l),
(121,817,o),
(121,817,o),
(121,817,q),
(1146,817,l),
(1146,817,o),
(1146,817,o),
(1146,817,q),
(1146,482,l),
(1146,482,o),
(1146,482,o),
(1146,482,q)
);
}
);
width = 1228;
},
{
layerId = "B75C80CA-8025-4CF8-A3E7-75A43A0995A3";
shapes = (
{
closed = 1;
nodes = (
(531,154,l),
(531,154,o),
(531,154,o),
(531,154,q),
(531,1136,l),
(531,1136,o),
(531,1136,o),
(531,1136,q),
(702,1136,l),
(702,1136,o),
(702,1136,o),
(702,1136,q),
(702,154,l),
(702,154,o),
(702,154,o),
(702,154,q)
);
},
{
closed = 1;
nodes = (
(141,561,l),
(141,561,o),
(141,561,o),
(141,561,q),
(141,730,l),
(141,730,o),
(141,730,o),
(141,730,q),
(1092,730,l),
(1092,730,o),
(1092,730,o),
(1092,730,q),
(1092,561,l),
(1092,561,o),
(1092,561,o),
(1092,561,q)
);
}
);
width = 1194;
},
{
layerId = "A08665C1-CA57-4E4D-B402-868E03E7A8D5";
shapes = (
{
closed = 1;
nodes = (
(493,184,l),
(493,184,o),
(493,184,o),
(493,184,q),
(493,1106,l),
(493,1106,o),
(493,1106,o),
(493,1106,q),
(661,1106,l),
(661,1106,o),
(661,1106,o),
(661,1106,q),
(661,184,l),
(661,184,o),
(661,184,o),
(661,184,q)
);
},
{
closed = 1;
nodes = (
(131,562,l),
(131,562,o),
(131,562,o),
(131,562,q),
(131,729,l),
(131,729,o),
(131,729,o),
(131,729,q),
(1022,729,l),
(1022,729,o),
(1022,729,o),
(1022,729,q),
(1022,562,l),
(1022,562,o),
(1022,562,o),
(1022,562,q)
);
}
);
width = 1115;
},
{
layerId = "5EFB1F2B-6635-43CF-844A-B3185C929525";
shapes = (
{
closed = 1;
nodes = (
(573,185,l),
(573,185,o),
(573,185,o),
(573,185,q),
(573,1095,l),
(573,1095,o),
(573,1095,o),
(573,1095,q),
(638,1095,l),
(638,1095,o),
(638,1095,o),
(638,1095,q),
(638,185,l),
(638,185,o),
(638,185,o),
(638,185,q)
);
},
{
closed = 1;
nodes = (
(166,609,l),
(166,609,o),
(166,609,o),
(166,609,q),
(166,674,l),
(166,674,o),
(166,674,o),
(166,674,q),
(1046,674,l),
(1046,674,o),
(1046,674,o),
(1046,674,q),
(1046,609,l),
(1046,609,o),
(1046,609,o),
(1046,609,q)
);
}
);
width = 1170;
},
{
layerId = "530719F5-0959-4DA7-9A1D-C7B5EABE4A1F";
shapes = (
{
closed = 1;
nodes = (
(539,213,l),
(539,213,o),
(539,213,o),
(539,213,q),
(539,1067,l),
(539,1067,o),
(539,1067,o),
(539,1067,q),
(604,1067,l),
(604,1067,o),
(604,1067,o),
(604,1067,q),
(604,213,l),
(604,213,o),
(604,213,o),
(604,213,q)
);
},
{
closed = 1;
nodes = (
(159,608,l),
(159,608,o),
(159,608,o),
(159,608,q),
(159,674,l),
(159,674,o),
(159,674,o),
(159,674,q),
(984,674,l),
(984,674,o),
(984,674,o),
(984,674,q),
(984,608,l),
(984,608,o),
(984,608,o),
(984,608,q)
);
}
);
width = 1102;
}
);
leftKerningGroup = plus2;
rightKerningGroup = plus;
unicode = 43;
},
{
glyphname = comma;
layers = (
{
layerId = "872C3892-1949-4E27-92D3-5A16DDABBAC0";
shapes = (
{
closed = 1;
nodes = (
(140,48,l),
(105,70,o),
(45,166,o),
(45,238,qs),
(45,335,o),
(191,471,o),
(291,471,qs),
(396,471,o),
(535,336,o),
(535,238,qs),
(535,167,o),
(485,56,o),
(427,-11,qs),
(145,-332,l),
(145,-332,o),
(145,-332,o),
(-52,-170,q)
);
}
);
width = 681;
},
{
layerId = "E858B941-4367-47FB-AD3D-B27AC74F93CC";
shapes = (
{
closed = 1;
nodes = (
(132,45,l),
(94,68,o),
(34,163,o),
(34,232,qs),
(34,328,o),
(176,463,o),
(275,463,qs),
(376,463,o),
(514,328,o),
(514,231,qs),
(514,167,o),
(467,59,o),
(411,-8,qs),
(146,-322,l),
(146,-322,o),
(146,-322,o),
(-48,-169,q)
);
}
);
width = 652;
},
{
layerId = "B75C80CA-8025-4CF8-A3E7-75A43A0995A3";
shapes = (
{
closed = 1;
nodes = (
(164,4,l),
(129,18,o),
(80,83,o),
(80,131,qs),
(80,190,o),
(166,273,o),
(226,273,qs),
(287,273,o),
(372,191,o),
(372,133,qs),
(372,91,o),
(339,18,o),
(296,-32,qs),
(102,-258,l),
(102,-258,o),
(102,-258,o),
(4,-178,q)
);
}
);
width = 580;
},
{
layerId = "A08665C1-CA57-4E4D-B402-868E03E7A8D5";
shapes = (
{
closed = 1;
nodes = (
(149,6,l),
(114,19,o),
(66,83,o),
(66,131,qs),
(66,189,o),
(150,270,o),
(209,270,qs),
(269,270,o),
(352,189,o),
(352,131,qs),
(352,92,o),
(321,22,o),
(280,-28,qs),
(92,-253,l),
(92,-253,o),
(92,-253,o),
(-5,-177,q)
);
}
);
width = 549;
},
{
layerId = "5EFB1F2B-6635-43CF-844A-B3185C929525";
shapes = (
{
closed = 1;
nodes = (
(168,-5,l),
(136,-1,o),
(95,46,o),
(95,81,qs),
(95,121,o),
(150,176,o),
(190,176,qs),
(231,176,o),
(286,119,o),
(286,79,qs),
(286,56,o),
(268,7,o),
(240,-27,qs),
(62,-242,l),
(62,-242,o),
(62,-242,o),
(8,-198,q)
);
}
);
width = 538;
},
{
layerId = "530719F5-0959-4DA7-9A1D-C7B5EABE4A1F";
shapes = (
{
closed = 1;
nodes = (
(155,-3,l),
(125,1,o),
(85,47,o),
(85,82,qs),
(85,121,o),
(139,175,o),
(178,175,qs),
(218,175,o),
(271,119,o),
(271,80,qs),
(271,58,o),
(253,11,o),
(226,-23,qs),
(57,-233,l),
(57,-233,o),
(57,-233,o),
(4,-190,q)
);
}
);
width = 513;
}
);
leftKerningGroup = comma2;
rightKerningGroup = comma;
unicode = 44;
},
{
glyphname = hyphen;
layers = (
{
layerId = "872C3892-1949-4E27-92D3-5A16DDABBAC0";
shapes = (
{
closed = 1;
nodes = (
(37,505,l),
(37,505,o),
(37,505,o),
(37,505,q),
(101,873,l),
(101,873,o),
(101,873,o),
(101,873,q),
(804,873,l),
(804,873,o),
(804,873,o),
(804,873,q),
(740,505,l),
(740,505,o),
(740,505,o),
(740,505,q)
);
}
);
width = 786;
},
{
layerId = "E858B941-4367-47FB-AD3D-B27AC74F93CC";
shapes = (
{
closed = 1;
nodes = (
(39,507,l),
(39,507,o),
(39,507,o),
(39,507,q),
(102,871,l),
(102,871,o),
(102,871,o),
(102,871,q),
(761,871,l),
(761,871,o),
(761,871,o),
(761,871,q),
(698,507,l),
(698,507,o),
(698,507,o),
(698,507,q)
);
}
);
width = 745;
},
{
layerId = "B75C80CA-8025-4CF8-A3E7-75A43A0995A3";
shapes = (
{
closed = 1;
nodes = (
(76,598,l),
(76,598,o),
(76,598,o),
(76,598,q),
(106,772,l),
(106,772,o),
(106,772,o),
(106,772,q),
(764,772,l),
(764,772,o),
(764,772,o),
(764,772,q),
(734,598,l),
(734,598,o),
(734,598,o),
(734,598,q)
);
}
);
width = 785;
},
{
layerId = "A08665C1-CA57-4E4D-B402-868E03E7A8D5";
shapes = (
{
closed = 1;
nodes = (
(69,598,l),
(69,598,o),
(69,598,o),
(69,598,q),
(99,772,l),
(99,772,o),
(99,772,o),
(99,772,q),
(698,772,l),
(698,772,o),
(698,772,o),
(698,772,q),
(668,598,l),
(668,598,o),
(668,598,o),
(668,598,q)
);
}
);
width = 712;
},
{
layerId = "5EFB1F2B-6635-43CF-844A-B3185C929525";
shapes = (
{
closed = 1;
nodes = (
(94,631,l),
(94,631,o),
(94,631,o),
(94,631,q),
(106,704,l),
(106,704,o),
(106,704,o),
(106,704,q),
(721,704,l),
(721,704,o),
(721,704,o),
(721,704,q),
(709,631,l),
(709,631,o),
(709,631,o),
(709,631,q)
);
}
);
width = 764;
},
{
layerId = "530719F5-0959-4DA7-9A1D-C7B5EABE4A1F";
shapes = (
{
closed = 1;
nodes = (
(93,632,l),
(93,632,o),
(93,632,o),
(93,632,q),
(104,703,l),
(104,703,o),
(104,703,o),
(104,703,q),
(673,703,l),
(673,703,o),
(673,703,o),
(673,703,q),
(661,632,l),
(661,632,o),
(661,632,o),
(661,632,q)
);
}
);
width = 714;
}
);
unicode = 45;
},
{
glyphname = period;
layers = (
{
layerId = "872C3892-1949-4E27-92D3-5A16DDABBAC0";
shapes = (
{
closed = 1;
nodes = (
(183,-19,o),
(39,125,o),
(39,229,qs),
(39,332,o),
(183,475,o),
(287,475,qs),
(393,475,o),
(535,332,o),
(535,229,qs),
(535,125,o),
(393,-19,o),
(287,-19,qs)
);
}
);
width = 681;
},
{
layerId = "E858B941-4367-47FB-AD3D-B27AC74F93CC";
shapes = (
{
closed = 1;
nodes = (
(170,-19,o),
(30,122,o),
(30,224,qs),
(30,325,o),
(170,465,o),
(271,465,qs),
(375,465,o),
(514,325,o),
(514,224,qs),
(514,122,o),
(375,-19,o),
(272,-19,qs)
);
}
);
width = 652;
},
{
layerId = "B75C80CA-8025-4CF8-A3E7-75A43A0995A3";
shapes = (
{
closed = 1;
nodes = (
(158,-12,o),
(69,77,o),
(69,141,qs),
(69,203,o),
(158,291,o),
(221,291,qs),
(286,291,o),
(374,203,o),
(374,141,qs),
(374,77,o),
(286,-12,o),
(221,-12,qs)
);
}
);
width = 580;
},
{
layerId = "A08665C1-CA57-4E4D-B402-868E03E7A8D5";
shapes = (
{
closed = 1;
nodes = (
(143,-12,o),
(57,74,o),
(57,137,qs),
(57,197,o),
(143,283,o),
(205,283,qs),
(268,283,o),
(354,197,o),
(354,137,qs),
(354,74,o),
(268,-12,o),
(205,-12,qs)
);
}
);
width = 549;
},
{
layerId = "5EFB1F2B-6635-43CF-844A-B3185C929525";
shapes = (
{
closed = 1;
nodes = (
(152,-10,o),
(97,46,o),
(97,87,qs),
(97,126,o),
(152,182,o),
(192,182,qs),
(233,182,o),
(288,126,o),
(288,87,qs),
(288,46,o),
(233,-10,o),
(192,-10,qs)
);
}
);
width = 538;
},
{
layerId = "530719F5-0959-4DA7-9A1D-C7B5EABE4A1F";
shapes = (
{
closed = 1;
nodes = (
(140,-10,o),
(87,45,o),
(87,84,qs),
(87,123,o),
(140,178,o),
(179,178,qs),
(219,178,o),
(273,123,o),
(273,84,qs),
(273,45,o),
(218,-10,o),
(178,-10,qs)
);
}
);
width = 513;
}
);
leftKerningGroup = period;
rightKerningGroup = comma;
unicode = 46;
},
{
glyphname = slash;
layers = (
{
layerId = "872C3892-1949-4E27-92D3-5A16DDABBAC0";
shapes = (
{
closed = 1;
nodes = (
(-84,0,l),
(-84,0,o),
(-84,0,o),
(-84,0,q),
(733,1433,l),
(733,1433,o),
(733,1433,o),
(733,1433,q),
(1106,1433,l),
(1106,1433,o),
(1106,1433,o),
(1106,1433,q),
(290,0,l),
(290,0,o),
(290,0,o),
(290,0,q)
);
}
);
width = 957;
},
{
layerId = "E858B941-4367-47FB-AD3D-B27AC74F93CC";
shapes = (
{
closed = 1;
nodes = (
(-92,0,l),
(-92,0,o),
(-92,0,o),
(-92,0,q),
(678,1433,l),
(678,1433,o),
(678,1433,o),
(678,1433,q),
(1038,1433,l),
(1038,1433,o),
(1038,1433,o),
(1038,1433,q),
(267,0,l),
(267,0,o),
(267,0,o),
(267,0,q)
);
}
);
width = 880;
},
{
layerId = "B75C80CA-8025-4CF8-A3E7-75A43A0995A3";
shapes = (
{
closed = 1;
nodes = (
(-90,0,l),
(-90,0,o),
(-90,0,o),
(-90,0,q),
(703,1432,l),
(703,1432,o),
(703,1432,o),
(703,1432,q),
(889,1432,l),
(889,1432,o),
(889,1432,o),
(889,1432,q),
(97,0,l),
(97,0,o),
(97,0,o),
(97,0,q)
);
}
);
width = 734;
},
{
layerId = "A08665C1-CA57-4E4D-B402-868E03E7A8D5";
shapes = (
{
closed = 1;
nodes = (
(-91,0,l),
(-91,0,o),
(-91,0,o),
(-91,0,q),
(655,1432,l),
(655,1432,o),
(655,1432,o),
(655,1432,q),
(838,1432,l),
(838,1432,o),
(838,1432,o),
(838,1432,q),
(91,0,l),
(91,0,o),
(91,0,o),
(91,0,q)
);
}
);
width = 681;
},
{
layerId = "5EFB1F2B-6635-43CF-844A-B3185C929525";
shapes = (
{
closed = 1;
nodes = (
(-60,0,l),
(-60,0,o),
(-60,0,o),
(-60,0,q),
(731,1432,l),
(731,1432,o),
(731,1432,o),
(731,1432,q),
(804,1432,l),
(804,1432,o),
(804,1432,o),
(804,1432,q),
(14,0,l),
(14,0,o),
(14,0,o),
(14,0,q)
);
}
);
width = 675;
},
{
layerId = "530719F5-0959-4DA7-9A1D-C7B5EABE4A1F";
shapes = (
{
closed = 1;
nodes = (
(-65,0,l),
(-65,0,o),
(-65,0,o),
(-65,0,q),
(678,1432,l),
(678,1432,o),
(678,1432,o),
(678,1432,q),
(750,1432,l),
(750,1432,o),
(750,1432,o),
(750,1432,q),
(6,0,l),
(6,0,o),
(6,0,o),
(6,0,q)
);
}
);
width = 615;
}
);
unicode = 47;
},
{
glyphname = zero;
layers = (
{
anchors = (
{
name = t.uni0335;
position = "{744, 716}";
}
);
layerId = "872C3892-1949-4E27-92D3-5A16DDABBAC0";
shapes = (
{
closed = 1;
nodes = (
(353,-37,o),
(50,392,o),
(111,746,q),
(111,746,l),
(174,1097,o),
(560,1471,o),
(835,1471,qs),
(1134,1471,o),
(1441,1044,o),
(1377,687,q),
(1377,687,l),
(1315,335,o),
(927,-37,o),
(652,-37,qs)
);
},
{
closed = 1;
nodes = (
(784,373,o),
(911,541,o),
(941,714,q),
(941,714,l),
(971,887,o),
(901,1059,o),
(803,1059,qs),
(704,1059,o),
(578,892,o),
(548,719,q),
(548,719,l),
(518,546,o),
(588,373,o),
(686,373,qs)
);
}
);
width = 1425;
},
{
anchors = (
{
name = t.uni0335;
position = "{722, 716}";
}
);
layerId = "E858B941-4367-47FB-AD3D-B27AC74F93CC";
shapes = (
{
closed = 1;
nodes = (
(316,-34,o),
(43,382,o),
(106,746,q),
(106,746,l),
(171,1103,o),
(524,1468,o),
(792,1468,qs),
(1082,1468,o),
(1357,1053,o),
(1292,688,q),
(1292,688,l),
(1228,329,o),
(873,-34,o),
(604,-34,qs)
);
},
{
closed = 1;
nodes = (
(721,364,o),
(826,516,o),
(855,683,qs),
(867,748,ls),
(896,915,o),
(842,1068,o),
(760,1068,qs),
(676,1068,o),
(572,917,o),
(544,749,q),
(531,684,l),
(503,518,o),
(556,364,o),
(638,364,qs)
);
}
);
width = 1335;
},
{
anchors = (
{
name = t.uni0335;
position = "{722, 716}";
}
);
layerId = "B75C80CA-8025-4CF8-A3E7-75A43A0995A3";
shapes = (
{
closed = 1;
nodes = (
(340,-34,o),
(79,390,o),
(138,727,q),
(138,727,l),
(199,1065,o),
(579,1467,o),
(843,1467,qs),
(1109,1467,o),
(1372,1044,o),
(1312,707,q),
(1312,707,l),
(1252,368,o),
(869,-34,o),
(606,-34,qs)
);
},
{
closed = 1;
nodes = (
(806,151,o),
(1062,471,o),
(1106,720,q),
(1106,720,l),
(1150,971,o),
(1008,1281,o),
(827,1281,qs),
(644,1281,o),
(388,963,o),
(345,714,q),
(345,714,l),
(301,463,o),
(442,151,o),
(623,151,qs)
);
}
);
width = 1385;
},
{
anchors = (
{
name = t.uni0335;
position = "{645, 716}";
}
);
layerId = "A08665C1-CA57-4E4D-B402-868E03E7A8D5";
shapes = (
{
closed = 1;
nodes = (
(297,-30,o),
(70,346,o),
(126,670,qs),
(147,789,ls),
(206,1113,o),
(530,1463,o),
(763,1463,qs),
(999,1463,o),
(1227,1087,o),
(1170,764,qs),
(1149,644,ls),
(1091,319,o),
(765,-30,o),
(532,-30,qs)
);
},
{
closed = 1;
nodes = (
(699,148,o),
(907,421,o),
(949,658,qs),
(971,779,ls),
(1013,1018,o),
(899,1284,o),
(749,1284,qs),
(597,1284,o),
(389,1013,o),
(348,775,q),
(326,654,ls),
(284,415,o),
(397,148,o),
(547,148,qs)
);
}
);
width = 1231;
},
{
anchors = (
{
name = t.uni0335;
position = "{642, 716}";
}
);
layerId = "5EFB1F2B-6635-43CF-844A-B3185C929525";
shapes = (
{
closed = 1;
nodes = (
(345,-29,o),
(107,402,o),
(166,739,q),
(166,739,l),
(225,1063,o),
(579,1462,o),
(839,1462,qs),
(1102,1462,o),
(1340,1031,o),
(1280,693,q),
(1280,693,l),
(1223,369,o),
(867,-29,o),
(607,-29,qs)
);
},
{
closed = 1;
nodes = (
(842,32,o),
(1161,408,o),
(1212,700,q),
(1212,700,l),
(1266,1003,o),
(1067,1400,o),
(835,1400,qs),
(604,1400,o),
(287,1025,o),
(236,733,q),
(236,733,l),
(183,428,o),
(380,32,o),
(612,32,qs)
);
}
);
width = 1377;
},
{
anchors = (
{
name = t.uni0335;
position = "{559, 716}";
}
);
layerId = "530719F5-0959-4DA7-9A1D-C7B5EABE4A1F";
shapes = (
{
closed = 1;
nodes = (
(305,-25,o),
(98,348,o),
(155,675,qs),
(176,796,l),
(235,1115,o),
(537,1458,o),
(758,1458,qs),
(982,1458,o),
(1188,1086,o),
(1130,757,qs),
(1109,636,ls),
(1052,317,o),
(748,-25,o),
(526,-25,qs)
);
},
{
closed = 1;
nodes = (
(723,34,o),
(991,359,o),
(1041,644,q),
(1063,763,l),
(1115,1057,o),
(946,1398,o),
(754,1398,qs),
(562,1398,o),
(295,1075,o),
(246,789,q),
(224,670,l),
(173,375,o),
(339,34,o),
(532,34,qs)
);
}
);
width = 1216;
}
);
leftKerningGroup = zero2;
rightKerningGroup = zero;
unicode = 48;
},
{
glyphname = one;
layers = (
{
layerId = "872C3892-1949-4E27-92D3-5A16DDABBAC0";
shapes = (
{
closed = 1;
nodes = (
(324,0,l),
(324,0,o),
(324,0,o),
(324,0,q),
(476,872,l),
(256,732,l),
(256,732,o),
(256,732,o),
(256,732,q),
(82,1034,l),
(82,1034,o),
(82,1034,o),
(82,1034,q),
(714,1432,l),
(714,1432,o),
(714,1432,o),
(714,1432,q),
(1018,1432,l),
(1018,1432,o),
(1018,1432,o),
(1018,1432,q),
(765,0,l),
(765,0,o),
(765,0,o),
(765,0,q)
);
}
);
width = 1034;
},
{
layerId = "E858B941-4367-47FB-AD3D-B27AC74F93CC";
shapes = (
{
closed = 1;
nodes = (
(293,0,l),
(293,0,o),
(293,0,o),
(293,0,q),
(446,879,l),
(247,750,l),
(247,750,o),
(247,750,o),
(247,750,q),
(72,1044,l),
(72,1044,o),
(72,1044,o),
(72,1044,q),
(684,1432,l),
(684,1432,o),
(684,1432,o),
(684,1432,q),
(979,1432,l),
(979,1432,o),
(979,1432,o),
(979,1432,q),
(725,0,l),
(725,0,o),
(725,0,o),
(725,0,q)
);
}
);
width = 977;
},
{
layerId = "B75C80CA-8025-4CF8-A3E7-75A43A0995A3";
shapes = (
{
closed = 1;
nodes = (
(335,0,l),
(335,0,o),
(335,0,o),
(335,0,q),
(538,1154,l),
(215,941,l),
(215,941,o),
(215,941,o),
(215,941,q),
(122,1098,l),
(122,1098,o),
(122,1098,o),
(122,1098,q),
(641,1432,l),
(641,1432,o),
(641,1432,o),
(641,1432,q),
(787,1432,l),
(787,1432,o),
(787,1432,o),
(787,1432,q),
(534,0,l),
(534,0,o),
(534,0,o),
(534,0,q)
);
}
);
width = 833;
},
{
layerId = "A08665C1-CA57-4E4D-B402-868E03E7A8D5";
shapes = (
{
closed = 1;
nodes = (
(297,0,l),
(297,0,o),
(297,0,o),
(297,0,q),
(501,1162,l),
(209,969,l),
(209,969,o),
(209,969,o),
(209,969,q),
(119,1122,l),
(119,1122,o),
(119,1122,o),
(119,1122,q),
(601,1434,l),
(601,1434,o),
(601,1434,o),
(601,1434,q),
(744,1434,l),
(744,1434,o),
(744,1434,o),
(744,1434,q),
(490,0,l),
(490,0,o),
(490,0,o),
(490,0,q)
);
}
);
width = 771;
},
{
layerId = "5EFB1F2B-6635-43CF-844A-B3185C929525";
shapes = (
{
closed = 1;
nodes = (
(370,0,l),
(370,0,o),
(370,0,o),
(370,0,q),
(605,1334,l),
(188,1059,l),
(188,1059,o),
(188,1059,o),
(188,1059,q),
(153,1114,l),
(153,1114,o),
(153,1114,o),
(153,1114,q),
(638,1433,l),
(638,1433,o),
(638,1433,o),
(638,1433,q),
(689,1433,l),
(689,1433,o),
(689,1433,o),
(689,1433,q),
(436,0,l),
(436,0,o),
(436,0,o),
(436,0,q)
);
}
);
width = 745;
},
{
layerId = "530719F5-0959-4DA7-9A1D-C7B5EABE4A1F";
shapes = (
{
closed = 1;
nodes = (
(328,0,l),
(328,0,o),
(328,0,o),
(328,0,q),
(563,1336,l),
(181,1081,l),
(181,1081,o),
(181,1081,o),
(181,1081,q),
(147,1134,l),
(147,1134,o),
(147,1134,o),
(147,1134,q),
(597,1434,l),
(597,1434,o),
(597,1434,o),
(597,1434,q),
(647,1434,l),
(647,1434,o),
(647,1434,o),
(647,1434,q),
(393,0,l),
(393,0,o),
(393,0,o),
(393,0,q)
);
}
);
width = 691;
}
);
rightKerningGroup = H;
unicode = 49;
},
{
glyphname = two;
layers = (
{
layerId = "872C3892-1949-4E27-92D3-5A16DDABBAC0";
shapes = (
{
closed = 1;
nodes = (
(5,0,l),
(5,0,o),
(5,0,o),
(5,0,q),
(67,333,l),
(67,333,o),
(67,333,o),
(67,333,q),
(482,653,ls),
(599,744,o),
(769,889,o),
(781,948,q),
(781,948,l),
(790,1001,o),
(732,1068,o),
(683,1068,qs),
(642,1068,o),
(581,1037,o),
(536,986,o),
(485,905,o),
(485,905,o),
(485,905,q),
(143,1054,l),
(143,1054,o),
(143,1054,o),
(253,1240,o),
(413,1388,o),
(613,1470,o),
(745,1470,qs),
(991,1470,o),
(1263,1159,o),
(1228,960,q),
(1228,960,l),
(1206,838,o),
(1062,665,o),
(931,571,qs),
(684,396,l),
(685,387,l),
(1177,387,l),
(1177,387,o),
(1177,387,o),
(1177,387,q),
(1110,0,l),
(1110,0,o),
(1110,0,o),
(1110,0,q)
);
}
);
width = 1280;
},
{
layerId = "E858B941-4367-47FB-AD3D-B27AC74F93CC";
shapes = (
{
closed = 1;
nodes = (
(-7,0,l),
(-7,0,o),
(-7,0,o),
(-7,0,q),
(52,319,l),
(52,319,o),
(52,319,o),
(52,319,q),
(457,670,ls),
(567,765,o),
(718,914,o),
(730,973,q),
(730,975,l),
(738,1023,o),
(690,1080,o),
(648,1080,qs),
(612,1080,o),
(559,1050,o),
(519,997,o),
(477,920,o),
(477,920,o),
(477,920,q),
(137,1041,l),
(137,1041,o),
(137,1041,o),
(231,1225,o),
(378,1377,o),
(576,1467,o),
(712,1467,qs),
(945,1467,o),
(1202,1178,o),
(1168,981,q),
(1168,981,l),
(1146,861,o),
(1006,682,o),
(883,583,qs),
(641,390,l),
(642,381,l),
(1102,381,l),
(1102,381,o),
(1102,381,o),
(1102,381,q),
(1036,0,l),
(1036,0,o),
(1036,0,o),
(1036,0,q)
);
}
);
width = 1202;
},
{
layerId = "B75C80CA-8025-4CF8-A3E7-75A43A0995A3";
shapes = (
{
closed = 1;
nodes = (
(0,0,l),
(0,0,o),
(0,0,o),
(0,0,q),
(34,183,l),
(34,183,o),
(34,183,o),
(34,183,q),
(601,671,ls),
(719,773,o),
(870,943,o),
(888,1039,q),
(888,1039,l),
(906,1144,o),
(785,1280,o),
(682,1280,qs),
(605,1280,o),
(500,1227,o),
(414,1134,o),
(355,1031,o),
(355,1031,o),
(355,1031,q),
(182,1107,l),
(182,1107,o),
(182,1107,o),
(266,1257,o),
(400,1391,o),
(578,1466,o),
(693,1466,qs),
(890,1466,o),
(1127,1204,o),
(1095,1022,q),
(1095,1022,l),
(1073,900,o),
(934,709,o),
(776,578,qs),
(314,192,l),
(316,186,l),
(979,186,l),
(979,186,o),
(979,186,o),
(979,186,q),
(946,0,l),
(946,0,o),
(946,0,o),
(946,0,q)
);
}
);
width = 1136;
},
{
layerId = "A08665C1-CA57-4E4D-B402-868E03E7A8D5";
shapes = (
{
closed = 1;
nodes = (
(-10,0,l),
(-10,0,o),
(-10,0,o),
(-10,0,q),
(24,182,l),
(24,182,o),
(24,182,o),
(24,182,q),
(533,694,l),
(632,791,o),
(771,960,o),
(788,1051,qs),
(791,1067,ls),
(807,1164,o),
(708,1282,o),
(622,1282,qs),
(556,1282,o),
(464,1228,o),
(391,1136,o),
(341,1029,o),
(341,1029,o),
(341,1029,q),
(169,1091,l),
(169,1091,o),
(169,1091,o),
(240,1243,o),
(358,1381,o),
(523,1462,o),
(634,1462,qs),
(812,1462,o),
(1021,1224,o),
(991,1053,qs),
(988,1037,ls),
(967,919,o),
(839,733,o),
(701,604,q),
(279,187,l),
(281,181,l),
(866,181,l),
(866,181,o),
(866,181,o),
(866,181,q),
(834,0,l),
(834,0,o),
(834,0,o),
(834,0,q)
);
}
);
width = 1010;
},
{
layerId = "5EFB1F2B-6635-43CF-844A-B3185C929525";
shapes = (
{
closed = 1;
nodes = (
(15,0,l),
(15,0,o),
(15,0,o),
(15,0,q),
(29,71,l),
(29,71,o),
(29,71,o),
(29,71,q),
(689,658,ls),
(797,754,o),
(958,944,o),
(980,1063,q),
(980,1063,l),
(1005,1206,o),
(834,1400,o),
(678,1400,qs),
(588,1400,o),
(435,1329,o),
(327,1212,o),
(258,1092,o),
(258,1092,o),
(258,1092,q),
(198,1118,l),
(198,1118,o),
(198,1118,o),
(274,1250,o),
(392,1378,o),
(572,1462,o),
(682,1462,qs),
(871,1462,o),
(1078,1223,o),
(1048,1054,q),
(1048,1054,l),
(1024,921,o),
(867,728,o),
(741,617,qs),
(119,69,l),
(119,65,l),
(917,65,l),
(917,65,o),
(917,65,o),
(917,65,q),
(905,0,l),
(905,0,o),
(905,0,o),
(905,0,q)
);
}
);
width = 1099;
},
{
layerId = "530719F5-0959-4DA7-9A1D-C7B5EABE4A1F";
shapes = (
{
closed = 1;
nodes = (
(0,0,l),
(0,0,o),
(0,0,o),
(0,0,q),
(14,67,l),
(14,67,o),
(14,67,o),
(14,67,q),
(597,655,ls),
(695,754,o),
(843,943,o),
(866,1067,q),
(869,1086,ls),
(892,1221,o),
(747,1397,o),
(612,1397,qs),
(530,1397,o),
(395,1323,o),
(303,1204,o),
(247,1089,o),
(247,1089,o),
(247,1089,q),
(186,1112,l),
(186,1112,o),
(186,1112,o),
(249,1238,o),
(350,1369,o),
(512,1458,o),
(617,1458,qs),
(784,1458,o),
(965,1238,o),
(937,1077,qs),
(934,1059,ls),
(909,921,o),
(761,726,o),
(650,617,q),
(99,67,l),
(99,63,l),
(803,63,l),
(803,63,o),
(803,63,o),
(803,63,q),
(792,0,l),
(792,0,o),
(792,0,o),
(792,0,q)
);
}
);
width = 971;
}
);
unicode = 50;
},
{
glyphname = three;
layers = (
{
layerId = "872C3892-1949-4E27-92D3-5A16DDABBAC0";
shapes = (
{
closed = 1;
nodes = (
(416,-37,o),
(200,50,o),
(68,184,o),
(-12,361,o),
(-12,361,o),
(-12,361,q),
(349,476,l),
(349,476,o),
(349,476,o),
(374,415,o),
(425,356,o),
(500,322,o),
(556,322,qs),
(638,322,o),
(749,390,o),
(759,449,q),
(759,449,l),
(769,505,o),
(697,578,o),
(610,578,qs),
(454,578,l),
(454,578,o),
(454,578,o),
(454,578,q),
(506,874,l),
(506,874,o),
(506,874,o),
(506,874,q),
(641,874,ls),
(710,874,o),
(803,928,o),
(814,989,q),
(814,989,l),
(823,1040,o),
(754,1113,o),
(686,1113,qs),
(642,1113,o),
(572,1088,o),
(511,1039,o),
(465,980,o),
(465,980,o),
(465,980,q),
(159,1143,l),
(159,1143,o),
(159,1143,o),
(275,1293,o),
(433,1408,o),
(615,1471,o),
(742,1471,qs),
(1002,1471,o),
(1279,1208,o),
(1249,1041,q),
(1249,1041,l),
(1230,930,o),
(1078,796,o),
(952,764,q),
(951,756,l),
(1080,722,o),
(1213,526,o),
(1187,384,q),
(1187,384,l),
(1155,195,o),
(831,-37,o),
(552,-37,qs)
);
}
);
width = 1279;
},
{
layerId = "E858B941-4367-47FB-AD3D-B27AC74F93CC";
shapes = (
{
closed = 1;
nodes = (
(366,-34,o),
(163,56,o),
(45,197,o),
(-12,375,o),
(-12,375,o),
(-12,375,q),
(350,476,l),
(350,476,o),
(350,476,o),
(367,412,o),
(406,355,o),
(467,322,o),
(514,322,qs),
(582,322,o),
(673,388,o),
(684,447,q),
(685,454,l),
(695,512,o),
(633,581,o),
(559,581,qs),
(410,581,l),
(410,581,o),
(410,581,o),
(410,581,q),
(462,877,l),
(462,877,o),
(462,877,o),
(462,877,q),
(594,877,ls),
(655,877,o),
(738,933,o),
(749,993,q),
(751,1001,l),
(759,1050,o),
(703,1117,o),
(646,1117,qs),
(610,1117,o),
(551,1093,o),
(501,1044,o),
(463,983,o),
(463,983,o),
(463,983,q),
(150,1118,l),
(150,1118,o),
(150,1118,o),
(247,1267,o),
(389,1393,o),
(576,1468,o),
(708,1468,qs),
(949,1468,o),
(1207,1219,o),
(1176,1050,q),
(1176,1050,l),
(1157,937,o),
(1004,797,o),
(878,764,q),
(877,755,l),
(1004,723,o),
(1131,526,o),
(1105,381,q),
(1105,380,l),
(1073,191,o),
(768,-34,o),
(507,-34,qs)
);
}
);
width = 1192;
},
{
layerId = "B75C80CA-8025-4CF8-A3E7-75A43A0995A3";
shapes = (
{
closed = 1;
nodes = (
(365,-34,o),
(176,58,o),
(62,208,o),
(18,349,o),
(18,349,o),
(18,349,q),
(205,411,l),
(205,411,o),
(205,411,o),
(247,297,o),
(310,211,o),
(417,151,o),
(498,151,qs),
(630,151,o),
(812,284,o),
(832,398,q),
(832,398,l),
(853,517,o),
(718,654,o),
(579,654,qs),
(462,654,l),
(462,654,o),
(462,654,o),
(462,654,q),
(495,838,l),
(495,838,o),
(495,838,o),
(495,838,q),
(590,838,ls),
(707,838,o),
(872,948,o),
(891,1057,q),
(891,1057,l),
(908,1152,o),
(783,1283,o),
(673,1283,qs),
(599,1283,o),
(499,1237,o),
(418,1160,o),
(364,1076,o),
(364,1076,o),
(364,1076,q),
(187,1152,l),
(187,1152,o),
(187,1152,o),
(272,1284,o),
(403,1401,o),
(565,1467,o),
(684,1467,qs),
(900,1467,o),
(1124,1219,o),
(1094,1052,q),
(1094,1052,l),
(1073,932,o),
(924,792,o),
(791,759,q),
(791,753,l),
(928,718,o),
(1060,523,o),
(1033,373,q),
(1033,373,l),
(1002,194,o),
(710,-34,o),
(487,-34,qs)
);
}
);
width = 1157;
},
{
layerId = "A08665C1-CA57-4E4D-B402-868E03E7A8D5";
shapes = (
{
closed = 1;
nodes = (
(312,-30,o),
(141,63,o),
(47,212,o),
(17,355,o),
(17,355,o),
(17,355,q),
(201,407,l),
(201,407,o),
(201,407,o),
(228,298,o),
(276,209,o),
(367,148,o),
(438,148,qs),
(548,148,o),
(701,267,o),
(721,379,qs),
(728,422,ls),
(748,536,o),
(637,657,o),
(523,657,qs),
(408,657,l),
(408,657,o),
(408,657,o),
(408,657,q),
(440,837,l),
(440,837,o),
(440,837,o),
(440,837,q),
(535,837,ls),
(635,837,o),
(771,939,o),
(790,1046,qs),
(796,1080,ls),
(812,1172,o),
(710,1286,o),
(618,1286,qs),
(555,1286,o),
(469,1242,o),
(402,1166,o),
(356,1078,o),
(356,1078,o),
(356,1078,q),
(180,1141,l),
(180,1141,o),
(180,1141,o),
(252,1275,o),
(366,1394,o),
(517,1463,o),
(629,1463,qs),
(821,1463,o),
(1022,1238,o),
(992,1073,qs),
(987,1042,ls),
(966,922,o),
(828,790,o),
(706,760,q),
(706,753,l),
(831,723,o),
(949,541,o),
(924,398,qs),
(917,358,ls),
(886,180,o),
(628,-30,o),
(426,-30,qs)
);
}
);
width = 1039;
},
{
layerId = "5EFB1F2B-6635-43CF-844A-B3185C929525";
shapes = (
{
closed = 1;
nodes = (
(348,-29,o),
(175,64,o),
(89,217,o),
(58,346,o),
(58,346,o),
(58,346,q),
(121,362,l),
(121,362,o),
(121,362,o),
(151,244,o),
(224,112,o),
(371,32,o),
(488,32,qs),
(657,32,o),
(903,215,o),
(931,375,q),
(931,375,l),
(959,528,o),
(793,720,o),
(608,720,qs),
(504,720,l),
(504,720,o),
(504,720,o),
(504,720,q),
(516,786,l),
(516,786,o),
(516,786,o),
(516,786,q),
(615,786,ls),
(762,786,o),
(970,940,o),
(995,1084,q),
(995,1084,l),
(1020,1220,o),
(852,1400,o),
(700,1400,qs),
(604,1400,o),
(459,1337,o),
(355,1227,o),
(294,1128,o),
(294,1128,o),
(294,1128,q),
(234,1154,l),
(234,1154,o),
(234,1154,o),
(303,1266,o),
(423,1388,o),
(593,1462,o),
(707,1462,qs),
(885,1462,o),
(1093,1245,o),
(1064,1079,q),
(1064,1079,l),
(1041,950,o),
(863,779,o),
(724,757,q),
(725,753,l),
(874,734,o),
(1029,530,o),
(1001,373,q),
(1001,373,l),
(969,188,o),
(687,-29,o),
(482,-29,qs)
);
}
);
width = 1157;
},
{
layerId = "530719F5-0959-4DA7-9A1D-C7B5EABE4A1F";
shapes = (
{
closed = 1;
nodes = (
(298,-25,o),
(143,68,o),
(73,218,o),
(52,349,o),
(52,349,o),
(52,349,q),
(114,365,l),
(114,365,o),
(114,365,o),
(135,244,o),
(193,113,o),
(321,34,o),
(425,34,qs),
(575,34,o),
(787,210,o),
(814,364,qs),
(820,398,ls),
(847,546,o),
(701,721,o),
(543,721,qs),
(440,721,l),
(440,721,o),
(440,721,o),
(440,721,q),
(451,784,l),
(451,784,o),
(451,784,o),
(451,784,q),
(549,784,ls),
(678,784,o),
(862,934,o),
(887,1073,q),
(891,1100,l),
(915,1231,o),
(771,1397,o),
(638,1397,qs),
(552,1397,o),
(424,1335,o),
(335,1225,o),
(283,1121,o),
(283,1121,o),
(283,1121,q),
(222,1145,l),
(222,1145,o),
(222,1145,o),
(282,1261,o),
(386,1384,o),
(539,1458,o),
(645,1458,qs),
(806,1458,o),
(987,1253,o),
(959,1095,qs),
(954,1068,ls),
(931,938,o),
(770,779,o),
(649,757,q),
(650,752,l),
(778,734,o),
(915,544,o),
(889,396,qs),
(883,360,ls),
(851,180,o),
(604,-25,o),
(419,-25,qs)
);
}
);
width = 1036;
}
);
unicode = 51;
},
{
glyphname = four;
layers = (
{
layerId = "872C3892-1949-4E27-92D3-5A16DDABBAC0";
shapes = (
{
closed = 1;
nodes = (
(584,0,l),
(584,0,o),
(584,0,o),
(584,0,q),
(661,442,l),
(717,501,l),
(836,1177,l),
(935,981,l),
(793,981,l),
(434,583,l),
(867,583,l),
(968,607,l),
(1297,607,l),
(1297,607,o),
(1297,607,o),
(1297,607,q),
(1234,250,l),
(1234,250,o),
(1234,250,o),
(1234,250,q),
(-3,250,l),
(-3,250,o),
(-3,250,o),
(-3,250,q),
(58,600,l),
(58,600,o),
(58,600,o),
(58,600,q),
(816,1432,l),
(816,1432,o),
(816,1432,o),
(816,1432,q),
(1273,1432,l),
(1273,1432,o),
(1273,1432,o),
(1273,1432,q),
(1020,0,l),
(1020,0,o),
(1020,0,o),
(1020,0,q)
);
}
);
width = 1328;
},
{
layerId = "E858B941-4367-47FB-AD3D-B27AC74F93CC";
shapes = (
{
closed = 1;
nodes = (
(525,0,l),
(525,0,o),
(525,0,o),
(525,0,q),
(602,442,l),
(661,496,l),
(781,1178,l),
(879,981,l),
(738,981,l),
(402,580,l),
(806,580,l),
(903,608,l),
(1220,608,l),
(1220,608,o),
(1220,608,o),
(1220,608,q),
(1157,252,l),
(1157,252,o),
(1157,252,o),
(1157,252,q),
(-11,252,l),
(-11,252,o),
(-11,252,o),
(-11,252,q),
(49,596,l),
(49,596,o),
(49,596,o),
(49,596,q),
(761,1432,l),
(761,1432,o),
(761,1432,o),
(761,1432,q),
(1204,1432,l),
(1204,1432,o),
(1204,1432,o),
(1204,1432,q),
(951,0,l),
(951,0,o),
(951,0,o),
(951,0,q)
);
}
);
width = 1243;
},
{
layerId = "B75C80CA-8025-4CF8-A3E7-75A43A0995A3";
shapes = (
{
closed = 1;
nodes = (
(655,0,l),
(655,0,o),
(655,0,o),
(655,0,q),
(728,414,l),
(742,450,l),
(892,1301,l),
(945,1167,l),
(863,1167,l),
(267,511,l),
(820,511,l),
(867,516,l),
(1146,516,l),
(1146,516,o),
(1146,516,o),
(1146,516,q),
(1116,337,l),
(1116,337,o),
(1116,337,o),
(1116,337,q),
(21,337,l),
(21,337,o),
(21,337,o),
(21,337,q),
(52,510,l),
(52,510,o),
(52,510,o),
(52,510,q),
(891,1432,l),
(891,1432,o),
(891,1432,o),
(891,1432,q),
(1101,1432,l),
(1101,1432,o),
(1101,1432,o),
(1101,1432,q),
(848,0,l),
(848,0,o),
(848,0,o),
(848,0,q)
);
}
);
width = 1202;
},
{
layerId = "A08665C1-CA57-4E4D-B402-868E03E7A8D5";
shapes = (
{
closed = 1;
nodes = (
(559,0,l),
(559,0,o),
(559,0,o),
(559,0,q),
(632,414,l),
(646,445,l),
(796,1298,l),
(843,1157,l),
(766,1157,l),
(247,511,l),
(726,511,l),
(768,517,l),
(1027,517,l),
(1027,517,o),
(1027,517,o),
(1027,517,q),
(998,343,l),
(998,343,o),
(998,343,o),
(998,343,q),
(16,343,l),
(16,343,o),
(16,343,o),
(16,343,q),
(45,506,l),
(45,506,o),
(45,506,o),
(45,506,q),
(788,1432,l),
(788,1432,o),
(788,1432,o),
(788,1432,q),
(1001,1432,l),
(1001,1432,o),
(1001,1432,o),
(1001,1432,q),
(748,0,l),
(748,0,o),
(748,0,o),
(748,0,q)
);
}
);
width = 1078;
},
{
layerId = "5EFB1F2B-6635-43CF-844A-B3185C929525";
shapes = (
{
closed = 1;
nodes = (
(682,0,l),
(682,0,o),
(682,0,o),
(682,0,q),
(754,413,l),
(756,423,l),
(921,1360,l),
(941,1331,l),
(912,1331,l),
(141,459,l),
(786,459,l),
(798,459,l),
(1082,459,l),
(1082,459,o),
(1082,459,o),
(1082,459,q),
(1070,394,l),
(1070,394,o),
(1070,394,o),
(1070,394,q),
(53,394,l),
(53,394,o),
(53,394,o),
(53,394,q),
(65,463,l),
(65,463,o),
(65,463,o),
(65,463,q),
(928,1436,l),
(928,1436,o),
(928,1436,o),
(928,1436,q),
(1003,1436,l),
(1003,1436,o),
(1003,1436,o),
(1003,1436,q),
(749,0,l),
(749,0,o),
(749,0,o),
(749,0,q)
);
}
);
width = 1128;
},
{
layerId = "530719F5-0959-4DA7-9A1D-C7B5EABE4A1F";
shapes = (
{
closed = 1;
nodes = (
(594,0,l),
(594,0,o),
(594,0,o),
(594,0,q),
(667,416,l),
(668,421,l),
(835,1370,l),
(855,1326,l),
(824,1326,l),
(131,459,l),
(699,459,l),
(707,459,l),
(963,459,l),
(963,459,o),
(963,459,o),
(963,459,q),
(952,396,l),
(952,396,o),
(952,396,o),
(952,396,q),
(47,396,l),
(47,396,o),
(47,396,o),
(47,396,q),
(59,464,l),
(59,464,o),
(59,464,o),
(59,464,q),
(837,1435,l),
(837,1435,o),
(837,1435,o),
(837,1435,q),
(914,1435,l),
(914,1435,o),
(914,1435,o),
(914,1435,q),
(661,0,l),
(661,0,o),
(661,0,o),
(661,0,q)
);
}
);
width = 1011;
}
);
unicode = 52;
},
{
glyphname = five;
layers = (
{
layerId = "872C3892-1949-4E27-92D3-5A16DDABBAC0";
shapes = (
{
closed = 1;
nodes = (
(389,-37,o),
(183,57,o),
(54,210,o),
(-3,352,o),
(-3,352,o),
(-3,352,q),
(382,473,l),
(382,473,o),
(382,473,o),
(401,422,o),
(447,371,o),
(507,343,o),
(552,343,qs),
(623,343,o),
(715,417,o),
(727,482,q),
(727,482,l),
(736,547,o),
(670,623,o),
(609,623,qs),
(577,623,o),
(518,598,o),
(470,559,q),
(470,559,o),
(470,559,o),
(470,559,q),
(132,706,l),
(132,706,o),
(132,706,o),
(132,706,q),
(351,1432,l),
(351,1432,o),
(351,1432,o),
(351,1432,q),
(1248,1432,l),
(1248,1432,o),
(1248,1432,o),
(1248,1432,q),
(1183,1057,l),
(1183,1057,o),
(1183,1057,o),
(1183,1057,q),
(590,1057,l),
(534,871,l),
(543,866,l),
(595,902,o),
(715,939,o),
(788,939,qs),
(986,939,o),
(1194,662,o),
(1163,458,q),
(1163,458,l),
(1127,224,o),
(786,-37,o),
(532,-37,qs)
);
}
);
width = 1239;
},
{
layerId = "E858B941-4367-47FB-AD3D-B27AC74F93CC";
shapes = (
{
closed = 1;
nodes = (
(353,-34,o),
(155,63,o),
(41,222,o),
(-3,364,o),
(-3,364,o),
(-3,364,q),
(376,470,l),
(376,470,o),
(376,470,o),
(388,417,o),
(423,365,o),
(474,337,o),
(511,337,qs),
(572,337,o),
(652,410,o),
(665,475,q),
(667,490,ls),
(676,552,o),
(622,625,o),
(570,625,qs),
(538,625,o),
(486,598,o),
(449,562,q),
(449,562,o),
(449,562,o),
(449,562,q),
(118,700,l),
(118,700,o),
(118,700,o),
(118,700,q),
(326,1432,l),
(326,1432,o),
(326,1432,o),
(326,1432,q),
(1182,1432,l),
(1182,1432,o),
(1182,1432,o),
(1182,1432,q),
(1118,1059,l),
(1118,1059,o),
(1118,1059,o),
(1118,1059,q),
(564,1059,l),
(508,863,l),
(516,859,l),
(565,895,o),
(683,933,o),
(753,933,qs),
(940,933,o),
(1127,658,o),
(1094,450,q),
(1094,450,l),
(1057,219,o),
(738,-34,o),
(496,-34,qs)
);
}
);
width = 1163;
},
{
layerId = "B75C80CA-8025-4CF8-A3E7-75A43A0995A3";
shapes = (
{
closed = 1;
nodes = (
(382,-34,o),
(194,55,o),
(75,215,o),
(35,352,o),
(35,352,o),
(35,352,q),
(226,411,l),
(226,411,o),
(226,411,o),
(272,283,o),
(329,207,o),
(440,151,o),
(516,151,qs),
(643,151,o),
(825,305,o),
(850,441,q),
(850,441,l),
(875,582,o),
(731,757,o),
(606,757,qs),
(536,757,o),
(410,701,o),
(325,618,q),
(325,618,o),
(325,618,o),
(325,618,q),
(142,695,l),
(142,695,o),
(142,695,o),
(142,695,q),
(365,1432,l),
(365,1432,o),
(365,1432,o),
(365,1432,q),
(1141,1432,l),
(1141,1432,o),
(1141,1432,o),
(1141,1432,q),
(1108,1246,l),
(1108,1246,o),
(1108,1246,o),
(1108,1246,q),
(495,1246,l),
(370,832,l),
(376,830,l),
(438,883,o),
(577,938,o),
(659,938,qs),
(849,938,o),
(1088,644,o),
(1049,427,q),
(1049,427,l),
(1011,211,o),
(720,-34,o),
(505,-34,qs)
);
}
);
width = 1154;
},
{
layerId = "A08665C1-CA57-4E4D-B402-868E03E7A8D5";
shapes = (
{
closed = 1;
nodes = (
(333,-30,o),
(161,62,o),
(65,216,o),
(38,356,o),
(38,356,o),
(38,356,q),
(225,407,l),
(225,407,o),
(225,407,o),
(255,284,o),
(298,204,o),
(392,148,o),
(459,148,qs),
(565,148,o),
(718,286,o),
(743,418,q),
(753,476,ls),
(776,609,o),
(662,759,o),
(557,759,qs),
(494,759,o),
(385,702,o),
(314,621,q),
(314,621,o),
(314,621,o),
(314,621,q),
(137,687,l),
(137,687,o),
(137,687,o),
(137,687,q),
(348,1432,l),
(348,1432,o),
(348,1432,o),
(348,1432,q),
(1044,1432,l),
(1044,1432,o),
(1044,1432,o),
(1044,1432,q),
(1012,1251,l),
(1012,1251,o),
(1012,1251,o),
(1012,1251,q),
(475,1251,l),
(357,835,l),
(363,833,l),
(414,881,o),
(538,934,o),
(613,934,qs),
(779,934,o),
(985,672,o),
(948,463,qs),
(938,405,ls),
(901,194,o),
(644,-30,o),
(449,-30,qs)
);
}
);
width = 1042;
},
{
layerId = "5EFB1F2B-6635-43CF-844A-B3185C929525";
shapes = (
{
closed = 1;
nodes = (
(357,-29,o),
(182,63,o),
(92,207,o),
(61,343,o),
(61,343,o),
(61,343,q),
(124,361,l),
(124,361,o),
(124,361,o),
(154,239,o),
(225,114,o),
(375,32,o),
(483,32,qs),
(647,32,o),
(892,246,o),
(926,437,q),
(926,437,l),
(959,627,o),
(789,854,o),
(629,854,qs),
(528,854,o),
(337,758,o),
(242,659,q),
(242,659,o),
(242,659,o),
(242,659,q),
(173,686,l),
(173,686,o),
(173,686,o),
(173,686,q),
(395,1432,l),
(395,1432,o),
(395,1432,o),
(395,1432,q),
(1101,1432,l),
(1101,1432,o),
(1101,1432,o),
(1101,1432,q),
(1089,1367,l),
(1089,1367,o),
(1089,1367,o),
(1089,1367,q),
(442,1367,l),
(255,740,l),
(259,739,l),
(331,820,o),
(525,916,o),
(636,916,qs),
(822,916,o),
(1033,648,o),
(994,429,q),
(994,429,l),
(955,211,o),
(675,-29,o),
(479,-29,qs)
);
}
);
width = 1114;
},
{
layerId = "530719F5-0959-4DA7-9A1D-C7B5EABE4A1F";
shapes = (
{
closed = 1;
nodes = (
(312,-25,o),
(158,63,o),
(83,205,o),
(62,340,o),
(62,340,o),
(62,340,q),
(124,359,l),
(124,359,o),
(124,359,o),
(145,235,o),
(202,113,o),
(332,34,o),
(428,34,qs),
(572,34,o),
(784,228,o),
(818,417,qs),
(827,468,ls),
(859,654,o),
(713,855,o),
(575,855,qs),
(481,855,o),
(311,760,o),
(228,662,q),
(228,662,o),
(228,662,o),
(228,662,q),
(161,686,l),
(161,686,o),
(161,686,o),
(161,686,q),
(372,1432,l),
(372,1432,o),
(372,1432,o),
(372,1432,q),
(1001,1432,l),
(1001,1432,o),
(1001,1432,o),
(1001,1432,q),
(990,1368,l),
(990,1368,o),
(990,1368,o),
(990,1368,q),
(418,1368,l),
(244,751,l),
(248,750,l),
(307,823,o),
(479,915,o),
(581,915,qs),
(747,915,o),
(932,674,o),
(894,460,qs),
(885,407,ls),
(847,194,o),
(602,-25,o),
(423,-25,qs)
);
}
);
width = 1001;
}
);
unicode = 53;
},
{
glyphname = six;
layers = (
{
layerId = "872C3892-1949-4E27-92D3-5A16DDABBAC0";
shapes = (
{
closed = 1;
nodes = (
(316,-35,o),
(17,298,o),
(60,542,q),
(60,542,l),
(87,702,o),
(295,963,o),
(531,1174,q),
(892,1505,l),
(892,1505,o),
(892,1505,o),
(892,1505,q),
(1174,1250,l),
(1174,1250,o),
(1174,1250,o),
(1174,1250,q),
(893,1001,ls),
(846,959,o),
(519,837,o),
(381,525,q),
(116,543,l),
(255,810,o),
(694,983,o),
(877,983,qs),
(1072,983,o),
(1302,700,o),
(1263,483,q),
(1263,483,l),
(1223,253,o),
(855,-35,o),
(588,-35,qs)
);
},
{
closed = 1;
nodes = (
(707,335,o),
(811,427,o),
(825,508,q),
(825,508,l),
(840,592,o),
(764,692,o),
(691,692,qs),
(617,692,o),
(513,603,o),
(498,519,q),
(498,519,l),
(483,435,o),
(560,335,o),
(634,335,qs)
);
}
);
width = 1329;
},
{
layerId = "E858B941-4367-47FB-AD3D-B27AC74F93CC";
shapes = (
{
closed = 1;
nodes = (
(283,-33,o),
(7,291,o),
(50,537,q),
(50,536,l),
(76,693,o),
(261,945,o),
(470,1148,q),
(824,1503,l),
(824,1503,o),
(824,1503,o),
(824,1503,q),
(1108,1258,l),
(1108,1258,o),
(1108,1258,o),
(1108,1258,q),
(837,999,ls),
(789,953,o),
(482,826,o),
(361,516,q),
(110,532,l),
(225,784,o),
(615,965,o),
(810,965,qs),
(1000,965,o),
(1216,689,o),
(1177,472,q),
(1177,472,l),
(1138,244,o),
(797,-33,o),
(544,-33,qs)
);
},
{
closed = 1;
nodes = (
(649,325,o),
(736,410,o),
(750,488,qs),
(752,501,ls),
(766,582,o),
(705,673,o),
(642,673,qs),
(578,673,o),
(491,591,o),
(477,510,q),
(474,496,ls),
(459,416,o),
(522,325,o),
(585,325,qs)
);
}
);
width = 1236;
},
{
layerId = "B75C80CA-8025-4CF8-A3E7-75A43A0995A3";
shapes = (
{
closed = 1;
nodes = (
(289,-34,o),
(41,269,o),
(80,496,q),
(80,496,l),
(104,636,o),
(299,912,o),
(477,1083,q),
(889,1487,l),
(889,1487,o),
(889,1487,o),
(889,1487,q),
(1019,1351,l),
(1019,1351,o),
(1019,1351,o),
(1019,1351,q),
(641,984,l),
(602,949,o),
(307,762,o),
(221,487,q),
(105,496,l),
(221,746,o),
(548,955,o),
(706,955,qs),
(899,955,o),
(1145,670,o),
(1105,447,q),
(1105,447,l),
(1068,234,o),
(752,-34,o),
(530,-34,qs)
);
},
{
closed = 1;
nodes = (
(679,145,o),
(882,319,o),
(907,460,q),
(907,460,l),
(932,603,o),
(786,780,o),
(651,780,qs),
(508,780,o),
(303,609,o),
(278,468,q),
(278,468,l),
(254,326,o),
(406,145,o),
(544,145,qs)
);
}
);
width = 1200;
},
{
layerId = "A08665C1-CA57-4E4D-B402-868E03E7A8D5";
shapes = (
{
closed = 1;
nodes = (
(250,-30,o),
(32,249,o),
(69,465,qs),
(77,509,ls),
(101,650,o),
(268,909,o),
(423,1070,q),
(800,1476,l),
(800,1476,o),
(800,1476,o),
(800,1476,q),
(935,1354,l),
(935,1354,o),
(935,1354,o),
(935,1354,q),
(597,989,l),
(555,946,o),
(294,771,o),
(216,497,q),
(105,503,l),
(204,751,o),
(494,943,o),
(641,943,qs),
(813,943,o),
(1026,681,o),
(988,466,qs),
(980,421,ls),
(944,213,o),
(667,-30,o),
(466,-30,qs)
);
},
{
closed = 1;
nodes = (
(594,143,o),
(762,298,o),
(787,434,q),
(794,479,l),
(818,616,o),
(700,772,o),
(585,772,qs),
(464,772,o),
(295,622,o),
(271,483,qs),
(263,439,ls),
(239,303,o),
(362,143,o),
(479,143,qs)
);
}
);
width = 1075;
},
{
layerId = "5EFB1F2B-6635-43CF-844A-B3185C929525";
shapes = (
{
closed = 1;
nodes = (
(293,-29,o),
(60,269,o),
(97,480,q),
(97,480,l),
(120,616,o),
(283,852,o),
(432,998,qs),
(904,1462,l),
(904,1462,o),
(904,1462,o),
(904,1462,q),
(948,1414,l),
(948,1414,o),
(948,1414,o),
(948,1414,q),
(479,945,l),
(420,891,o),
(188,669,o),
(152,471,q),
(103,475,l),
(171,723,o),
(501,936,o),
(667,936,qs),
(875,936,o),
(1105,656,o),
(1066,440,q),
(1066,440,l),
(1031,237,o),
(730,-29,o),
(513,-29,qs)
);
},
{
closed = 1;
nodes = (
(695,32,o),
(965,258,o),
(998,445,q),
(998,445,l),
(1033,643,o),
(834,873,o),
(658,873,qs),
(468,873,o),
(199,667,o),
(164,472,q),
(164,472,l),
(131,285,o),
(331,32,o),
(519,32,qs)
);
}
);
width = 1184;
},
{
layerId = "530719F5-0959-4DA7-9A1D-C7B5EABE4A1F";
shapes = (
{
closed = 1;
nodes = (
(249,-26,o),
(50,247,o),
(86,449,qs),
(93,492,ls),
(117,631,o),
(263,862,o),
(405,1013,qs),
(821,1458,l),
(821,1458,o),
(821,1458,o),
(821,1458,q),
(866,1414,l),
(866,1414,o),
(866,1414,o),
(866,1414,q),
(451,955,l),
(404,909,o),
(206,710,o),
(175,562,q),
(105,485,l),
(167,725,o),
(447,929,o),
(599,929,qs),
(782,929,o),
(978,670,o),
(941,462,qs),
(933,416,ls),
(899,218,o),
(640,-26,o),
(445,-26,qs)
);
},
{
closed = 1;
nodes = (
(605,34,o),
(834,238,o),
(867,422,q),
(874,467,l),
(908,660,o),
(741,867,o),
(589,867,qs),
(423,867,o),
(194,679,o),
(160,487,qs),
(152,442,ls),
(120,260,o),
(288,34,o),
(451,34,qs)
);
}
);
width = 1048;
}
);
unicode = 54;
},
{
glyphname = seven;
layers = (
{
layerId = "872C3892-1949-4E27-92D3-5A16DDABBAC0";
shapes = (
{
closed = 1;
nodes = (
(60,147,l),
(60,147,o),
(60,147,o),
(60,147,q),
(700,1030,l),
(695,1039,l),
(132,1039,l),
(132,1039,o),
(132,1039,o),
(132,1039,q),
(201,1432,l),
(201,1432,o),
(201,1432,o),
(201,1432,q),
(1274,1432,l),
(1274,1432,o),
(1274,1432,o),
(1274,1432,q),
(1212,1078,o),
(1212,1078,o),
(1194,1052,qs),
(405,-60,l),
(405,-60,o),
(405,-60,o),
(405,-60,q)
);
}
);
width = 1156;
},
{
layerId = "E858B941-4367-47FB-AD3D-B27AC74F93CC";
shapes = (
{
closed = 1;
nodes = (
(38,135,l),
(38,135,o),
(38,135,o),
(38,135,q),
(650,1038,l),
(645,1047,l),
(126,1047,l),
(126,1047,o),
(126,1047,o),
(126,1047,q),
(194,1432,l),
(194,1432,o),
(194,1432,o),
(194,1432,q),
(1213,1432,l),
(1213,1432,o),
(1213,1432,o),
(1213,1432,q),
(1155,1108,o),
(1155,1108,o),
(1142,1087,q),
(390,-57,l),
(390,-57,o),
(390,-57,o),
(390,-57,q)
);
}
);
width = 1086;
},
{
layerId = "B75C80CA-8025-4CF8-A3E7-75A43A0995A3";
shapes = (
{
closed = 1;
nodes = (
(71,70,l),
(71,70,o),
(71,70,o),
(71,70,q),
(906,1240,l),
(903,1246,l),
(176,1246,l),
(176,1246,o),
(176,1246,o),
(176,1246,q),
(209,1432,l),
(209,1432,o),
(209,1432,o),
(209,1432,q),
(1181,1432,l),
(1181,1432,o),
(1181,1432,o),
(1181,1432,q),
(1148,1251,o),
(1148,1251,o),
(1139,1239,qs),
(241,-36,l),
(241,-36,o),
(241,-36,o),
(241,-36,q)
);
}
);
width = 1065;
},
{
layerId = "A08665C1-CA57-4E4D-B402-868E03E7A8D5";
shapes = (
{
closed = 1;
nodes = (
(53,63,l),
(53,63,o),
(53,63,o),
(53,63,q),
(805,1245,l),
(802,1251,l),
(171,1251,l),
(171,1251,o),
(171,1251,o),
(171,1251,q),
(203,1432,l),
(203,1432,o),
(203,1432,o),
(203,1432,q),
(1068,1432,l),
(1068,1432,o),
(1068,1432,o),
(1068,1432,q),
(1038,1267,o),
(1038,1267,o),
(1031,1256,qs),
(221,-31,l),
(221,-31,o),
(221,-31,o),
(221,-31,q)
);
}
);
width = 949;
},
{
layerId = "5EFB1F2B-6635-43CF-844A-B3185C929525";
shapes = (
{
closed = 1;
nodes = (
(106,11,l),
(106,11,o),
(106,11,o),
(106,11,q),
(1050,1363,l),
(1050,1367,l),
(205,1367,l),
(205,1367,o),
(205,1367,o),
(205,1367,q),
(216,1432,l),
(216,1432,o),
(216,1432,o),
(216,1432,q),
(1150,1432,l),
(1150,1432,o),
(1150,1432,o),
(1150,1432,q),
(1140,1374,o),
(1140,1374,o),
(1137,1370,qs),
(167,-24,l),
(167,-24,o),
(167,-24,o),
(167,-24,q)
);
}
);
width = 1045;
},
{
layerId = "530719F5-0959-4DA7-9A1D-C7B5EABE4A1F";
shapes = (
{
closed = 1;
nodes = (
(79,11,l),
(79,11,o),
(79,11,o),
(79,11,q),
(933,1365,l),
(932,1369,l),
(198,1369,l),
(198,1369,o),
(198,1369,o),
(198,1369,q),
(209,1432,l),
(209,1432,o),
(209,1432,o),
(209,1432,q),
(1029,1432,l),
(1029,1432,o),
(1029,1432,o),
(1029,1432,q),
(1019,1379,o),
(1019,1379,o),
(1018,1375,q),
(140,-20,l),
(140,-20,o),
(140,-20,o),
(140,-20,q)
);
}
);
width = 918;
}
);
unicode = 55;
},
{
glyphname = eight;
layers = (
{
layerId = "872C3892-1949-4E27-92D3-5A16DDABBAC0";
shapes = (
{
closed = 1;
nodes = (
(304,-37,o),
(15,234,o),
(49,429,q),
(49,429,l),
(71,546,o),
(237,721,o),
(371,763,q),
(371,772,l),
(281,822,o),
(201,989,o),
(218,1085,q),
(218,1085,l),
(249,1259,o),
(555,1470,o),
(790,1470,qs),
(1044,1470,o),
(1319,1218,o),
(1288,1043,q),
(1288,1043,l),
(1271,945,o),
(1129,805,o),
(1017,767,q),
(1017,757,l),
(1131,713,o),
(1248,514,o),
(1227,391,q),
(1227,391,l),
(1192,193,o),
(858,-37,o),
(589,-37,qs)
);
},
{
closed = 1;
nodes = (
(694,307,o),
(794,385,o),
(805,456,q),
(805,456,l),
(819,527,o),
(742,614,o),
(667,614,qs),
(589,614,o),
(490,535,o),
(478,465,q),
(478,465,l),
(466,393,o),
(542,307,o),
(618,307,qs)
);
},
{
closed = 1;
nodes = (
(791,880,o),
(875,947,o),
(885,1007,q),
(885,1007,l),
(895,1065,o),
(829,1138,o),
(767,1138,qs),
(707,1138,o),
(625,1071,o),
(615,1012,q),
(615,1012,l),
(604,953,o),
(669,880,o),
(731,880,qs)
);
}
);
width = 1319;
},
{
layerId = "E858B941-4367-47FB-AD3D-B27AC74F93CC";
shapes = (
{
closed = 1;
nodes = (
(281,-34,o),
(6,231,o),
(40,428,q),
(40,428,l),
(63,550,o),
(225,723,o),
(358,762,q),
(358,771,l),
(268,818,o),
(186,991,o),
(204,1092,q),
(204,1093,l),
(235,1264,o),
(525,1467,o),
(750,1467,qs),
(993,1467,o),
(1254,1224,o),
(1223,1048,q),
(1223,1048,l),
(1205,944,o),
(1064,803,o),
(949,766,q),
(948,756,l),
(1062,714,o),
(1175,513,o),
(1154,384,q),
(1154,385,l),
(1119,189,o),
(802,-34,o),
(549,-34,qs)
);
},
{
closed = 1;
nodes = (
(644,308,o),
(730,381,o),
(741,452,q),
(744,464,l),
(757,533,o),
(693,614,o),
(629,614,qs),
(562,614,o),
(477,539,o),
(465,471,qs),
(463,458,l),
(450,388,o),
(512,308,o),
(578,308,qs)
);
},
{
closed = 1;
nodes = (
(740,878,o),
(813,941,o),
(823,1000,q),
(824,1010,l),
(834,1068,o),
(780,1137,o),
(726,1137,qs),
(673,1137,o),
(601,1073,o),
(591,1016,q),
(590,1005,l),
(579,946,o),
(633,878,o),
(688,878,qs)
);
}
);
width = 1239;
},
{
layerId = "B75C80CA-8025-4CF8-A3E7-75A43A0995A3";
shapes = (
{
closed = 1;
nodes = (
(292,-34,o),
(46,229,o),
(79,413,q),
(79,413,l),
(103,550,o),
(287,729,o),
(418,766,q),
(418,772,l),
(323,819,o),
(227,987,o),
(247,1102,q),
(247,1102,l),
(276,1265,o),
(535,1466,o),
(736,1466,qs),
(936,1466,o),
(1166,1234,o),
(1137,1066,q),
(1137,1066,l),
(1116,950,o),
(964,802,o),
(857,768,q),
(857,762,l),
(967,724,o),
(1097,526,o),
(1071,379,q),
(1071,379,l),
(1038,194,o),
(737,-34,o),
(516,-34,qs)
);
},
{
closed = 1;
nodes = (
(670,145,o),
(852,288,o),
(872,399,q),
(872,399,l),
(893,515,o),
(756,672,o),
(619,672,qs),
(483,672,o),
(299,527,o),
(279,417,q),
(279,417,l),
(259,301,o),
(397,145,o),
(534,145,qs)
);
},
{
closed = 1;
nodes = (
(767,847,o),
(921,966,o),
(938,1063,q),
(938,1063,l),
(956,1163,o),
(835,1288,o),
(723,1288,qs),
(614,1288,o),
(460,1170,o),
(444,1074,q),
(444,1074,l),
(426,974,o),
(548,847,o),
(659,847,qs)
);
}
);
width = 1197;
},
{
layerId = "A08665C1-CA57-4E4D-B402-868E03E7A8D5";
shapes = (
{
closed = 1;
nodes = (
(258,-30,o),
(39,215,o),
(71,394,qs),
(79,439,ls),
(102,569,o),
(267,735,o),
(386,767,q),
(386,773,l),
(298,820,o),
(214,977,o),
(232,1081,qs),
(238,1115,ls),
(267,1277,o),
(501,1462,o),
(681,1462,qs),
(862,1462,o),
(1070,1244,o),
(1041,1079,qs),
(1035,1045,ls),
(1016,937,o),
(878,800,o),
(778,768,q),
(778,762,l),
(877,727,o),
(992,542,o),
(968,404,qs),
(960,360,ls),
(928,180,o),
(662,-30,o),
(461,-30,qs)
);
},
{
closed = 1;
nodes = (
(593,144,o),
(747,272,o),
(766,382,qs),
(774,425,ls),
(794,536,o),
(681,674,o),
(564,674,qs),
(448,674,o),
(293,543,o),
(274,435,qs),
(267,394,ls),
(247,282,o),
(360,144,o),
(477,144,qs)
);
},
{
closed = 1;
nodes = (
(695,844,o),
(825,951,o),
(842,1046,qs),
(848,1082,ls),
(865,1177,o),
(765,1289,o),
(670,1289,qs),
(576,1289,o),
(445,1181,o),
(429,1088,qs),
(423,1054,ls),
(406,958,o),
(507,844,o),
(602,844,qs)
);
}
);
width = 1085;
},
{
layerId = "5EFB1F2B-6635-43CF-844A-B3185C929525";
shapes = (
{
closed = 1;
nodes = (
(289,-29,o),
(70,223,o),
(102,406,q),
(102,406,l),
(131,565,o),
(357,756,o),
(503,775,q),
(503,779,l),
(394,802,o),
(267,988,o),
(290,1121,q),
(290,1121,l),
(316,1271,o),
(557,1462,o),
(732,1462,qs),
(910,1462,o),
(1109,1246,o),
(1082,1087,q),
(1082,1087,l),
(1058,957,o),
(871,798,o),
(747,776,q),
(748,772,l),
(881,752,o),
(1046,542,o),
(1016,368,q),
(1016,368,l),
(983,188,o),
(706,-29,o),
(496,-29,qs)
);
},
{
closed = 1;
nodes = (
(674,33,o),
(918,214,o),
(946,374,q),
(946,374,l),
(974,535,o),
(800,740,o),
(622,740,qs),
(439,740,o),
(198,556,o),
(172,399,q),
(172,399,l),
(144,238,o),
(328,33,o),
(503,33,qs)
);
},
{
closed = 1;
nodes = (
(779,801,o),
(991,961,o),
(1015,1094,q),
(1015,1094,l),
(1037,1224,o),
(876,1400,o),
(725,1400,qs),
(577,1400,o),
(378,1238,o),
(357,1115,q),
(357,1115,l),
(333,985,o),
(480,801,o),
(631,801,qs)
);
}
);
width = 1165;
},
{
layerId = "530719F5-0959-4DA7-9A1D-C7B5EABE4A1F";
shapes = (
{
closed = 1;
nodes = (
(260,-25,o),
(64,206,o),
(96,383,q),
(102,423,l),
(131,578,o),
(331,757,o),
(466,774,q),
(466,778,l),
(366,802,o),
(255,973,o),
(277,1100,qs),
(283,1132,ls),
(309,1282,o),
(525,1458,o),
(682,1458,qs),
(841,1458,o),
(1017,1257,o),
(990,1102,qs),
(985,1071,ls),
(962,944,o),
(794,794,o),
(682,775,q),
(683,771,l),
(803,752,o),
(949,558,o),
(921,389,qs),
(914,350,ls),
(882,176,o),
(635,-25,o),
(447,-25,qs)
);
},
{
closed = 1;
nodes = (
(604,36,o),
(818,201,o),
(845,358,qs),
(852,396,ls),
(879,552,o),
(725,740,o),
(569,740,qs),
(410,740,o),
(196,570,o),
(171,417,qs),
(165,379,l),
(137,223,o),
(296,36,o),
(453,36,qs)
);
},
{
closed = 1;
nodes = (
(711,801,o),
(896,947,o),
(920,1078,q),
(924,1107,l),
(946,1235,o),
(808,1397,o),
(676,1397,qs),
(546,1397,o),
(370,1248,o),
(348,1124,qs),
(343,1095,ls),
(320,967,o),
(448,801,o),
(580,801,qs)
);
}
);
width = 1063;
}
);
unicode = 56;
},
{
glyphname = nine;
layers = (
{
layerId = "872C3892-1949-4E27-92D3-5A16DDABBAC0";
shapes = (
{
closed = 1;
nodes = (
(1079,1467,o),
(1378,1133,o),
(1335,889,q),
(1335,889,l),
(1307,729,o),
(1099,468,o),
(863,257,q),
(503,-74,l),
(503,-74,o),
(503,-74,o),
(503,-74,q),
(219,180,l),
(219,180,o),
(219,180,o),
(219,180,q),
(501,430,l),
(547,472,o),
(875,594,o),
(1013,905,q),
(1278,888,l),
(1140,622,o),
(700,449,o),
(517,449,qs),
(322,449,o),
(93,732,o),
(131,948,q),
(131,948,l),
(172,1178,o),
(539,1467,o),
(805,1467,qs)
);
},
{
closed = 1;
nodes = (
(687,1096,o),
(583,1004,o),
(570,923,q),
(570,923,l),
(554,839,o),
(629,739,o),
(703,739,qs),
(777,739,o),
(882,829,o),
(896,912,q),
(896,912,l),
(911,995,o),
(834,1096,o),
(761,1096,qs)
);
}
);
width = 1329;
},
{
layerId = "E858B941-4367-47FB-AD3D-B27AC74F93CC";
shapes = (
{
closed = 1;
nodes = (
(1020,1465,o),
(1295,1141,o),
(1252,895,q),
(1252,895,l),
(1225,739,o),
(1041,487,o),
(831,283,q),
(480,-71,l),
(480,-71,o),
(480,-71,o),
(480,-71,q),
(193,172,l),
(193,172,o),
(193,172,o),
(193,172,q),
(464,432,ls),
(512,479,o),
(819,606,o),
(940,914,q),
(1191,900,l),
(1077,649,o),
(686,467,o),
(493,467,qs),
(302,467,o),
(87,743,o),
(124,959,q),
(124,960,l),
(165,1187,o),
(504,1465,o),
(757,1465,qs)
);
},
{
closed = 1;
nodes = (
(653,1107,o),
(566,1022,o),
(553,943,qs),
(551,930,l),
(535,849,o),
(595,758,o),
(659,758,qs),
(724,758,o),
(812,842,o),
(826,922,qs),
(828,935,l),
(843,1014,o),
(780,1107,o),
(717,1107,qs)
);
}
);
width = 1236;
},
{
layerId = "B75C80CA-8025-4CF8-A3E7-75A43A0995A3";
shapes = (
{
closed = 1;
nodes = (
(977,1467,o),
(1225,1163,o),
(1186,936,q),
(1186,936,l),
(1161,796,o),
(967,520,o),
(789,349,q),
(377,-55,l),
(377,-55,o),
(377,-55,o),
(377,-55,q),
(246,81,l),
(246,81,o),
(246,81,o),
(246,81,q),
(625,448,l),
(663,483,o),
(958,670,o),
(1044,945,q),
(1161,936,l),
(1045,687,o),
(718,478,o),
(560,478,qs),
(367,478,o),
(121,763,o),
(160,985,q),
(160,985,l),
(198,1198,o),
(514,1467,o),
(735,1467,qs)
);
},
{
closed = 1;
nodes = (
(587,1287,o),
(384,1113,o),
(359,972,q),
(359,972,l),
(334,829,o),
(479,652,o),
(615,652,qs),
(758,652,o),
(963,824,o),
(987,964,q),
(987,964,l),
(1012,1106,o),
(860,1287,o),
(722,1287,qs)
);
}
);
width = 1200;
},
{
layerId = "A08665C1-CA57-4E4D-B402-868E03E7A8D5";
shapes = (
{
closed = 1;
nodes = (
(891,1463,o),
(1109,1183,o),
(1072,967,qs),
(1064,923,ls),
(1039,782,o),
(874,523,o),
(718,362,q),
(342,-44,l),
(342,-44,o),
(342,-44,o),
(342,-44,q),
(206,78,l),
(206,78,o),
(206,78,o),
(206,78,q),
(544,443,l),
(585,486,o),
(846,661,o),
(924,935,q),
(1036,929,l),
(937,682,o),
(647,490,o),
(501,490,qs),
(329,490,o),
(115,752,o),
(152,966,qs),
(160,1011,ls),
(197,1219,o),
(474,1463,o),
(675,1463,qs)
);
},
{
closed = 1;
nodes = (
(547,1289,o),
(379,1134,o),
(355,998,qs),
(347,953,ls),
(323,816,o),
(440,660,o),
(556,660,qs),
(677,660,o),
(846,811,o),
(870,949,qs),
(877,993,l),
(902,1129,o),
(779,1289,o),
(662,1289,qs)
);
}
);
width = 1075;
},
{
layerId = "5EFB1F2B-6635-43CF-844A-B3185C929525";
shapes = (
{
closed = 1;
nodes = (
(960,1462,o),
(1193,1163,o),
(1157,953,q),
(1157,953,l),
(1133,816,o),
(971,580,o),
(822,434,qs),
(349,-30,l),
(349,-30,o),
(349,-30,o),
(349,-30,q),
(304,18,l),
(304,18,o),
(304,18,o),
(304,18,q),
(775,487,l),
(833,541,o),
(1064,763,o),
(1101,961,q),
(1151,957,l),
(1083,710,o),
(753,498,o),
(587,498,qs),
(378,498,o),
(149,777,o),
(187,992,q),
(187,992,l),
(222,1195,o),
(524,1462,o),
(740,1462,qs)
);
},
{
closed = 1;
nodes = (
(558,1400,o),
(288,1174,o),
(256,987,q),
(256,987,l),
(221,789,o),
(419,559,o),
(596,559,qs),
(785,559,o),
(1055,766,o),
(1088,960,q),
(1088,960,l),
(1122,1147,o),
(923,1400,o),
(735,1400,qs)
);
}
);
width = 1184;
},
{
layerId = "530719F5-0959-4DA7-9A1D-C7B5EABE4A1F";
shapes = (
{
closed = 1;
nodes = (
(868,1458,o),
(1067,1184,o),
(1032,982,qs),
(1025,939,ls),
(1000,799,o),
(856,568,o),
(713,418,q),
(297,-28,l),
(297,-28,o),
(297,-28,o),
(297,-28,q),
(251,17,l),
(251,17,o),
(251,17,o),
(251,17,q),
(666,475,l),
(713,521,o),
(909,721,o),
(942,869,q),
(1013,946,l),
(950,706,o),
(671,503,o),
(520,503,qs),
(336,503,o),
(139,761,o),
(176,969,qs),
(184,1015,ls),
(218,1213,o),
(478,1458,o),
(673,1458,qs)
);
},
{
closed = 1;
nodes = (
(512,1397,o),
(283,1193,o),
(252,1009,qs),
(244,964,ls),
(210,771,o),
(376,563,o),
(529,563,qs),
(694,563,o),
(924,752,o),
(957,943,q),
(964,988,l),
(997,1171,o),
(830,1397,o),
(667,1397,qs)
);
}
);
width = 1048;
}
);
unicode = 57;
},
{
glyphname = colon;
layers = (
{
layerId = "872C3892-1949-4E27-92D3-5A16DDABBAC0";
shapes = (
{
closed = 1;
nodes = (
(299,630,o),
(159,769,o),
(159,870,qs),
(159,971,o),
(299,1108,o),
(400,1108,qs),
(502,1108,o),
(640,971,o),
(640,870,qs),
(640,769,o),
(502,630,o),
(400,630,qs)
);
},
{
closed = 1;
nodes = (
(184,-19,o),
(44,121,o),
(44,221,qs),
(44,322,o),
(184,460,o),
(285,460,qs),
(388,460,o),
(525,322,o),
(525,221,qs),
(525,121,o),
(388,-19,o),
(285,-19,qs)
);
}
);
width = 681;
},
{
layerId = "E858B941-4367-47FB-AD3D-B27AC74F93CC";
shapes = (
{
closed = 1;
nodes = (
(285,632,o),
(148,768,o),
(148,869,qs),
(148,969,o),
(285,1104,o),
(385,1104,qs),
(486,1104,o),
(622,969,o),
(622,869,qs),
(622,768,o),
(486,632,o),
(385,632,qs)
);
},
{
closed = 1;
nodes = (
(170,-19,o),
(33,119,o),
(33,218,qs),
(33,318,o),
(170,455,o),
(270,455,qs),
(372,455,o),
(507,318,o),
(507,218,qs),
(507,119,o),
(372,-19,o),
(270,-19,qs)
);
}
);
width = 652;
},
{
layerId = "B75C80CA-8025-4CF8-A3E7-75A43A0995A3";
shapes = (
{
closed = 1;
nodes = (
(294,759,o),
(205,847,o),
(205,912,qs),
(205,974,o),
(294,1061,o),
(357,1061,qs),
(422,1061,o),
(510,974,o),
(510,912,qs),
(510,847,o),
(422,759,o),
(357,759,qs)
);
},
{
closed = 1;
nodes = (
(158,-12,o),
(69,77,o),
(69,141,qs),
(69,203,o),
(158,291,o),
(221,291,qs),
(286,291,o),
(374,203,o),
(374,141,qs),
(374,77,o),
(286,-12,o),
(221,-12,qs)
);
}
);
width = 580;
},
{
layerId = "A08665C1-CA57-4E4D-B402-868E03E7A8D5";
shapes = (
{
closed = 1;
nodes = (
(280,767,o),
(194,852,o),
(194,916,qs),
(194,976,o),
(280,1061,o),
(342,1061,qs),
(405,1061,o),
(491,976,o),
(491,916,qs),
(491,852,o),
(405,767,o),
(342,767,qs)
);
},
{
closed = 1;
nodes = (
(143,-12,o),
(57,74,o),
(57,137,qs),
(57,197,o),
(143,283,o),
(205,283,qs),
(268,283,o),
(354,197,o),
(354,137,qs),
(354,74,o),
(268,-12,o),
(205,-12,qs)
);
}
);
width = 549;
},
{
layerId = "5EFB1F2B-6635-43CF-844A-B3185C929525";
shapes = (
{
closed = 1;
nodes = (
(303,849,o),
(248,903,o),
(248,946,qs),
(248,984,o),
(303,1039,o),
(343,1039,qs),
(384,1039,o),
(439,984,o),
(439,946,qs),
(439,903,o),
(384,849,o),
(343,849,qs)
);
},
{
closed = 1;
nodes = (
(152,-10,o),
(97,46,o),
(97,87,qs),
(97,126,o),
(152,182,o),
(192,182,qs),
(233,182,o),
(288,126,o),
(288,87,qs),
(288,46,o),
(233,-10,o),
(192,-10,qs)
);
}
);
width = 538;
},
{
layerId = "530719F5-0959-4DA7-9A1D-C7B5EABE4A1F";
shapes = (
{
closed = 1;
nodes = (
(292,854,o),
(238,906,o),
(238,949,qs),
(238,986,o),
(292,1039,o),
(331,1039,qs),
(371,1039,o),
(425,986,o),
(425,949,qs),
(425,906,o),
(370,854,o),
(330,854,qs)
);
},
{
closed = 1;
nodes = (
(140,-10,o),
(87,45,o),
(87,84,qs),
(87,123,o),
(140,178,o),
(179,178,qs),
(219,178,o),
(273,123,o),
(273,84,qs),
(273,45,o),
(218,-10,o),
(178,-10,qs)
);
}
);
width = 513;
}
);
leftKerningGroup = colon2;
rightKerningGroup = colon;
unicode = 58;
},
{
glyphname = semicolon;
layers = (
{
layerId = "872C3892-1949-4E27-92D3-5A16DDABBAC0";
shapes = (
{
closed = 1;
nodes = (
(294,630,o),
(154,768,o),
(154,869,qs),
(154,971,o),
(294,1108,o),
(395,1108,qs),
(497,1108,o),
(635,970,o),
(635,870,qs),
(635,768,o),
(497,630,o),
(395,630,qs)
);
},
{
closed = 1;
nodes = (
(135,46,l),
(101,68,o),
(43,160,o),
(43,230,qs),
(43,324,o),
(185,456,o),
(282,456,qs),
(383,456,o),
(519,325,o),
(519,230,qs),
(519,161,o),
(470,53,o),
(414,-11,qs),
(141,-322,l),
(141,-322,o),
(141,-322,o),
(-51,-165,q)
);
}
);
width = 681;
},
{
layerId = "E858B941-4367-47FB-AD3D-B27AC74F93CC";
shapes = (
{
closed = 1;
nodes = (
(283,632,o),
(145,767,o),
(145,868,qs),
(145,969,o),
(284,1104,o),
(383,1104,qs),
(484,1104,o),
(620,968,o),
(620,869,qs),
(620,767,o),
(484,632,o),
(383,632,qs)
);
},
{
closed = 1;
nodes = (
(128,44,l),
(92,66,o),
(32,158,o),
(32,227,qs),
(32,321,o),
(173,453,o),
(269,453,qs),
(367,453,o),
(503,321,o),
(503,226,qs),
(503,163,o),
(457,57,o),
(402,-8,qs),
(144,-316,l),
(144,-316,o),
(144,-316,o),
(-48,-166,q)
);
}
);
width = 652;
},
{
layerId = "B75C80CA-8025-4CF8-A3E7-75A43A0995A3";
shapes = (
{
closed = 1;
nodes = (
(303,759,o),
(214,847,o),
(214,911,qs),
(214,974,o),
(303,1061,o),
(366,1061,qs),
(431,1061,o),
(519,973,o),
(519,912,qs),
(519,847,o),
(431,759,o),
(366,759,qs)
);
},
{
closed = 1;
nodes = (
(164,4,l),
(129,18,o),
(80,83,o),
(80,131,qs),
(80,190,o),
(166,273,o),
(226,273,qs),
(287,273,o),
(372,191,o),
(372,133,qs),
(372,91,o),
(339,18,o),
(296,-32,qs),
(102,-258,l),
(102,-258,o),
(102,-258,o),
(4,-178,q)
);
}
);
width = 580;
},
{
layerId = "A08665C1-CA57-4E4D-B402-868E03E7A8D5";
shapes = (
{
closed = 1;
nodes = (
(286,767,o),
(199,852,o),
(199,915,qs),
(199,976,o),
(286,1061,o),
(348,1061,qs),
(411,1061,o),
(497,975,o),
(497,916,qs),
(497,852,o),
(411,767,o),
(348,767,qs)
);
},
{
closed = 1;
nodes = (
(149,6,l),
(114,19,o),
(66,83,o),
(66,131,qs),
(66,189,o),
(150,270,o),
(209,270,qs),
(269,270,o),
(352,189,o),
(352,131,qs),
(352,92,o),
(321,22,o),
(280,-28,qs),
(92,-253,l),
(92,-253,o),
(92,-253,o),
(-5,-177,q)
);
}
);
width = 549;
},
{
layerId = "5EFB1F2B-6635-43CF-844A-B3185C929525";
shapes = (
{
closed = 1;
nodes = (
(325,849,o),
(270,903,o),
(270,945,qs),
(270,984,o),
(325,1039,o),
(365,1039,qs),
(406,1039,o),
(461,983,o),
(461,946,qs),
(461,903,o),
(406,849,o),
(365,849,qs)
);
},
{
closed = 1;
nodes = (
(168,-5,l),
(136,-1,o),
(95,45,o),
(95,81,qs),
(95,121,o),
(150,176,o),
(190,176,qs),
(231,176,o),
(286,119,o),
(286,79,qs),
(286,56,o),
(268,7,o),
(240,-27,qs),
(62,-242,l),
(62,-242,o),
(62,-242,o),
(8,-198,q)
);
}
);
width = 538;
},
{
layerId = "530719F5-0959-4DA7-9A1D-C7B5EABE4A1F";
shapes = (
{
closed = 1;
nodes = (
(311,854,o),
(256,906,o),
(256,948,qs),
(256,985,o),
(310,1039,o),
(350,1039,qs),
(390,1039,o),
(444,985,o),
(444,949,qs),
(444,906,o),
(389,854,o),
(350,854,qs)
);
},
{
closed = 1;
nodes = (
(155,-3,l),
(125,1,o),
(85,46,o),
(85,82,qs),
(85,121,o),
(139,175,o),
(178,175,qs),
(218,175,o),
(271,119,o),
(271,80,qs),
(271,58,o),
(253,11,o),
(226,-23,qs),
(57,-233,l),
(57,-233,o),
(57,-233,o),
(4,-190,q)
);
}
);
width = 513;
}
);
leftKerningGroup = colon2;
rightKerningGroup = colon;
unicode = 59;
},
{
glyphname = less;
layers = (
{
layerId = "872C3892-1949-4E27-92D3-5A16DDABBAC0";
shapes = (
{
closed = 1;
nodes = (
(121,463,l),
(121,463,o),
(121,463,o),
(121,463,q),
(121,834,l),
(121,834,o),
(121,834,o),
(121,834,q),
(1122,1209,l),
(1122,1209,o),
(1122,1209,o),
(1122,1209,q),
(1122,835,l),
(1122,835,o),
(1122,835,o),
(1122,835,q),
(543,653,l),
(543,645,l),
(1122,463,l),
(1122,464,o),
(1122,463,o),
(1122,463,q),
(1122,90,l),
(1122,90,o),
(1122,90,o),
(1122,90,q)
);
}
);
width = 1276;
},
{
layerId = "E858B941-4367-47FB-AD3D-B27AC74F93CC";
shapes = (
{
closed = 1;
nodes = (
(121,464,l),
(121,464,o),
(121,464,o),
(121,464,q),
(121,832,l),
(121,832,o),
(121,832,o),
(121,832,q),
(1078,1190,l),
(1078,1190,o),
(1078,1190,o),
(1078,1190,q),
(1078,823,l),
(1078,823,o),
(1078,823,o),
(1078,823,q),
(529,653,l),
(529,645,l),
(1079,475,l),
(1079,476,o),
(1079,475,o),
(1079,475,q),
(1079,109,l),
(1079,109,o),
(1079,109,o),
(1079,109,q)
);
}
);
width = 1228;
},
{
layerId = "B75C80CA-8025-4CF8-A3E7-75A43A0995A3";
shapes = (
{
closed = 1;
nodes = (
(136,551,l),
(136,551,o),
(136,551,o),
(136,551,q),
(136,738,l),
(136,738,o),
(136,738,o),
(136,738,q),
(1035,1123,l),
(1035,1123,o),
(1035,1123,o),
(1035,1123,q),
(1035,936,l),
(1035,936,o),
(1035,936,o),
(1035,936,q),
(326,648,l),
(326,642,l),
(1035,356,l),
(1035,356,o),
(1035,356,o),
(1035,356,q),
(1035,168,l),
(1035,168,o),
(1035,168,o),
(1035,168,q)
);
}
);
width = 1194;
},
{
layerId = "A08665C1-CA57-4E4D-B402-868E03E7A8D5";
shapes = (
{
closed = 1;
nodes = (
(131,550,l),
(131,550,o),
(131,550,o),
(131,550,q),
(131,740,l),
(131,740,o),
(131,740,o),
(131,740,q),
(964,1099,l),
(964,1099,o),
(964,1099,o),
(964,1099,q),
(964,915,l),
(964,915,o),
(964,915,o),
(964,915,q),
(312,648,l),
(312,642,l),
(965,375,l),
(965,375,o),
(965,375,o),
(965,375,q),
(965,192,l),
(965,192,o),
(965,192,o),
(965,192,q)
);
}
);
width = 1115;
},
{
layerId = "5EFB1F2B-6635-43CF-844A-B3185C929525";
shapes = (
{
closed = 1;
nodes = (
(165,596,l),
(165,596,o),
(165,596,o),
(165,596,q),
(165,684,l),
(165,684,o),
(165,684,o),
(165,684,q),
(1005,1040,l),
(1005,1040,o),
(1005,1040,o),
(1005,1040,q),
(1005,965,l),
(1005,965,o),
(1005,965,o),
(1005,965,q),
(229,643,l),
(229,640,l),
(1005,315,l),
(1005,315,o),
(1005,315,o),
(1005,315,q),
(1005,241,l),
(1005,241,o),
(1005,241,o),
(1005,241,q)
);
}
);
width = 1170;
},
{
layerId = "530719F5-0959-4DA7-9A1D-C7B5EABE4A1F";
shapes = (
{
closed = 1;
nodes = (
(155,597,l),
(155,597,o),
(155,597,o),
(155,597,q),
(155,683,l),
(155,683,o),
(155,683,o),
(155,683,q),
(941,1020,l),
(941,1020,o),
(941,1020,o),
(941,1020,q),
(941,945,l),
(941,945,o),
(941,945,o),
(941,945,q),
(218,643,l),
(218,640,l),
(942,335,l),
(942,335,o),
(942,335,o),
(942,335,q),
(942,261,l),
(942,261,o),
(942,261,o),
(942,261,q)
);
}
);
width = 1102;
}
);
leftKerningGroup = less2;
rightKerningGroup = less;
unicode = 60;
},
{
glyphname = greater;
layers = (
{
layerId = "872C3892-1949-4E27-92D3-5A16DDABBAC0";
shapes = (
{
closed = 1;
nodes = (
(1195,834,l),
(1195,834,o),
(1195,834,o),
(1195,834,q),
(1195,464,l),
(1195,464,o),
(1195,464,o),
(1195,464,q),
(194,90,l),
(194,90,o),
(194,90,o),
(194,90,q),
(194,463,l),
(194,463,o),
(194,463,o),
(194,463,q),
(773,644,l),
(773,654,l),
(194,835,l),
(194,835,o),
(194,835,o),
(194,835,q),
(194,1209,l),
(194,1209,o),
(194,1209,o),
(194,1209,q)
);
}
);
width = 1276;
},
{
layerId = "E858B941-4367-47FB-AD3D-B27AC74F93CC";
shapes = (
{
closed = 1;
nodes = (
(1146,833,l),
(1146,833,o),
(1146,833,o),
(1146,833,q),
(1146,466,l),
(1146,466,o),
(1146,466,o),
(1146,466,q),
(190,109,l),
(190,109,o),
(190,109,o),
(190,109,q),
(190,476,l),
(190,476,o),
(190,476,o),
(190,476,q),
(739,644,l),
(739,654,l),
(190,824,l),
(190,824,o),
(190,824,o),
(190,824,q),
(190,1190,l),
(190,1190,o),
(190,1190,o),
(190,1190,q)
);
}
);
width = 1228;
},
{
layerId = "B75C80CA-8025-4CF8-A3E7-75A43A0995A3";
shapes = (
{
closed = 1;
nodes = (
(1098,739,l),
(1098,739,o),
(1098,739,o),
(1098,739,q),
(1098,552,l),
(1098,552,o),
(1098,552,o),
(1098,552,q),
(199,168,l),
(199,168,o),
(199,168,o),
(199,168,q),
(199,354,l),
(199,354,o),
(199,354,o),
(199,354,q),
(908,642,l),
(908,649,l),
(199,935,l),
(199,935,o),
(199,935,o),
(199,935,q),
(199,1123,l),
(199,1123,o),
(199,1123,o),
(199,1123,q)
);
}
);
width = 1194;
},
{
layerId = "A08665C1-CA57-4E4D-B402-868E03E7A8D5";
shapes = (
{
closed = 1;
nodes = (
(1023,740,l),
(1023,740,o),
(1023,740,o),
(1023,740,q),
(1023,550,l),
(1023,550,o),
(1023,550,o),
(1023,550,q),
(190,192,l),
(190,192,o),
(190,192,o),
(190,192,q),
(190,375,l),
(190,375,o),
(190,375,o),
(190,375,q),
(842,642,l),
(842,649,l),
(190,916,l),
(190,916,o),
(190,916,o),
(190,916,q),
(190,1099,l),
(190,1099,o),
(190,1099,o),
(190,1099,q)
);
}
);
width = 1115;
},
{
layerId = "5EFB1F2B-6635-43CF-844A-B3185C929525";
shapes = (
{
closed = 1;
nodes = (
(1046,684,l),
(1046,684,o),
(1046,684,o),
(1046,684,q),
(1046,596,l),
(1046,596,o),
(1046,596,o),
(1046,596,q),
(207,241,l),
(207,241,o),
(207,241,o),
(207,241,q),
(207,315,l),
(207,315,o),
(207,315,o),
(207,315,q),
(982,637,l),
(982,641,l),
(207,966,l),
(207,966,o),
(207,966,o),
(207,966,q),
(207,1040,l),
(207,1040,o),
(207,1040,o),
(207,1040,q)
);
}
);
width = 1169;
},
{
layerId = "530719F5-0959-4DA7-9A1D-C7B5EABE4A1F";
shapes = (
{
closed = 1;
nodes = (
(987,683,l),
(987,683,o),
(987,683,o),
(987,683,q),
(987,597,l),
(987,597,o),
(987,597,o),
(987,597,q),
(202,261,l),
(202,261,o),
(202,261,o),
(202,261,q),
(202,335,l),
(202,335,o),
(202,335,o),
(202,335,q),
(925,638,l),
(925,642,l),
(202,946,l),
(202,946,o),
(202,946,o),
(202,946,q),
(202,1020,l),
(202,1020,o),
(202,1020,o),
(202,1020,q)
);
}
);
width = 1101;
}
);
leftKerningGroup = greater2;
rightKerningGroup = greater;
unicode = 62;
},
{
glyphname = question;
layers = (
{
layerId = "872C3892-1949-4E27-92D3-5A16DDABBAC0";
shapes = (
{
closed = 1;
nodes = (
(367,506,l),
(367,506,o),
(367,506,o),
(367,506,q),
(382,592,ls),
(398,681,o),
(496,808,o),
(604,865,q),
(697,916,o),
(805,986,o),
(812,1023,q),
(812,1023,l),
(820,1067,o),
(750,1119,o),
(688,1119,qs),
(637,1119,o),
(560,1088,o),
(492,1031,o),
(448,982,o),
(448,982,o),
(448,982,q),
(118,1127,l),
(118,1127,o),
(118,1127,o),
(213,1255,o),
(369,1385,o),
(594,1470,o),
(749,1470,qs),
(1005,1470,o),
(1292,1223,o),
(1259,1033,q),
(1259,1033,l),
(1241,924,o),
(1099,782,o),
(970,718,qs),
(888,678,o),
(816,608,o),
(808,564,qs),
(797,506,l),
(797,506,o),
(797,506,o),
(797,506,q)
);
},
{
closed = 1;
nodes = (
(433,-25,o),
(297,106,o),
(297,200,qs),
(297,293,o),
(433,422,o),
(531,422,qs),
(631,422,o),
(767,293,o),
(767,200,qs),
(767,106,o),
(632,-25,o),
(532,-25,qs)
);
}
);
width = 1228;
},
{
layerId = "E858B941-4367-47FB-AD3D-B27AC74F93CC";
shapes = (
{
closed = 1;
nodes = (
(332,506,l),
(332,506,o),
(332,506,o),
(332,506,q),
(347,596,l),
(364,685,o),
(460,809,o),
(560,870,qs),
(646,922,o),
(747,994,o),
(755,1033,q),
(755,1033,l),
(763,1074,o),
(703,1121,o),
(650,1121,qs),
(606,1121,o),
(539,1092,o),
(481,1036,o),
(443,984,o),
(443,984,o),
(443,984,q),
(113,1116,l),
(113,1116,o),
(113,1116,o),
(197,1242,o),
(342,1377,o),
(560,1467,o),
(711,1467,qs),
(954,1467,o),
(1225,1228,o),
(1193,1041,q),
(1193,1042,l),
(1175,936,o),
(1043,792,o),
(917,721,q),
(841,681,o),
(770,611,o),
(762,563,q),
(751,506,l),
(751,506,o),
(751,506,o),
(751,506,q)
);
},
{
closed = 1;
nodes = (
(396,-24,o),
(263,106,o),
(263,199,qs),
(263,292,o),
(396,421,o),
(493,421,qs),
(591,421,o),
(725,292,o),
(725,199,qs),
(725,106,o),
(593,-24,o),
(494,-24,qs)
);
}
);
width = 1155;
},
{
layerId = "B75C80CA-8025-4CF8-A3E7-75A43A0995A3";
shapes = (
{
closed = 1;
nodes = (
(379,434,l),
(379,434,o),
(379,434,o),
(379,434,q),
(396,531,ls),
(413,629,o),
(501,765,o),
(616,855,qs),
(719,936,o),
(815,1033,o),
(826,1091,q),
(826,1091,l),
(840,1172,o),
(730,1281,o),
(629,1281,qs),
(571,1281,o),
(469,1237,o),
(382,1159,o),
(323,1077,o),
(323,1077,o),
(323,1077,q),
(155,1171,l),
(155,1171,o),
(155,1171,o),
(231,1279,o),
(366,1397,o),
(536,1467,o),
(646,1467,qs),
(838,1467,o),
(1060,1243,o),
(1031,1078,q),
(1031,1078,l),
(1012,974,o),
(888,837,o),
(756,737,q),
(676,678,o),
(604,583,o),
(593,518,qs),
(578,434,l),
(578,434,o),
(578,434,o),
(578,434,q)
);
},
{
closed = 1;
nodes = (
(368,-12,o),
(280,76,o),
(280,140,qs),
(280,201,o),
(368,287,o),
(430,287,qs),
(493,287,o),
(582,201,o),
(582,140,qs),
(582,76,o),
(493,-12,o),
(430,-12,qs)
);
}
);
width = 989;
},
{
layerId = "A08665C1-CA57-4E4D-B402-868E03E7A8D5";
shapes = (
{
closed = 1;
nodes = (
(335,432,l),
(335,432,o),
(335,432,o),
(335,432,q),
(351,524,ls),
(370,628,o),
(453,764,o),
(553,851,qs),
(646,933,o),
(740,1038,o),
(752,1099,q),
(753,1106,l),
(767,1185,o),
(672,1284,o),
(584,1284,qs),
(531,1284,o),
(440,1240,o),
(365,1160,o),
(313,1074,o),
(313,1074,o),
(313,1074,q),
(148,1156,l),
(148,1156,o),
(148,1156,o),
(216,1272,o),
(336,1391,o),
(492,1463,o),
(599,1463,qs),
(776,1463,o),
(977,1252,o),
(950,1094,q),
(948,1085,l),
(930,986,o),
(810,844,o),
(690,739,q),
(618,680,o),
(552,582,o),
(540,509,q),
(526,432,l),
(526,432,o),
(526,432,o),
(526,432,q)
);
},
{
closed = 1;
nodes = (
(322,-12,o),
(238,73,o),
(238,135,qs),
(238,194,o),
(322,277,o),
(383,277,qs),
(443,277,o),
(529,194,o),
(529,135,qs),
(529,73,o),
(444,-12,o),
(383,-12,qs)
);
}
);
width = 905;
},
{
layerId = "5EFB1F2B-6635-43CF-844A-B3185C929525";
shapes = (
{
closed = 1;
nodes = (
(430,379,l),
(430,379,o),
(430,379,o),
(430,379,q),
(445,463,ls),
(469,603,o),
(566,742,o),
(679,820,qs),
(796,901,o),
(939,1032,o),
(954,1121,q),
(954,1121,l),
(975,1239,o),
(818,1397,o),
(671,1397,qs),
(577,1397,o),
(435,1332,o),
(331,1224,o),
(275,1135,o),
(275,1135,o),
(275,1135,q),
(218,1162,l),
(218,1162,o),
(218,1162,o),
(281,1264,o),
(396,1384,o),
(569,1459,o),
(679,1459,qs),
(849,1459,o),
(1049,1260,o),
(1023,1115,q),
(1023,1115,l),
(1003,1004,o),
(842,855,o),
(718,770,qs),
(623,705,o),
(536,585,o),
(512,458,qs),
(498,379,l),
(498,379,o),
(498,379,o),
(498,379,q)
);
},
{
closed = 1;
nodes = (
(376,-11,o),
(321,43,o),
(321,82,qs),
(321,120,o),
(376,174,o),
(415,174,qs),
(454,174,o),
(508,120,o),
(508,82,qs),
(508,43,o),
(453,-11,o),
(414,-11,qs)
);
}
);
width = 1044;
},
{
layerId = "530719F5-0959-4DA7-9A1D-C7B5EABE4A1F";
shapes = (
{
closed = 1;
nodes = (
(377,379,l),
(377,379,o),
(377,379,o),
(377,379,q),
(393,466,ls),
(416,598,o),
(504,734,o),
(608,817,q),
(711,897,o),
(841,1030,o),
(858,1126,q),
(857,1125,l),
(879,1246,o),
(743,1394,o),
(615,1394,qs),
(532,1394,o),
(408,1332,o),
(316,1225,o),
(264,1133,o),
(264,1133,o),
(264,1133,q),
(206,1158,l),
(206,1158,o),
(206,1158,o),
(263,1263,o),
(369,1383,o),
(523,1456,o),
(622,1456,qs),
(773,1456,o),
(951,1267,o),
(926,1119,q),
(925,1119,l),
(905,1004,o),
(757,853,o),
(648,768,qs),
(559,699,o),
(480,578,o),
(459,460,qs),
(444,379,l),
(444,379,o),
(444,379,o),
(444,379,q)
);
},
{
closed = 1;
nodes = (
(322,-10,o),
(268,43,o),
(268,82,qs),
(268,120,o),
(321,173,o),
(361,173,qs),
(399,173,o),
(453,120,o),
(453,82,qs),
(453,43,o),
(399,-10,o),
(360,-10,qs)
);
}
);
width = 938;
}
);
unicode = 63;
},
{
glyphname = at;
layers = (
{
layerId = "872C3892-1949-4E27-92D3-5A16DDABBAC0";
shapes = (
{
closed = 1;
nodes = (
(430,-177,o),
(49,305,o),
(112,667,q),
(178,1033,o),
(692,1454,o),
(1064,1454,qs),
(1434,1454,o),
(1857,1004,o),
(1796,665,qs),
(1754,433,o),
(1534,211,o),
(1379,211,qs),
(1291,211,o),
(1178,310,o),
(1163,397,q),
(1106,306,o),
(944,211,o),
(850,211,qs),
(672,211,o),
(483,472,o),
(515,652,qs),
(547,835,o),
(798,1060,o),
(955,1060,qs),
(1041,1060,o),
(1163,981,o),
(1192,926,q),
(1201,926,l),
(1219,1032,l),
(1219,1032,o),
(1219,1032,o),
(1219,1032,q),
(1416,1032,l),
(1416,1032,o),
(1416,1032,o),
(1416,1032,q),
(1339,591,ls),
(1326,519,o),
(1361,456,o),
(1403,456,qs),
(1449,456,o),
(1527,550,o),
(1549,673,qs),
(1592,922,o),
(1324,1228,o),
(1051,1228,qs),
(777,1228,o),
(409,915,o),
(364,653,qs),
(319,394,o),
(569,50,o),
(845,50,qs),
(893,50,o),
(976,63,o),
(1056,84,o),
(1122,108,o),
(1122,108,o),
(1122,108,q),
(1191,-101,l),
(1191,-101,o),
(1191,-101,o),
(1101,-137,o),
(988,-163,o),
(879,-177,o),
(823,-177,qs)
);
},
{
closed = 1;
nodes = (
(976,460,o),
(1075,557,o),
(1088,633,qs),
(1101,709,o),
(1034,811,o),
(962,811,qs),
(890,811,o),
(792,714,o),
(779,638,qs),
(765,563,o),
(833,460,o),
(904,460,qs)
);
}
);
width = 1853;
},
{
layerId = "E858B941-4367-47FB-AD3D-B27AC74F93CC";
shapes = (
{
closed = 1;
nodes = (
(409,-177,o),
(44,306,o),
(108,671,qs),
(172,1033,o),
(667,1454,o),
(1025,1454,qs),
(1381,1454,o),
(1783,1008,o),
(1723,670,qs),
(1682,439,o),
(1469,215,o),
(1317,215,qs),
(1229,215,o),
(1118,310,o),
(1104,396,q),
(1053,308,o),
(901,215,o),
(809,215,qs),
(642,215,o),
(469,470,o),
(502,655,qs),
(534,837,o),
(764,1059,o),
(912,1059,qs),
(993,1059,o),
(1108,983,o),
(1133,924,q),
(1141,924,l),
(1160,1032,l),
(1160,1032,o),
(1160,1032,o),
(1160,1032,q),
(1356,1032,l),
(1356,1032,o),
(1356,1032,o),
(1356,1032,q),
(1279,588,l),
(1266,520,o),
(1297,458,o),
(1337,458,qs),
(1383,458,o),
(1458,557,o),
(1479,675,qs),
(1523,927,o),
(1273,1230,o),
(1011,1230,qs),
(752,1230,o),
(398,918,o),
(353,654,q),
(307,392,o),
(542,48,o),
(805,48,qs),
(850,48,o),
(926,60,o),
(1000,79,o),
(1068,104,o),
(1068,104,o),
(1068,104,q),
(1133,-103,l),
(1133,-103,o),
(1133,-103,o),
(1043,-138,o),
(939,-164,o),
(836,-177,o),
(781,-177,qs)
);
},
{
closed = 1;
nodes = (
(929,463,o),
(1018,558,o),
(1032,637,q),
(1044,715,o),
(989,810,o),
(926,810,qs),
(862,810,o),
(774,715,o),
(761,638,q),
(746,560,o),
(802,463,o),
(865,463,qs)
);
}
);
width = 1772;
},
{
layerId = "B75C80CA-8025-4CF8-A3E7-75A43A0995A3";
shapes = (
{
closed = 1;
nodes = (
(448,-177,o),
(80,303,o),
(144,668,qs),
(208,1029,o),
(725,1454,o),
(1079,1454,qs),
(1436,1454,o),
(1837,1003,o),
(1776,652,q),
(1735,425,o),
(1530,213,o),
(1393,213,qs),
(1305,213,o),
(1191,329,o),
(1191,416,q),
(1130,315,o),
(952,213,o),
(854,213,qs),
(683,213,o),
(495,466,o),
(529,653,qs),
(562,840,o),
(812,1062,o),
(969,1062,qs),
(1064,1062,o),
(1208,959,o),
(1239,875,q),
(1245,875,l),
(1273,1034,l),
(1273,1034,o),
(1273,1034,o),
(1273,1034,q),
(1402,1034,l),
(1402,1034,o),
(1402,1034,o),
(1402,1034,q),
(1315,537,ls),
(1299,448,o),
(1348,362,o),
(1410,362,qs),
(1477,362,o),
(1595,499,o),
(1624,669,qs),
(1674,957,o),
(1370,1305,o),
(1071,1305,qs),
(775,1305,o),
(350,948,o),
(298,650,qs),
(245,351,o),
(524,-28,o),
(832,-28,qs),
(881,-28,o),
(971,-15,o),
(1058,9,o),
(1126,33,o),
(1126,33,o),
(1126,33,q),
(1171,-103,l),
(1171,-103,o),
(1171,-103,o),
(1088,-136,o),
(984,-162,o),
(873,-177,o),
(815,-177,qs)
);
},
{
closed = 1;
nodes = (
(990,360,o),
(1160,518,o),
(1180,638,qs),
(1200,760,o),
(1082,915,o),
(978,915,qs),
(871,915,o),
(707,764,o),
(685,639,qs),
(662,510,o),
(780,360,o),
(883,360,qs)
);
}
);
width = 1868;
},
{
layerId = "A08665C1-CA57-4E4D-B402-868E03E7A8D5";
shapes = (
{
closed = 1;
nodes = (
(405,-176,o),
(68,293,o),
(133,664,qs),
(198,1032,o),
(680,1454,o),
(1014,1454,qs),
(1349,1454,o),
(1712,1012,o),
(1651,658,q),
(1610,430,o),
(1417,215,o),
(1285,215,qs),
(1201,215,o),
(1097,325,o),
(1096,408,q),
(1041,312,o),
(880,214,o),
(787,214,qs),
(633,214,o),
(464,456,o),
(499,651,qs),
(534,846,o),
(760,1061,o),
(907,1061,qs),
(993,1061,o),
(1121,964,o),
(1147,883,q),
(1152,883,l),
(1179,1033,l),
(1179,1033,o),
(1179,1033,o),
(1179,1033,q),
(1306,1033,l),
(1306,1033,o),
(1306,1033,o),
(1306,1033,q),
(1218,531,l),
(1201,440,o),
(1245,359,o),
(1300,359,qs),
(1362,359,o),
(1470,499,o),
(1500,672,qs),
(1551,962,o),
(1281,1308,o),
(1004,1308,qs),
(732,1308,o),
(338,952,o),
(285,648,qs),
(231,344,o),
(483,-30,o),
(766,-30,qs),
(812,-30,o),
(897,-17,o),
(979,6,o),
(1043,29,o),
(1043,29,o),
(1043,29,q),
(1088,-104,l),
(1088,-104,o),
(1088,-104,o),
(1010,-135,o),
(911,-161,o),
(805,-176,o),
(749,-176,qs)
);
},
{
closed = 1;
nodes = (
(914,360,o),
(1062,508,o),
(1084,637,qs),
(1105,767,o),
(1009,915,o),
(916,915,qs),
(821,915,o),
(677,771,o),
(654,640,qs),
(630,505,o),
(727,360,o),
(819,360,qs)
);
}
);
width = 1731;
},
{
layerId = "5EFB1F2B-6635-43CF-844A-B3185C929525";
shapes = (
{
closed = 1;
nodes = (
(469,-168,o),
(113,305,o),
(176,665,q),
(239,1018,o),
(736,1441,o),
(1079,1441,qs),
(1423,1441,o),
(1808,996,o),
(1746,646,q),
(1705,424,o),
(1518,214,o),
(1402,214,qs),
(1303,214,o),
(1207,354,o),
(1226,467,q),
(1175,352,o),
(979,211,o),
(862,211,qs),
(698,211,o),
(514,451,o),
(549,646,qs),
(582,836,o),
(825,1056,o),
(978,1056,qs),
(1101,1056,o),
(1258,915,o),
(1278,802,q),
(1281,802,l),
(1322,1029,l),
(1322,1029,o),
(1322,1029,o),
(1322,1029,q),
(1375,1029,l),
(1375,1029,o),
(1375,1029,o),
(1375,1029,q),
(1287,528,ls),
(1263,391,o),
(1324,274,o),
(1405,274,qs),
(1491,274,o),
(1648,456,o),
(1682,654,qs),
(1738,977,o),
(1393,1381,o),
(1075,1381,qs),
(763,1381,o),
(297,989,o),
(240,658,q),
(181,324,o),
(501,-108,o),
(828,-108,qs),
(881,-108,o),
(973,-93,o),
(1062,-67,o),
(1126,-41,o),
(1126,-41,o),
(1126,-41,q),
(1148,-96,l),
(1148,-96,o),
(1148,-96,o),
(1082,-124,o),
(985,-152,o),
(881,-168,o),
(823,-168,qs)
);
},
{
closed = 1;
nodes = (
(1003,270,o),
(1213,469,o),
(1240,626,q),
(1270,790,o),
(1116,997,o),
(984,997,qs),
(850,997,o),
(640,807,o),
(612,642,qs),
(582,472,o),
(731,270,o),
(868,270,qs)
);
}
);
width = 1870;
},
{
layerId = "530719F5-0959-4DA7-9A1D-C7B5EABE4A1F";
shapes = (
{
closed = 1;
nodes = (
(421,-168,o),
(104,293,o),
(169,663,qs),
(233,1027,o),
(689,1441,o),
(1007,1441,qs),
(1325,1441,o),
(1667,1006,o),
(1605,649,q),
(1563,422,o),
(1387,216,o),
(1277,216,qs),
(1189,216,o),
(1101,344,o),
(1118,452,q),
(1071,341,o),
(896,212,o),
(792,212,qs),
(640,212,o),
(481,444,o),
(517,645,qs),
(552,843,o),
(767,1055,o),
(911,1055,qs),
(1018,1055,o),
(1157,926,o),
(1175,821,q),
(1177,821,l),
(1215,1028,l),
(1215,1028,o),
(1215,1028,o),
(1215,1028,q),
(1268,1028,l),
(1268,1028,o),
(1268,1028,o),
(1268,1028,q),
(1178,518,ls),
(1154,384,o),
(1211,275,o),
(1281,275,qs),
(1361,275,o),
(1505,454,o),
(1540,657,q),
(1599,990,o),
(1294,1382,o),
(1002,1382,qs),
(716,1382,o),
(291,999,o),
(232,656,q),
(170,311,o),
(453,-109,o),
(753,-109,qs),
(802,-109,o),
(888,-94,o),
(971,-70,o),
(1035,-44,o),
(1035,-44,o),
(1035,-44,q),
(1058,-98,l),
(1058,-98,o),
(1058,-98,o),
(992,-125,o),
(901,-153,o),
(802,-168,o),
(749,-168,qs)
);
},
{
closed = 1;
nodes = (
(919,270,o),
(1106,463,o),
(1134,627,qs),
(1164,798,o),
(1036,997,o),
(916,997,qs),
(793,997,o),
(609,812,o),
(579,641,qs),
(548,465,o),
(673,270,o),
(798,270,qs)
);
}
);
width = 1719;
}
);
unicode = 64;
},
{
glyphname = A;
layers = (
{
anchors = (
{
name = b.uni0327;
position = "{714, 0}";
},
{
name = b.uni0328;
position = "{1470, 0}";
},
{
name = t.uni0302;
position = "{950, 1432}";
}
);
layerId = "872C3892-1949-4E27-92D3-5A16DDABBAC0";
shapes = (
{
closed = 1;
nodes = (
(-64,0,l),
(-64,0,o),
(-64,0,o),
(-64,0,q),
(771,1432,l),
(771,1432,o),
(771,1432,o),
(771,1432,q),
(1140,1432,l),
(1140,1432,o),
(1140,1432,o),
(1140,1432,q),
(1470,0,l),
(1470,0,o),
(1470,0,o),
(1470,0,q),
(1028,0,l),
(1028,0,o),
(1028,0,o),
(1028,0,q),
(901,679,l),
(868,876,l),
(858,876,l),
(767,681,l),
(414,0,l),
(414,0,o),
(414,0,o),
(414,0,q)
);
},
{
closed = 1;
nodes = (
(271,178,l),
(445,492,l),
(1140,492,l),
(1206,178,l)
);
}
);
width = 1594;
},
{
anchors = (
{
name = b.uni0327;
position = "{723, 0}";
},
{
name = b.uni0328;
position = "{1506, 0}";
},
{
name = t.uni0302;
position = "{948, 1432}";
}
);
layerId = "E858B941-4367-47FB-AD3D-B27AC74F93CC";
shapes = (
{
closed = 1;
nodes = (
(-62,0,l),
(-62,0,o),
(-62,0,o),
(-62,0,q),
(693,1432,l),
(693,1432,o),
(693,1432,o),
(693,1432,q),
(1086,1432,l),
(1086,1432,o),
(1086,1432,o),
(1086,1432,q),
(1334,0,l),
(1334,0,o),
(1334,0,o),
(1334,0,q),
(902,0,l),
(902,0,o),
(902,0,o),
(902,0,q),
(821,673,l),
(800,876,l),
(790,876,l),
(707,674,l),
(396,0,l),
(396,0,o),
(396,0,o),
(396,0,q)
);
},
{
closed = 1;
nodes = (
(239,188,l),
(396,487,l),
(1044,487,l),
(1105,188,l)
);
}
);
width = 1460;
},
{
anchors = (
{
name = b.uni0327;
position = "{723, 0}";
},
{
name = b.uni0328;
position = "{1506, 0}";
},
{
name = t.uni0302;
position = "{948, 1432}";
}
);
layerId = "B75C80CA-8025-4CF8-A3E7-75A43A0995A3";
shapes = (
{
closed = 1;
nodes = (
(-39,0,l),
(-39,0,o),
(-39,0,o),
(-39,0,q),
(784,1432,l),
(784,1432,o),
(784,1432,o),
(784,1432,q),
(985,1432,l),
(985,1432,o),
(985,1432,o),
(985,1432,q),
(1298,0,l),
(1298,0,o),
(1298,0,o),
(1298,0,q),
(1095,0,l),
(1095,0,o),
(1095,0,o),
(1095,0,q),
(882,1015,l),
(852,1202,l),
(846,1202,l),
(755,1015,l),
(183,0,l),
(183,0,o),
(183,0,o),
(183,0,q)
);
},
{
closed = 1;
nodes = (
(271,352,l),
(364,535,l),
(1081,535,l),
(1111,352,l)
);
}
);
width = 1446;
},
{
anchors = (
{
name = b.uni0327;
position = "{622, 0}";
},
{
name = b.uni0328;
position = "{1314, 0}";
},
{
name = t.uni0302;
position = "{847, 1432}";
}
);
layerId = "A08665C1-CA57-4E4D-B402-868E03E7A8D5";
shapes = (
{
closed = 1;
nodes = (
(-46,0,l),
(-46,0,o),
(-46,0,o),
(-46,0,q),
(682,1432,l),
(682,1432,o),
(682,1432,o),
(682,1432,q),
(888,1432,l),
(888,1432,o),
(888,1432,o),
(888,1432,q),
(1106,0,l),
(1106,0,o),
(1106,0,o),
(1106,0,q),
(911,0,l),
(911,0,o),
(911,0,o),
(911,0,q),
(767,1018,l),
(747,1185,l),
(741,1185,l),
(666,1018,l),
(162,0,l),
(162,0,o),
(162,0,o),
(162,0,q)
);
},
{
closed = 1;
nodes = (
(237,356,l),
(320,532,l),
(938,532,l),
(958,356,l)
);
}
);
width = 1247;
},
{
anchors = (
{
name = b.uni0327;
position = "{590, 0}";
},
{
name = b.uni0328;
position = "{1226, 0}";
},
{
name = t.uni0302;
position = "{817, 1432}";
}
);
layerId = "5EFB1F2B-6635-43CF-844A-B3185C929525";
shapes = (
{
closed = 1;
nodes = (
(-4,0,l),
(-4,0,o),
(-4,0,o),
(-4,0,q),
(823,1439,l),
(823,1439,o),
(823,1439,o),
(823,1439,q),
(889,1439,l),
(889,1439,o),
(889,1439,o),
(889,1439,q),
(1209,0,l),
(1209,0,o),
(1209,0,o),
(1209,0,q),
(1141,0,l),
(1141,0,o),
(1141,0,o),
(1141,0,q),
(879,1197,l),
(848,1365,l),
(844,1365,l),
(757,1197,l),
(73,0,l),
(73,0,o),
(73,0,o),
(73,0,q)
);
},
{
closed = 1;
nodes = (
(282,448,l),
(315,510,l),
(1070,510,l),
(1081,448,l)
);
}
);
width = 1389;
},
{
anchors = (
{
name = b.uni0327;
position = "{454, 0}";
},
{
name = b.uni0328;
position = "{939, 0}";
},
{
name = t.uni0302;
position = "{682, 1432}";
}
);
layerId = "530719F5-0959-4DA7-9A1D-C7B5EABE4A1F";
shapes = (
{
closed = 1;
nodes = (
(-12,0,l),
(-12,0,o),
(-12,0,o),
(-12,0,q),
(719,1438,l),
(719,1438,o),
(719,1438,o),
(719,1438,q),
(786,1438,l),
(786,1438,o),
(786,1438,o),
(786,1438,q),
(1010,0,l),
(1010,0,o),
(1010,0,o),
(1010,0,q),
(943,0,l),
(943,0,o),
(943,0,o),
(943,0,q),
(763,1206,l),
(742,1354,l),
(738,1354,l),
(668,1206,l),
(60,0,l),
(60,0,o),
(60,0,o),
(60,0,q)
);
},
{
closed = 1;
nodes = (
(243,446,l),
(273,507,l),
(906,507,l),
(913,446,l)
);
}
);
width = 1181;
}
);
leftKerningGroup = A2;
rightKerningGroup = A;
unicode = 65;
},
{
glyphname = B;
layers = (
{
anchors = (
{
name = b.uni0327;
position = "{601, -1}";
},
{
name = t.uni0302;
position = "{853, 1432}";
}
);
layerId = "872C3892-1949-4E27-92D3-5A16DDABBAC0";
shapes = (
{
closed = 1;
nodes = (
(80,0,l),
(80,0,o),
(80,0,o),
(80,0,q),
(331,1432,l),
(331,1432,o),
(331,1432,o),
(331,1432,q),
(983,1432,ls),
(1197,1432,o),
(1433,1205,o),
(1405,1048,q),
(1405,1048,l),
(1386,933,o),
(1240,780,o),
(1124,743,q),
(1124,735,l),
(1242,702,o),
(1378,512,o),
(1353,373,q),
(1353,373,l),
(1323,208,o),
(1046,0,o),
(844,0,qs)
);
},
{
closed = 1;
nodes = (
(579,328,l),
(755,328,ls),
(819,328,o),
(904,394,o),
(914,453,q),
(914,453,l),
(925,511,o),
(859,585,o),
(794,585,qs),
(542,585,l),
(590,854,l),
(810,854,ls),
(869,854,o),
(957,917,o),
(966,975,q),
(966,975,l),
(977,1032,o),
(910,1098,o),
(852,1098,qs),
(714,1098,l)
);
}
);
width = 1465;
},
{
anchors = (
{
name = b.uni0327;
position = "{620, -2}";
},
{
name = t.uni0302;
position = "{867, 1432}";
}
);
layerId = "E858B941-4367-47FB-AD3D-B27AC74F93CC";
shapes = (
{
closed = 1;
nodes = (
(66,0,l),
(66,0,o),
(66,0,o),
(66,0,q),
(317,1432,l),
(317,1432,o),
(317,1432,o),
(317,1432,q),
(919,1432,ls),
(1128,1432,o),
(1356,1211,o),
(1327,1048,q),
(1327,1048,l),
(1307,934,o),
(1164,780,o),
(1048,746,q),
(1049,738,l),
(1166,706,o),
(1294,513,o),
(1269,373,q),
(1269,373,l),
(1239,207,o),
(971,0,o),
(770,0,qs)
);
},
{
closed = 1;
nodes = (
(555,328,l),
(685,328,ls),
(750,328,o),
(832,393,o),
(843,453,q),
(843,458,l),
(854,517,o),
(792,588,o),
(729,588,qs),
(523,588,l),
(571,854,l),
(750,854,ls),
(810,854,o),
(893,916,o),
(902,974,q),
(902,978,l),
(913,1034,o),
(853,1098,o),
(796,1098,qs),
(690,1098,l)
);
}
);
width = 1374;
},
{
anchors = (
{
name = b.uni0327;
position = "{620, -2}";
},
{
name = t.uni0302;
position = "{867, 1432}";
}
);
layerId = "B75C80CA-8025-4CF8-A3E7-75A43A0995A3";
shapes = (
{
closed = 1;
nodes = (
(108,0,l),
(108,0,o),
(108,0,o),
(108,0,q),
(359,1432,l),
(359,1432,o),
(359,1432,o),
(359,1432,q),
(848,1432,ls),
(1069,1432,o),
(1279,1202,o),
(1252,1046,q),
(1252,1046,l),
(1230,922,o),
(1083,781,o),
(967,745,q),
(966,739,l),
(1088,710,o),
(1224,522,o),
(1200,384,q),
(1200,384,l),
(1168,203,o),
(890,0,o),
(679,0,qs)
);
},
{
closed = 1;
nodes = (
(339,180,l),
(694,180,ls),
(813,180,o),
(982,303,o),
(999,404,q),
(999,404,l),
(1018,510,o),
(886,651,o),
(757,651,qs),
(361,651,l),
(392,825,l),
(769,825,ls),
(878,825,o),
(1035,936,o),
(1053,1037,q),
(1053,1037,l),
(1071,1135,o),
(954,1252,o),
(832,1252,qs),
(528,1252,l)
);
}
);
width = 1334;
},
{
anchors = (
{
name = b.uni0327;
position = "{573, -2}";
},
{
name = t.uni0302;
position = "{799, 1432}";
}
);
layerId = "A08665C1-CA57-4E4D-B402-868E03E7A8D5";
shapes = (
{
closed = 1;
nodes = (
(90,0,l),
(90,0,o),
(90,0,o),
(90,0,q),
(342,1432,l),
(342,1432,o),
(342,1432,o),
(342,1432,q),
(764,1432,ls),
(962,1432,o),
(1156,1214,o),
(1130,1063,qs),
(1124,1031,ls),
(1103,913,o),
(963,779,o),
(855,748,q),
(855,742,l),
(968,716,o),
(1096,535,o),
(1073,401,q),
(1067,372,l),
(1036,195,o),
(782,0,o),
(588,0,qs)
);
},
{
closed = 1;
nodes = (
(315,175,l),
(594,175,ls),
(702,175,o),
(854,291,o),
(871,391,qs),
(876,420,ls),
(894,522,o),
(779,654,o),
(665,654,qs),
(338,654,l),
(368,823,l),
(670,823,ls),
(768,823,o),
(913,929,o),
(930,1025,qs),
(935,1054,ls),
(952,1147,o),
(849,1257,o),
(741,1257,qs),
(506,1257,l)
);
}
);
width = 1193;
},
{
anchors = (
{
name = b.uni0327;
position = "{553, -2}";
},
{
name = t.uni0302;
position = "{778, 1432}";
}
);
layerId = "5EFB1F2B-6635-43CF-844A-B3185C929525";
shapes = (
{
closed = 1;
nodes = (
(123,0,l),
(123,0,o),
(123,0,o),
(123,0,q),
(374,1432,l),
(374,1432,o),
(374,1432,o),
(374,1432,q),
(800,1432,ls),
(997,1432,o),
(1201,1220,o),
(1174,1065,q),
(1174,1065,l),
(1148,924,o),
(970,770,o),
(843,750,q),
(843,746,l),
(980,726,o),
(1145,515,o),
(1118,363,q),
(1118,363,l),
(1088,195,o),
(834,0,o),
(641,0,qs)
);
},
{
closed = 1;
nodes = (
(202,63,l),
(637,63,ls),
(803,63,o),
(1023,227,o),
(1048,370,q),
(1048,370,l),
(1076,521,o),
(893,716,o),
(720,716,qs),
(294,716,l),
(306,779,l),
(727,779,ls),
(874,779,o),
(1082,931,o),
(1106,1069,q),
(1106,1069,l),
(1130,1201,o),
(950,1369,o),
(793,1369,qs),
(432,1369,l)
);
}
);
width = 1279;
},
{
anchors = (
{
name = b.uni0327;
position = "{465, -2}";
},
{
name = t.uni0302;
position = "{687, 1432}";
}
);
layerId = "530719F5-0959-4DA7-9A1D-C7B5EABE4A1F";
shapes = (
{
closed = 1;
nodes = (
(112,0,l),
(112,0,o),
(112,0,o),
(112,0,q),
(363,1432,l),
(363,1432,o),
(363,1432,o),
(363,1432,q),
(705,1432,ls),
(893,1432,o),
(1077,1231,o),
(1050,1074,q),
(1047,1060,l),
(1022,922,o),
(854,772,o),
(739,752,q),
(740,748,l),
(864,730,o),
(1017,530,o),
(990,375,qs),
(987,360,l),
(958,192,o),
(721,0,o),
(535,0,qs)
);
},
{
closed = 1;
nodes = (
(190,61,l),
(532,61,ls),
(689,61,o),
(894,222,o),
(919,368,q),
(921,382,l),
(949,532,o),
(783,719,o),
(625,719,qs),
(282,719,l),
(293,780,l),
(629,780,ls),
(762,780,o),
(957,930,o),
(981,1066,qs),
(983,1079,l),
(1007,1210,o),
(849,1371,o),
(697,1371,qs),
(420,1371,l)
);
}
);
width = 1139;
}
);
leftKerningGroup = B;
unicode = 66;
},
{
glyphname = C;
layers = (
{
anchors = (
{
name = b.uni0327;
position = "{696, 0}";
},
{
name = t.uni0335;
position = "{888, 715}";
},
{
name = t.uni0302;
position = "{952, 1432}";
}
);
layerId = "872C3892-1949-4E27-92D3-5A16DDABBAC0";
shapes = (
{
closed = 1;
nodes = (
(434,-37,o),
(63,414,o),
(123,754,q),
(123,754,l),
(181,1086,o),
(654,1470,o),
(971,1470,qs),
(1081,1470,o),
(1274,1416,o),
(1431,1316,o),
(1522,1224,o),
(1522,1224,o),
(1522,1224,q),
(1207,934,l),
(1207,934,o),
(1207,934,o),
(1159,982,o),
(1087,1025,o),
(1000,1050,o),
(943,1050,qs),
(802,1050,o),
(594,871,o),
(568,720,q),
(568,720,l),
(542,572,o),
(687,383,o),
(822,383,qs),
(880,383,o),
(986,412,o),
(1071,466,o),
(1128,520,o),
(1128,520,o),
(1128,520,q),
(1383,221,l),
(1383,221,o),
(1383,221,o),
(1274,119,o),
(1109,20,o),
(901,-37,o),
(786,-37,qs)
);
}
);
width = 1474;
},
{
anchors = (
{
name = b.uni0327;
position = "{582, 0}";
},
{
name = t.uni0335;
position = "{888, 695}";
},
{
name = t.uni0302;
position = "{863, 1432}";
}
);
layerId = "E858B941-4367-47FB-AD3D-B27AC74F93CC";
shapes = (
{
closed = 1;
nodes = (
(376,-34,o),
(56,394,o),
(119,752,q),
(119,752,l),
(180,1099,o),
(597,1467,o),
(892,1467,qs),
(1015,1467,o),
(1205,1394,o),
(1335,1266,o),
(1398,1147,o),
(1398,1147,o),
(1398,1147,q),
(1066,921,l),
(1066,921,o),
(1066,921,o),
(1034,980,o),
(982,1030,o),
(913,1058,o),
(864,1058,qs),
(750,1058,o),
(587,894,o),
(561,742,qs),
(553,695,ls),
(526,543,o),
(635,375,o),
(743,375,qs),
(791,375,o),
(877,404,o),
(944,459,o),
(992,522,o),
(992,522,o),
(992,522,q),
(1275,290,l),
(1275,290,o),
(1275,290,o),
(1178,162,o),
(1023,37,o),
(819,-34,o),
(695,-34,qs)
);
}
);
width = 1361;
},
{
anchors = (
{
name = b.uni0327;
position = "{582, 0}";
},
{
name = t.uni0335;
position = "{888, 695}";
},
{
name = t.uni0302;
position = "{863, 1432}";
}
);
layerId = "B75C80CA-8025-4CF8-A3E7-75A43A0995A3";
shapes = (
{
closed = 1;
nodes = (
(454,-34,o),
(95,411,o),
(154,743,q),
(154,743,l),
(212,1075,o),
(675,1466,o),
(985,1466,qs),
(1095,1466,o),
(1293,1415,o),
(1450,1315,o),
(1536,1228,o),
(1536,1228,o),
(1536,1228,q),
(1383,1097,l),
(1383,1097,o),
(1383,1097,o),
(1319,1163,o),
(1206,1239,o),
(1069,1280,o),
(980,1280,qs),
(752,1280,o),
(406,979,o),
(362,730,q),
(362,730,l),
(317,473,o),
(577,152,o),
(799,152,qs),
(893,152,o),
(1049,204,o),
(1180,289,o),
(1264,365,o),
(1264,365,o),
(1264,365,q),
(1399,235,l),
(1399,235,o),
(1399,235,o),
(1297,133,o),
(1125,26,o),
(915,-34,o),
(788,-34,qs)
);
}
);
width = 1531;
},
{
anchors = (
{
name = b.uni0327;
position = "{460, 0}";
},
{
name = t.uni0335;
position = "{778, 694}";
},
{
name = t.uni0302;
position = "{745, 1432}";
}
);
layerId = "A08665C1-CA57-4E4D-B402-868E03E7A8D5";
shapes = (
{
closed = 1;
nodes = (
(376,-30,o),
(81,366,o),
(138,689,qs),
(156,791,ls),
(213,1113,o),
(597,1462,o),
(864,1462,qs),
(968,1462,o),
(1142,1401,o),
(1269,1288,o),
(1332,1182,o),
(1332,1182,o),
(1332,1182,q),
(1173,1077,l),
(1173,1077,o),
(1173,1077,o),
(1127,1156,o),
(1042,1238,o),
(931,1282,o),
(857,1282,qs),
(673,1282,o),
(400,1018,o),
(358,782,q),
(339,669,ls),
(297,429,o),
(493,150,o),
(672,150,qs),
(751,150,o),
(881,202,o),
(985,285,o),
(1054,373,o),
(1054,373,o),
(1054,373,q),
(1199,268,l),
(1199,268,o),
(1199,268,o),
(1113,148,o),
(965,35,o),
(777,-30,o),
(661,-30,qs)
);
}
);
width = 1313;
},
{
anchors = (
{
name = b.uni0327;
position = "{456, 0}";
},
{
name = t.uni0335;
position = "{761, 694}";
},
{
name = t.uni0302;
position = "{756, 1432}";
}
);
layerId = "5EFB1F2B-6635-43CF-844A-B3185C929525";
shapes = (
{
closed = 1;
nodes = (
(451,-30,o),
(122,400,o),
(181,738,q),
(181,738,l),
(239,1072,o),
(688,1462,o),
(985,1462,qs),
(1095,1462,o),
(1273,1404,o),
(1405,1300,o),
(1476,1205,o),
(1476,1205,o),
(1476,1205,q),
(1422,1169,l),
(1422,1169,o),
(1422,1169,o),
(1355,1257,o),
(1240,1347,o),
(1087,1400,o),
(982,1400,qs),
(720,1400,o),
(306,1041,o),
(251,732,q),
(251,732,l),
(196,413,o),
(494,32,o),
(758,32,qs),
(867,32,o),
(1051,94,o),
(1201,193,o),
(1295,289,o),
(1295,289,o),
(1295,289,q),
(1346,248,l),
(1346,248,o),
(1346,248,o),
(1243,143,o),
(1077,35,o),
(871,-30,o),
(752,-30,qs)
);
}
);
width = 1498;
},
{
anchors = (
{
name = b.uni0327;
position = "{321, 0}";
},
{
name = t.uni0335;
position = "{623, 694}";
},
{
name = t.uni0302;
position = "{646, 1432}";
}
);
layerId = "530719F5-0959-4DA7-9A1D-C7B5EABE4A1F";
shapes = (
{
closed = 1;
nodes = (
(380,-26,o),
(112,351,o),
(169,678,qs),
(189,794,ls),
(246,1118,o),
(613,1458,o),
(859,1458,qs),
(957,1458,o),
(1113,1395,o),
(1216,1285,o),
(1267,1181,o),
(1267,1181,o),
(1267,1181,q),
(1211,1151,l),
(1211,1151,o),
(1211,1151,o),
(1163,1246,o),
(1075,1341,o),
(947,1397,o),
(856,1397,qs),
(645,1397,o),
(311,1086,o),
(257,788,q),
(238,670,l),
(185,368,o),
(421,35,o),
(633,35,qs),
(727,35,o),
(882,100,o),
(1004,204,o),
(1079,304,o),
(1079,304,o),
(1079,304,q),
(1133,271,l),
(1133,271,o),
(1133,271,o),
(1050,159,o),
(913,45,o),
(736,-26,o),
(628,-26,qs)
);
}
);
width = 1271;
}
);
leftKerningGroup = C2;
rightKerningGroup = C;
unicode = 67;
},
{
glyphname = D;
layers = (
{
anchors = (
{
name = b.uni0327;
position = "{601, 0}";
},
{
name = t.uni0335;
position = "{461, 719}";
},
{
name = t.uni0302;
position = "{868, 1432}";
}
);
layerId = "872C3892-1949-4E27-92D3-5A16DDABBAC0";
shapes = (
{
closed = 1;
nodes = (
(79,0,l),
(79,0,o),
(79,0,o),
(79,0,q),
(331,1432,l),
(331,1432,o),
(331,1432,o),
(331,1432,q),
(856,1432,ls),
(1210,1432,o),
(1580,1016,o),
(1521,682,q),
(1521,682,l),
(1462,349,o),
(1019,0,o),
(677,0,qs)
);
},
{
closed = 1;
nodes = (
(590,391,l),
(695,391,l),
(850,389,o),
(1047,547,o),
(1075,707,q),
(1075,707,l),
(1104,869,o),
(956,1034,o),
(803,1034,qs),
(703,1034,l)
);
}
);
width = 1578;
},
{
anchors = (
{
name = b.uni0327;
position = "{577, 0}";
},
{
name = t.uni0335;
position = "{438, 719}";
},
{
name = t.uni0302;
position = "{842, 1432}";
}
);
layerId = "E858B941-4367-47FB-AD3D-B27AC74F93CC";
shapes = (
{
closed = 1;
nodes = (
(65,0,l),
(65,0,o),
(65,0,o),
(65,0,q),
(317,1432,l),
(317,1432,o),
(317,1432,o),
(317,1432,q),
(818,1432,ls),
(1148,1432,o),
(1480,1022,o),
(1419,682,q),
(1419,682,l),
(1360,351,o),
(948,0,o),
(632,0,qs)
);
},
{
closed = 1;
nodes = (
(566,387,l),
(656,387,l),
(787,385,o),
(951,536,o),
(979,695,qs),
(985,729,ls),
(1013,885,o),
(898,1040,o),
(770,1040,qs),
(681,1040,l)
);
}
);
width = 1473;
},
{
anchors = (
{
name = b.uni0327;
position = "{577, 0}";
},
{
name = t.uni0335;
position = "{438, 719}";
},
{
name = t.uni0302;
position = "{842, 1432}";
}
);
layerId = "B75C80CA-8025-4CF8-A3E7-75A43A0995A3";
shapes = (
{
closed = 1;
nodes = (
(106,0,l),
(106,0,o),
(106,0,o),
(106,0,q),
(359,1432,l),
(359,1432,o),
(359,1432,o),
(359,1432,q),
(816,1432,ls),
(1155,1432,o),
(1503,1031,o),
(1442,687,q),
(1442,687,l),
(1385,363,o),
(940,0,o),
(606,0,qs)
);
},
{
closed = 1;
nodes = (
(339,184,l),
(603,184,ls),
(849,184,o),
(1191,454,o),
(1234,701,q),
(1234,701,l),
(1281,967,o),
(1036,1248,o),
(791,1248,qs),
(525,1248,l)
);
}
);
width = 1530;
},
{
anchors = (
{
name = b.uni0327;
position = "{498, 0}";
},
{
name = t.uni0335;
position = "{395, 719}";
},
{
name = t.uni0302;
position = "{762, 1432}";
}
);
layerId = "A08665C1-CA57-4E4D-B402-868E03E7A8D5";
shapes = (
{
closed = 1;
nodes = (
(89,0,l),
(89,0,o),
(89,0,o),
(89,0,q),
(342,1432,l),
(342,1432,o),
(342,1432,o),
(342,1432,q),
(735,1432,ls),
(1030,1432,o),
(1326,1061,o),
(1269,738,qs),
(1253,650,ls),
(1198,337,o),
(813,0,o),
(522,0,qs)
);
},
{
closed = 1;
nodes = (
(315,179,l),
(523,179,ls),
(728,179,o),
(1012,428,o),
(1053,662,qs),
(1069,754,ls),
(1112,998,o),
(917,1253,o),
(713,1253,qs),
(503,1253,l)
);
}
);
width = 1342;
},
{
anchors = (
{
name = b.uni0327;
position = "{453, 0}";
},
{
name = t.uni0335;
position = "{383, 719}";
},
{
name = t.uni0302;
position = "{767, 1432}";
}
);
layerId = "5EFB1F2B-6635-43CF-844A-B3185C929525";
shapes = (
{
closed = 1;
nodes = (
(122,0,l),
(122,0,o),
(122,0,o),
(122,0,q),
(374,1432,l),
(374,1432,o),
(374,1432,o),
(374,1432,q),
(754,1432,ls),
(1093,1432,o),
(1422,1042,o),
(1360,692,q),
(1360,692,l),
(1301,361,o),
(875,0,o),
(539,0,qs)
);
},
{
closed = 1;
nodes = (
(203,65,l),
(528,65,ls),
(833,65,o),
(1234,388,o),
(1290,700,q),
(1290,700,l),
(1346,1020,o),
(1053,1368,o),
(741,1368,qs),
(433,1368,l)
);
}
);
width = 1471;
},
{
anchors = (
{
name = b.uni0327;
position = "{324, 0}";
},
{
name = t.uni0335;
position = "{326, 719}";
},
{
name = t.uni0302;
position = "{683, 1432}";
}
);
layerId = "530719F5-0959-4DA7-9A1D-C7B5EABE4A1F";
shapes = (
{
closed = 1;
nodes = (
(111,0,l),
(111,0,o),
(111,0,o),
(111,0,q),
(363,1432,l),
(363,1432,o),
(363,1432,o),
(363,1432,q),
(683,1432,ls),
(975,1432,o),
(1249,1069,o),
(1191,740,qs),
(1176,655,ls),
(1119,339,o),
(754,0,o),
(464,0,qs)
);
},
{
closed = 1;
nodes = (
(190,63,l),
(455,63,ls),
(716,63,o),
(1055,368,o),
(1107,662,qs),
(1122,747,ls),
(1175,1048,o),
(935,1370,o),
(671,1370,qs),
(421,1370,l)
);
}
);
width = 1292;
}
);
leftKerningGroup = B;
rightKerningGroup = D;
unicode = 68;
},
{
glyphname = E;
layers = (
{
anchors = (
{
name = b.uni0327;
position = "{610, 0}";
},
{
name = b.uni0328;
position = "{1139, 0}";
},
{
name = t.uni0302;
position = "{846, 1432}";
}
);
layerId = "872C3892-1949-4E27-92D3-5A16DDABBAC0";
shapes = (
{
closed = 1;
nodes = (
(79,0,l),
(79,0,o),
(79,0,o),
(79,0,q),
(331,1432,l),
(331,1432,o),
(331,1432,o),
(331,1432,q),
(1368,1432,l),
(1368,1432,o),
(1368,1432,o),
(1368,1432,q),
(1299,1045,l),
(1299,1045,o),
(1299,1045,o),
(1299,1045,q),
(705,1045,l),
(590,387,l),
(1208,387,l),
(1208,387,o),
(1208,387,o),
(1208,387,q),
(1140,0,l),
(1140,0,o),
(1140,0,o),
(1140,0,q)
);
},
{
closed = 1;
nodes = (
(454,566,l),
(513,900,l),
(1160,900,l),
(1160,900,o),
(1160,900,o),
(1160,900,q),
(1101,566,l),
(1101,566,o),
(1101,566,o),
(1101,566,q)
);
}
);
width = 1352;
},
{
anchors = (
{
name = b.uni0327;
position = "{620, 0}";
},
{
name = b.uni0328;
position = "{1199, 0}";
},
{
name = t.uni0302;
position = "{849, 1432}";
}
);
layerId = "E858B941-4367-47FB-AD3D-B27AC74F93CC";
shapes = (
{
closed = 1;
nodes = (
(65,0,l),
(65,0,o),
(65,0,o),
(65,0,q),
(317,1432,l),
(317,1432,o),
(317,1432,o),
(317,1432,q),
(1296,1432,l),
(1296,1432,o),
(1296,1432,o),
(1296,1432,q),
(1228,1048,l),
(1228,1048,o),
(1228,1048,o),
(1228,1048,q),
(682,1048,l),
(566,384,l),
(1138,384,l),
(1138,384,o),
(1138,384,o),
(1138,384,q),
(1070,0,l),
(1070,0,o),
(1070,0,o),
(1070,0,q)
);
},
{
closed = 1;
nodes = (
(440,565,l),
(501,902,l),
(1093,902,l),
(1093,902,o),
(1093,902,o),
(1093,902,q),
(1034,565,l),
(1034,565,o),
(1034,565,o),
(1034,565,q)
);
}
);
width = 1271;
},
{
anchors = (
{
name = b.uni0327;
position = "{620, 0}";
},
{
name = b.uni0328;
position = "{1199, 0}";
},
{
name = t.uni0302;
position = "{849, 1432}";
}
);
layerId = "B75C80CA-8025-4CF8-A3E7-75A43A0995A3";
shapes = (
{
closed = 1;
nodes = (
(106,0,l),
(106,0,o),
(106,0,o),
(106,0,q),
(359,1432,l),
(359,1432,o),
(359,1432,o),
(359,1432,q),
(1237,1432,l),
(1237,1432,o),
(1237,1432,o),
(1237,1432,q),
(1204,1248,l),
(1204,1248,o),
(1204,1248,o),
(1204,1248,q),
(526,1248,l),
(339,184,l),
(1040,184,l),
(1040,184,o),
(1040,184,o),
(1040,184,q),
(1009,0,l),
(1009,0,o),
(1009,0,o),
(1009,0,q)
);
},
{
closed = 1;
nodes = (
(343,647,l),
(375,830,l),
(1018,830,l),
(1018,830,o),
(1018,830,o),
(1018,830,q),
(986,647,l),
(986,647,o),
(986,647,o),
(986,647,q)
);
}
);
width = 1217;
},
{
anchors = (
{
name = b.uni0327;
position = "{556, 0}";
},
{
name = b.uni0328;
position = "{1088, 0}";
},
{
name = t.uni0302;
position = "{786, 1432}";
}
);
layerId = "A08665C1-CA57-4E4D-B402-868E03E7A8D5";
shapes = (
{
closed = 1;
nodes = (
(89,0,l),
(89,0,o),
(89,0,o),
(89,0,q),
(342,1432,l),
(342,1432,o),
(342,1432,o),
(342,1432,q),
(1128,1432,l),
(1128,1432,o),
(1128,1432,o),
(1128,1432,q),
(1096,1253,l),
(1096,1253,o),
(1096,1253,o),
(1096,1253,q),
(504,1253,l),
(315,179,l),
(929,179,l),
(929,179,o),
(929,179,o),
(929,179,q),
(898,0,l),
(898,0,o),
(898,0,o),
(898,0,q)
);
},
{
closed = 1;
nodes = (
(321,654,l),
(353,832,l),
(913,832,l),
(913,832,o),
(913,832,o),
(913,832,q),
(882,654,l),
(882,654,o),
(882,654,o),
(882,654,q)
);
}
);
width = 1082;
},
{
anchors = (
{
name = b.uni0327;
position = "{525, 0}";
},
{
name = b.uni0328;
position = "{1022, 0}";
},
{
name = t.uni0302;
position = "{765, 1432}";
}
);
layerId = "5EFB1F2B-6635-43CF-844A-B3185C929525";
shapes = (
{
closed = 1;
nodes = (
(121,0,l),
(121,0,o),
(121,0,o),
(121,0,q),
(375,1432,l),
(375,1432,o),
(375,1432,o),
(375,1432,q),
(1174,1432,l),
(1174,1432,o),
(1174,1432,o),
(1174,1432,q),
(1162,1369,l),
(1162,1369,o),
(1162,1369,o),
(1162,1369,q),
(431,1369,l),
(201,63,l),
(955,63,l),
(955,63,o),
(955,63,o),
(955,63,q),
(943,0,l),
(943,0,o),
(943,0,o),
(943,0,q)
);
},
{
closed = 1;
nodes = (
(287,716,l),
(299,779,l),
(917,779,l),
(917,779,o),
(917,779,o),
(917,779,q),
(905,716,l),
(905,716,o),
(905,716,o),
(905,716,q)
);
}
);
width = 1150;
},
{
anchors = (
{
name = b.uni0327;
position = "{431, 0}";
},
{
name = b.uni0328;
position = "{837, 0}";
},
{
name = t.uni0302;
position = "{680, 1432}";
}
);
layerId = "530719F5-0959-4DA7-9A1D-C7B5EABE4A1F";
shapes = (
{
closed = 1;
nodes = (
(110,0,l),
(110,0,o),
(110,0,o),
(110,0,q),
(364,1432,l),
(364,1432,o),
(364,1432,o),
(364,1432,q),
(1058,1432,l),
(1058,1432,o),
(1058,1432,o),
(1058,1432,q),
(1047,1371,l),
(1047,1371,o),
(1047,1371,o),
(1047,1371,q),
(419,1371,l),
(189,61,l),
(836,61,l),
(836,61,o),
(836,61,o),
(836,61,q),
(824,0,l),
(824,0,o),
(824,0,o),
(824,0,q)
);
},
{
closed = 1;
nodes = (
(276,721,l),
(288,783,l),
(818,783,l),
(818,783,o),
(818,783,o),
(818,783,q),
(806,721,l),
(806,721,o),
(806,721,o),
(806,721,q)
);
}
);
width = 1009;
}
);
leftKerningGroup = B;
rightKerningGroup = E;
unicode = 69;
},
{
glyphname = F;
layers = (
{
anchors = (
{
name = b.uni0327;
position = "{306, 0}";
},
{
name = t.uni0302;
position = "{826, 1432}";
}
);
layerId = "872C3892-1949-4E27-92D3-5A16DDABBAC0";
shapes = (
{
closed = 1;
nodes = (
(80,0,l),
(80,0,o),
(80,0,o),
(80,0,q),
(331,1432,l),
(331,1432,o),
(331,1432,o),
(331,1432,q),
(1321,1432,l),
(1321,1432,o),
(1321,1432,o),
(1321,1432,q),
(1252,1032,l),
(1252,1032,o),
(1252,1032,o),
(1252,1032,q),
(703,1032,l),
(522,0,l),
(522,0,o),
(522,0,o),
(522,0,q)
);
},
{
closed = 1;
nodes = (
(430,494,l),
(493,852,l),
(1147,852,l),
(1147,852,o),
(1147,852,o),
(1147,852,q),
(1084,494,l),
(1084,494,o),
(1084,494,o),
(1084,494,q)
);
}
);
width = 1255;
},
{
anchors = (
{
name = b.uni0327;
position = "{389, 0}";
},
{
name = t.uni0302;
position = "{845, 1432}";
}
);
layerId = "E858B941-4367-47FB-AD3D-B27AC74F93CC";
shapes = (
{
closed = 1;
nodes = (
(66,0,l),
(66,0,o),
(66,0,o),
(66,0,q),
(317,1432,l),
(317,1432,o),
(317,1432,o),
(317,1432,q),
(1240,1432,l),
(1240,1432,o),
(1240,1432,o),
(1240,1432,q),
(1172,1039,l),
(1172,1039,o),
(1172,1039,o),
(1172,1039,q),
(681,1039,l),
(499,0,l),
(499,0,o),
(499,0,o),
(499,0,q)
);
},
{
closed = 1;
nodes = (
(408,503,l),
(471,856,l),
(1065,856,l),
(1065,856,o),
(1065,856,o),
(1065,856,q),
(1003,503,l),
(1003,503,o),
(1003,503,o),
(1003,503,q)
);
}
);
width = 1165;
},
{
anchors = (
{
name = b.uni0327;
position = "{389, 0}";
},
{
name = t.uni0302;
position = "{845, 1432}";
}
);
layerId = "B75C80CA-8025-4CF8-A3E7-75A43A0995A3";
shapes = (
{
closed = 1;
nodes = (
(107,0,l),
(107,0,o),
(107,0,o),
(107,0,q),
(359,1432,l),
(359,1432,o),
(359,1432,o),
(359,1432,q),
(1195,1432,l),
(1195,1432,o),
(1195,1432,o),
(1195,1432,q),
(1163,1248,l),
(1163,1248,o),
(1163,1248,o),
(1163,1248,q),
(526,1248,l),
(307,0,l),
(307,0,o),
(307,0,o),
(307,0,q)
);
},
{
closed = 1;
nodes = (
(328,632,l),
(361,815,l),
(1016,815,l),
(1016,815,o),
(1016,815,o),
(1016,815,q),
(984,632,l),
(984,632,o),
(984,632,o),
(984,632,q)
);
}
);
width = 1138;
},
{
anchors = (
{
name = b.uni0327;
position = "{370, 0}";
},
{
name = t.uni0302;
position = "{788, 1432}";
}
);
layerId = "A08665C1-CA57-4E4D-B402-868E03E7A8D5";
shapes = (
{
closed = 1;
nodes = (
(90,0,l),
(90,0,o),
(90,0,o),
(90,0,q),
(342,1432,l),
(342,1432,o),
(342,1432,o),
(342,1432,q),
(1082,1432,l),
(1082,1432,o),
(1082,1432,o),
(1082,1432,q),
(1051,1252,l),
(1051,1252,o),
(1051,1252,o),
(1051,1252,q),
(504,1252,l),
(284,0,l),
(284,0,o),
(284,0,o),
(284,0,q)
);
},
{
closed = 1;
nodes = (
(311,643,l),
(343,821,l),
(898,821,l),
(898,821,o),
(898,821,o),
(898,821,q),
(867,643,l),
(867,643,o),
(867,643,o),
(867,643,q)
);
}
);
width = 998;
},
{
anchors = (
{
name = b.uni0327;
position = "{321, 0}";
},
{
name = t.uni0302;
position = "{764, 1432}";
}
);
layerId = "5EFB1F2B-6635-43CF-844A-B3185C929525";
shapes = (
{
closed = 1;
nodes = (
(122,0,l),
(122,0,o),
(122,0,o),
(122,0,q),
(374,1432,l),
(374,1432,o),
(374,1432,o),
(374,1432,q),
(1117,1432,l),
(1117,1432,o),
(1117,1432,o),
(1117,1432,q),
(1108,1368,l),
(1108,1368,o),
(1108,1368,o),
(1108,1368,q),
(431,1368,l),
(191,0,l),
(191,0,o),
(191,0,o),
(191,0,q)
);
},
{
closed = 1;
nodes = (
(279,715,l),
(291,780,l),
(915,780,l),
(915,780,o),
(915,780,o),
(915,780,q),
(904,715,l),
(904,715,o),
(904,715,o),
(904,715,q)
);
}
);
width = 1064;
},
{
anchors = (
{
name = b.uni0327;
position = "{261, 0}";
},
{
name = t.uni0302;
position = "{676, 1432}";
}
);
layerId = "530719F5-0959-4DA7-9A1D-C7B5EABE4A1F";
shapes = (
{
closed = 1;
nodes = (
(111,0,l),
(111,0,o),
(111,0,o),
(111,0,q),
(363,1432,l),
(363,1432,o),
(363,1432,o),
(363,1432,q),
(1005,1432,l),
(1005,1432,o),
(1005,1432,o),
(1005,1432,q),
(996,1370,l),
(996,1370,o),
(996,1370,o),
(996,1370,q),
(419,1370,l),
(179,0,l),
(179,0,o),
(179,0,o),
(179,0,q)
);
},
{
closed = 1;
nodes = (
(271,723,l),
(283,786,l),
(808,786,l),
(808,786,o),
(808,786,o),
(808,786,q),
(798,723,l),
(798,723,o),
(798,723,o),
(798,723,q)
);
}
);
width = 929;
}
);
leftKerningGroup = B;
unicode = 70;
},
{
glyphname = G;
layers = (
{
anchors = (
{
name = b.uni0327;
position = "{759, 0}";
},
{
name = t.uni0302;
position = "{952, 1432}";
}
);
layerId = "872C3892-1949-4E27-92D3-5A16DDABBAC0";
shapes = (
{
closed = 1;
nodes = (
(448,-37,o),
(60,404,o),
(121,746,q),
(121,746,l),
(179,1079,o),
(653,1470,o),
(979,1470,qs),
(1095,1470,o),
(1281,1423,o),
(1449,1334,o),
(1553,1244,o),
(1553,1244,o),
(1553,1244,q),
(1236,961,l),
(1236,961,o),
(1236,961,o),
(1182,1005,o),
(1106,1043,o),
(1020,1065,o),
(961,1065,qs),
(810,1065,o),
(591,879,o),
(562,715,q),
(562,715,l),
(534,551,o),
(691,356,o),
(832,356,qs),
(965,356,o),
(1139,463,o),
(1167,532,q),
(1167,532,l),
(852,532,l),
(852,532,o),
(852,532,o),
(852,532,q),
(909,861,l),
(909,861,o),
(909,861,o),
(909,861,q),
(1654,861,l),
(1654,861,o),
(1654,861,o),
(1654,861,q),
(1618,652,ls),
(1562,324,o),
(1126,-37,o),
(805,-37,qs)
);
}
);
width = 1676;
},
{
anchors = (
{
name = b.uni0327;
position = "{689, 0}";
},
{
name = t.uni0302;
position = "{841, 1432}";
}
);
layerId = "E858B941-4367-47FB-AD3D-B27AC74F93CC";
shapes = (
{
closed = 1;
nodes = (
(392,-34,o),
(54,387,o),
(118,746,q),
(118,746,l),
(179,1097,o),
(600,1467,o),
(903,1467,qs),
(1028,1467,o),
(1218,1401,o),
(1363,1281,o),
(1438,1168,o),
(1438,1168,o),
(1438,1168,q),
(1096,945,l),
(1096,945,o),
(1096,945,o),
(1060,996,o),
(1003,1042,o),
(932,1071,o),
(881,1071,qs),
(758,1071,o),
(585,904,o),
(556,741,qs),
(547,686,ls),
(519,519,o),
(639,350,o),
(754,350,qs),
(861,350,o),
(1003,453,o),
(1025,524,q),
(1027,529,l),
(778,529,l),
(778,529,o),
(778,529,o),
(778,529,q),
(834,849,l),
(834,849,o),
(834,849,o),
(834,849,q),
(1499,849,l),
(1499,849,o),
(1499,849,o),
(1499,849,q),
(1458,612,ls),
(1405,301,o),
(1010,-34,o),
(719,-34,qs)
);
}
);
width = 1525;
},
{
anchors = (
{
name = b.uni0327;
position = "{689, 0}";
},
{
name = t.uni0302;
position = "{841, 1432}";
}
);
layerId = "B75C80CA-8025-4CF8-A3E7-75A43A0995A3";
shapes = (
{
closed = 1;
nodes = (
(471,-34,o),
(95,410,o),
(156,755,q),
(156,755,l),
(212,1074,o),
(682,1467,o),
(1003,1467,qs),
(1123,1467,o),
(1310,1418,o),
(1464,1327,o),
(1556,1240,o),
(1556,1240,o),
(1556,1240,q),
(1408,1103,l),
(1408,1103,o),
(1408,1103,o),
(1337,1170,o),
(1220,1241,o),
(1086,1281,o),
(990,1281,qs),
(763,1281,o),
(409,980,o),
(364,728,q),
(364,728,l),
(320,473,o),
(581,151,o),
(808,151,qs),
(1027,151,o),
(1347,392,o),
(1394,596,q),
(1394,596,l),
(914,596,l),
(914,596,o),
(914,596,o),
(914,596,q),
(947,780,l),
(947,780,o),
(947,780,o),
(947,780,q),
(1634,780,l),
(1634,780,o),
(1634,780,o),
(1634,780,q),
(1605,618,ls),
(1552,320,o),
(1104,-34,o),
(798,-34,qs)
);
}
);
width = 1677;
},
{
anchors = (
{
name = b.uni0327;
position = "{566, 0}";
},
{
name = t.uni0302;
position = "{715, 1432}";
}
);
layerId = "A08665C1-CA57-4E4D-B402-868E03E7A8D5";
shapes = (
{
closed = 1;
nodes = (
(387,-30,o),
(81,366,o),
(140,697,qs),
(158,800,ls),
(213,1114,o),
(601,1463,o),
(875,1463,qs),
(986,1463,o),
(1155,1402,o),
(1280,1297,o),
(1346,1190,o),
(1346,1190,o),
(1346,1190,q),
(1188,1082,l),
(1188,1082,o),
(1188,1082,o),
(1138,1164,o),
(1050,1239,o),
(941,1283,o),
(863,1283,qs),
(681,1283,o),
(402,1019,o),
(359,778,qs),
(340,669,ls),
(299,429,o),
(495,149,o),
(678,149,qs),
(855,149,o),
(1107,356,o),
(1146,542,q),
(1155,590,l),
(773,590,l),
(773,590,o),
(773,590,o),
(773,590,q),
(805,769,l),
(805,769,o),
(805,769,o),
(805,769,q),
(1384,769,l),
(1384,769,o),
(1384,769,o),
(1384,769,q),
(1346,557,ls),
(1296,276,o),
(928,-30,o),
(667,-30,qs)
);
}
);
width = 1430;
},
{
anchors = (
{
name = b.uni0327;
position = "{567, 0}";
},
{
name = t.uni0302;
position = "{699, 1432}";
}
);
layerId = "5EFB1F2B-6635-43CF-844A-B3185C929525";
shapes = (
{
closed = 1;
nodes = (
(457,-29,o),
(122,396,o),
(182,741,q),
(182,741,l),
(239,1075,o),
(684,1462,o),
(993,1462,qs),
(1100,1462,o),
(1284,1407,o),
(1423,1303,o),
(1493,1209,o),
(1493,1209,o),
(1493,1209,q),
(1438,1174,l),
(1438,1174,o),
(1438,1174,o),
(1375,1257,o),
(1254,1347,o),
(1091,1400,o),
(990,1400,qs),
(712,1400,o),
(307,1042,o),
(252,734,q),
(252,734,l),
(197,413,o),
(496,32,o),
(760,32,qs),
(1019,32,o),
(1396,356,o),
(1444,640,qs),
(1446,651,l),
(893,651,l),
(893,651,o),
(893,651,o),
(893,651,q),
(904,714,l),
(904,714,o),
(904,714,o),
(904,714,q),
(1520,714,l),
(1520,714,o),
(1520,714,o),
(1520,714,q),
(1506,626,ls),
(1457,327,o),
(1052,-29,o),
(755,-29,qs)
);
}
);
width = 1613;
},
{
anchors = (
{
name = b.uni0327;
position = "{443, 0}";
},
{
name = t.uni0302;
position = "{560, 1432}";
}
);
layerId = "530719F5-0959-4DA7-9A1D-C7B5EABE4A1F";
shapes = (
{
closed = 1;
nodes = (
(381,-25,o),
(112,351,o),
(170,683,qs),
(190,794,l),
(245,1116,o),
(609,1458,o),
(865,1458,qs),
(962,1458,o),
(1122,1398,o),
(1230,1286,o),
(1280,1185,o),
(1280,1185,o),
(1280,1185,q),
(1222,1156,l),
(1222,1156,o),
(1222,1156,o),
(1177,1249,o),
(1085,1342,o),
(949,1397,o),
(862,1397,qs),
(636,1397,o),
(311,1080,o),
(258,788,q),
(239,674,ls),
(187,373,o),
(419,35,o),
(635,35,qs),
(848,35,o),
(1150,320,o),
(1195,581,qs),
(1207,649,l),
(762,649,l),
(762,649,o),
(762,649,o),
(762,649,q),
(773,711,l),
(773,711,o),
(773,711,o),
(773,711,q),
(1281,711,l),
(1281,711,o),
(1281,711,o),
(1281,711,q),
(1258,574,ls),
(1211,289,o),
(880,-25,o),
(631,-25,qs)
);
}
);
width = 1373;
}
);
leftKerningGroup = C2;
rightKerningGroup = G;
unicode = 71;
},
{
glyphname = H;
layers = (
{
anchors = (
{
name = b.uni0327;
position = "{749, 0}";
},
{
name = t.uni0335;
position = "{956, 1170}";
},
{
name = t.uni0302;
position = "{1001, 1432}";
}
);
layerId = "872C3892-1949-4E27-92D3-5A16DDABBAC0";
shapes = (
{
closed = 1;
nodes = (
(976,0,l),
(976,0,o),
(976,0,o),
(976,0,q),
(1228,1432,l),
(1228,1432,o),
(1228,1432,o),
(1228,1432,q),
(1670,1432,l),
(1670,1432,o),
(1670,1432,o),
(1670,1432,q),
(1418,0,l),
(1418,0,o),
(1418,0,o),
(1418,0,q)
);
},
{
closed = 1;
nodes = (
(80,0,l),
(80,0,o),
(80,0,o),
(80,0,q),
(331,1432,l),
(331,1432,o),
(331,1432,o),
(331,1432,q),
(773,1432,l),
(773,1432,o),
(773,1432,o),
(773,1432,q),
(521,0,l),
(521,0,o),
(521,0,o),
(521,0,q)
);
},
{
closed = 1;
nodes = (
(434,528,l),
(504,928,l),
(1339,928,l),
(1268,528,l)
);
}
);
width = 1685;
},
{
anchors = (
{
name = b.uni0327;
position = "{766, 0}";
},
{
name = t.uni0335;
position = "{980, 1210}";
},
{
name = t.uni0302;
position = "{1017, 1432}";
}
);
layerId = "E858B941-4367-47FB-AD3D-B27AC74F93CC";
shapes = (
{
closed = 1;
nodes = (
(878,0,l),
(878,0,o),
(878,0,o),
(878,0,q),
(1130,1432,l),
(1130,1432,o),
(1130,1432,o),
(1130,1432,q),
(1564,1432,l),
(1564,1432,o),
(1564,1432,o),
(1564,1432,q),
(1312,0,l),
(1312,0,o),
(1312,0,o),
(1312,0,q)
);
},
{
closed = 1;
nodes = (
(66,0,l),
(66,0,o),
(66,0,o),
(66,0,q),
(317,1432,l),
(317,1432,o),
(317,1432,o),
(317,1432,q),
(750,1432,l),
(750,1432,o),
(750,1432,o),
(750,1432,q),
(498,0,l),
(498,0,o),
(498,0,o),
(498,0,q)
);
},
{
closed = 1;
nodes = (
(416,532,l),
(485,924,l),
(1240,924,l),
(1170,532,l)
);
}
);
width = 1564;
},
{
anchors = (
{
name = b.uni0327;
position = "{766, 0}";
},
{
name = t.uni0335;
position = "{980, 1210}";
},
{
name = t.uni0302;
position = "{1017, 1432}";
}
);
layerId = "B75C80CA-8025-4CF8-A3E7-75A43A0995A3";
shapes = (
{
closed = 1;
nodes = (
(1038,0,l),
(1038,0,o),
(1038,0,o),
(1038,0,q),
(1290,1432,l),
(1290,1432,o),
(1290,1432,o),
(1290,1432,q),
(1490,1432,l),
(1490,1432,o),
(1490,1432,o),
(1490,1432,q),
(1238,0,l),
(1238,0,o),
(1238,0,o),
(1238,0,q)
);
},
{
closed = 1;
nodes = (
(108,0,l),
(108,0,o),
(108,0,o),
(108,0,q),
(359,1432,l),
(359,1432,o),
(359,1432,o),
(359,1432,q),
(559,1432,l),
(559,1432,o),
(559,1432,o),
(559,1432,q),
(307,0,l),
(307,0,o),
(307,0,o),
(307,0,q)
);
},
{
closed = 1;
nodes = (
(341,641,l),
(373,825,l),
(1279,825,l),
(1246,641,l)
);
}
);
width = 1532;
},
{
anchors = (
{
name = b.uni0327;
position = "{677, 0}";
},
{
name = t.uni0335;
position = "{889, 1205}";
},
{
name = t.uni0302;
position = "{927, 1432}";
}
);
layerId = "A08665C1-CA57-4E4D-B402-868E03E7A8D5";
shapes = (
{
closed = 1;
nodes = (
(881,0,l),
(881,0,o),
(881,0,o),
(881,0,q),
(1133,1432,l),
(1133,1432,o),
(1133,1432,o),
(1133,1432,q),
(1328,1432,l),
(1328,1432,o),
(1328,1432,o),
(1328,1432,q),
(1076,0,l),
(1076,0,o),
(1076,0,o),
(1076,0,q)
);
},
{
closed = 1;
nodes = (
(91,0,l),
(91,0,o),
(91,0,o),
(91,0,q),
(342,1432,l),
(342,1432,o),
(342,1432,o),
(342,1432,q),
(536,1432,l),
(536,1432,o),
(536,1432,o),
(536,1432,q),
(284,0,l),
(284,0,o),
(284,0,o),
(284,0,q)
);
},
{
closed = 1;
nodes = (
(322,644,l),
(353,823,l),
(1118,823,l),
(1086,644,l)
);
}
);
width = 1352;
},
{
anchors = (
{
name = b.uni0327;
position = "{643, 0}";
},
{
name = t.uni0335;
position = "{851, 1184}";
},
{
name = t.uni0302;
position = "{892, 1432}";
}
);
layerId = "5EFB1F2B-6635-43CF-844A-B3185C929525";
shapes = (
{
closed = 1;
nodes = (
(1084,0,l),
(1084,0,o),
(1084,0,o),
(1084,0,q),
(1336,1432,l),
(1336,1432,o),
(1336,1432,o),
(1336,1432,q),
(1404,1432,l),
(1404,1432,o),
(1404,1432,o),
(1404,1432,q),
(1152,0,l),
(1152,0,o),
(1152,0,o),
(1152,0,q)
);
},
{
closed = 1;
nodes = (
(123,0,l),
(123,0,o),
(123,0,o),
(123,0,q),
(374,1432,l),
(374,1432,o),
(374,1432,o),
(374,1432,q),
(442,1432,l),
(442,1432,o),
(442,1432,o),
(442,1432,q),
(190,0,l),
(190,0,o),
(190,0,o),
(190,0,q)
);
},
{
closed = 1;
nodes = (
(286,702,l),
(297,766,l),
(1260,766,l),
(1248,702,l)
);
}
);
width = 1457;
},
{
anchors = (
{
name = b.uni0327;
position = "{524, 0}";
},
{
name = t.uni0335;
position = "{727, 1158}";
},
{
name = t.uni0302;
position = "{771, 1432}";
}
);
layerId = "530719F5-0959-4DA7-9A1D-C7B5EABE4A1F";
shapes = (
{
closed = 1;
nodes = (
(925,0,l),
(925,0,o),
(925,0,o),
(925,0,q),
(1177,1432,l),
(1177,1432,o),
(1177,1432,o),
(1177,1432,q),
(1244,1432,l),
(1244,1432,o),
(1244,1432,o),
(1244,1432,q),
(992,0,l),
(992,0,o),
(992,0,o),
(992,0,q)
);
},
{
closed = 1;
nodes = (
(112,0,l),
(112,0,o),
(112,0,o),
(112,0,q),
(363,1432,l),
(363,1432,o),
(363,1432,o),
(363,1432,q),
(430,1432,l),
(430,1432,o),
(430,1432,o),
(430,1432,q),
(178,0,l),
(178,0,o),
(178,0,o),
(178,0,q)
);
},
{
closed = 1;
nodes = (
(271,703,l),
(282,765,l),
(1098,765,l),
(1086,703,l)
);
}
);
width = 1286;
}
);
leftKerningGroup = B;
rightKerningGroup = H;
unicode = 72;
},
{
glyphname = I;
layers = (
{
anchors = (
{
name = b.uni0327;
position = "{310, 0}";
},
{
name = b.uni0328;
position = "{523, 0}";
},
{
name = t.uni0302;
position = "{554, 1432}";
}
);
layerId = "872C3892-1949-4E27-92D3-5A16DDABBAC0";
shapes = (
{
closed = 1;
nodes = (
(80,0,l),
(80,0,o),
(80,0,o),
(80,0,q),
(331,1432,l),
(331,1432,o),
(331,1432,o),
(331,1432,q),
(776,1432,l),
(776,1432,o),
(776,1432,o),
(776,1432,q),
(525,0,l),
(525,0,o),
(525,0,o),
(525,0,q)
);
}
);
width = 792;
},
{
anchors = (
{
name = b.uni0327;
position = "{391, 0}";
},
{
name = b.uni0328;
position = "{715, 0}";
},
{
name = t.uni0302;
position = "{628, 1432}";
}
);
layerId = "E858B941-4367-47FB-AD3D-B27AC74F93CC";
shapes = (
{
closed = 1;
nodes = (
(66,0,l),
(66,0,o),
(66,0,o),
(66,0,q),
(317,1432,l),
(317,1432,o),
(317,1432,o),
(317,1432,q),
(752,1432,l),
(752,1432,o),
(752,1432,o),
(752,1432,q),
(501,0,l),
(501,0,o),
(501,0,o),
(501,0,q)
);
}
);
width = 753;
},
{
anchors = (
{
name = b.uni0327;
position = "{391, 0}";
},
{
name = b.uni0328;
position = "{715, 0}";
},
{
name = t.uni0302;
position = "{628, 1432}";
}
);
layerId = "B75C80CA-8025-4CF8-A3E7-75A43A0995A3";
shapes = (
{
closed = 1;
nodes = (
(107,0,l),
(107,0,o),
(107,0,o),
(107,0,q),
(359,1432,l),
(359,1432,o),
(359,1432,o),
(359,1432,q),
(559,1432,l),
(559,1432,o),
(559,1432,o),
(559,1432,q),
(307,0,l),
(307,0,o),
(307,0,o),
(307,0,q)
);
}
);
width = 601;
},
{
anchors = (
{
name = b.uni0327;
position = "{371, 0}";
},
{
name = b.uni0328;
position = "{692, 0}";
},
{
name = t.uni0302;
position = "{608, 1432}";
}
);
layerId = "A08665C1-CA57-4E4D-B402-868E03E7A8D5";
shapes = (
{
closed = 1;
nodes = (
(90,0,l),
(90,0,o),
(90,0,o),
(90,0,q),
(342,1432,l),
(342,1432,o),
(342,1432,o),
(342,1432,q),
(536,1432,l),
(536,1432,o),
(536,1432,o),
(536,1432,q),
(284,0,l),
(284,0,o),
(284,0,o),
(284,0,q)
);
}
);
width = 560;
},
{
anchors = (
{
name = b.uni0327;
position = "{324, 0}";
},
{
name = b.uni0328;
position = "{575, 0}";
},
{
name = t.uni0302;
position = "{558, 1432}";
}
);
layerId = "5EFB1F2B-6635-43CF-844A-B3185C929525";
shapes = (
{
closed = 1;
nodes = (
(123,0,l),
(123,0,o),
(123,0,o),
(123,0,q),
(374,1432,l),
(374,1432,o),
(374,1432,o),
(374,1432,q),
(441,1432,l),
(441,1432,o),
(441,1432,o),
(441,1432,q),
(190,0,l),
(190,0,o),
(190,0,o),
(190,0,q)
);
}
);
width = 495;
},
{
anchors = (
{
name = b.uni0327;
position = "{265, 0}";
},
{
name = b.uni0328;
position = "{446, 0}";
},
{
name = t.uni0302;
position = "{497, 1432}";
}
);
layerId = "530719F5-0959-4DA7-9A1D-C7B5EABE4A1F";
shapes = (
{
closed = 1;
nodes = (
(112,0,l),
(112,0,o),
(112,0,o),
(112,0,q),
(363,1432,l),
(363,1432,o),
(363,1432,o),
(363,1432,q),
(429,1432,l),
(429,1432,o),
(429,1432,o),
(429,1432,q),
(178,0,l),
(178,0,o),
(178,0,o),
(178,0,q)
);
}
);
width = 472;
}
);
leftKerningGroup = B;
rightKerningGroup = H;
unicode = 73;
},
{
glyphname = J;
layers = (
{
anchors = (
{
name = b.uni0327;
position = "{439, 0}";
},
{
name = t.uni0302;
position = "{1000, 1432}";
}
);
layerId = "872C3892-1949-4E27-92D3-5A16DDABBAC0";
shapes = (
{
closed = 1;
nodes = (
(329,-38,o),
(142,48,o),
(28,174,o),
(-25,279,o),
(-25,279,o),
(-25,279,q),
(323,464,l),
(323,464,o),
(323,464,o),
(343,423,o),
(374,384,o),
(424,357,o),
(461,357,qs),
(523,357,o),
(611,438,o),
(626,522,qs),
(786,1432,l),
(786,1432,o),
(786,1432,o),
(786,1432,q),
(1228,1432,l),
(1228,1432,o),
(1228,1432,o),
(1228,1432,q),
(1059,473,l),
(1013,219,o),
(696,-38,o),
(460,-38,qs)
);
}
);
width = 1222;
},
{
anchors = (
{
name = b.uni0327;
position = "{489, 0}";
},
{
name = t.uni0302;
position = "{987, 1432}";
}
);
layerId = "E858B941-4367-47FB-AD3D-B27AC74F93CC";
shapes = (
{
closed = 1;
nodes = (
(314,-36,o),
(125,60,o),
(22,200,o),
(-18,315,o),
(-18,315,o),
(-18,315,q),
(335,471,l),
(335,471,o),
(335,471,o),
(349,428,o),
(374,387,o),
(418,358,o),
(451,358,qs),
(505,358,o),
(580,430,o),
(593,503,qs),
(757,1432,l),
(757,1432,o),
(757,1432,o),
(757,1432,q),
(1190,1432,l),
(1190,1432,o),
(1190,1432,o),
(1190,1432,q),
(1016,447,ls),
(973,207,o),
(678,-36,o),
(451,-36,qs)
);
}
);
width = 1172;
},
{
anchors = (
{
name = b.uni0327;
position = "{489, 0}";
},
{
name = t.uni0302;
position = "{987, 1432}";
}
);
layerId = "B75C80CA-8025-4CF8-A3E7-75A43A0995A3";
shapes = (
{
closed = 1;
nodes = (
(306,-33,o),
(149,36,o),
(49,150,o),
(5,244,o),
(5,244,o),
(5,244,q),
(172,342,l),
(172,342,o),
(172,342,o),
(201,278,o),
(257,198,o),
(347,149,o),
(413,149,qs),
(520,149,o),
(681,289,o),
(708,445,qs),
(882,1432,l),
(882,1432,o),
(882,1432,o),
(882,1432,q),
(1082,1432,l),
(1082,1432,o),
(1082,1432,o),
(1082,1432,q),
(905,427,l),
(864,199,o),
(604,-33,o),
(406,-33,qs)
);
}
);
width = 1101;
},
{
anchors = (
{
name = b.uni0327;
position = "{437, 0}";
},
{
name = t.uni0302;
position = "{892, 1432}";
}
);
layerId = "A08665C1-CA57-4E4D-B402-868E03E7A8D5";
shapes = (
{
closed = 1;
nodes = (
(254,-30,o),
(107,43,o),
(24,159,o),
(-6,271,o),
(-6,271,o),
(-6,271,q),
(163,350,l),
(163,350,o),
(163,350,o),
(182,276,o),
(225,197,o),
(301,148,o),
(359,148,qs),
(450,148,o),
(584,268,o),
(607,404,q),
(789,1432,l),
(789,1432,o),
(789,1432,o),
(789,1432,q),
(983,1432,l),
(983,1432,o),
(983,1432,o),
(983,1432,q),
(799,386,ls),
(762,179,o),
(531,-30,o),
(352,-30,qs)
);
}
);
width = 988;
},
{
anchors = (
{
name = b.uni0327;
position = "{451, 0}";
},
{
name = t.uni0302;
position = "{923, 1432}";
}
);
layerId = "5EFB1F2B-6635-43CF-844A-B3185C929525";
shapes = (
{
closed = 1;
nodes = (
(302,-30,o),
(154,44,o),
(67,156,o),
(34,247,o),
(34,247,o),
(34,247,q),
(92,276,l),
(92,276,o),
(92,276,o),
(124,192,o),
(192,97,o),
(317,31,o),
(409,31,qs),
(557,31,o),
(760,219,o),
(796,424,qs),
(975,1432,l),
(975,1432,o),
(975,1432,o),
(975,1432,q),
(1043,1432,l),
(1043,1432,o),
(1043,1432,o),
(1043,1432,q),
(864,416,ls),
(824,191,o),
(589,-30,o),
(405,-30,qs)
);
}
);
width = 1079;
},
{
anchors = (
{
name = b.uni0327;
position = "{399, 0}";
},
{
name = t.uni0302;
position = "{832, 1432}";
}
);
layerId = "530719F5-0959-4DA7-9A1D-C7B5EABE4A1F";
shapes = (
{
closed = 1;
nodes = (
(248,-26,o),
(118,44,o),
(46,156,o),
(24,258,o),
(24,258,o),
(24,258,q),
(84,282,l),
(84,282,o),
(84,282,o),
(105,188,o),
(160,95,o),
(266,34,o),
(343,34,qs),
(466,34,o),
(635,198,o),
(667,382,q),
(854,1432,l),
(854,1432,o),
(854,1432,o),
(854,1432,q),
(920,1432,l),
(920,1432,o),
(920,1432,o),
(920,1432,q),
(734,373,ls),
(698,168,o),
(498,-26,o),
(339,-26,qs)
);
}
);
width = 949;
}
);
rightKerningGroup = J;
unicode = 74;
},
{
glyphname = K;
layers = (
{
anchors = (
{
name = b.uni0327;
position = "{731, -8}";
},
{
name = t.uni0302;
position = "{927, 1432}";
}
);
layerId = "872C3892-1949-4E27-92D3-5A16DDABBAC0";
shapes = (
{
closed = 1;
nodes = (
(402,233,l),
(491,790,l),
(1129,1432,l),
(1129,1432,o),
(1129,1432,o),
(1129,1432,q),
(1652,1432,l),
(1652,1432,o),
(1652,1432,o),
(1652,1432,q),
(849,663,l)
);
},
{
closed = 1;
nodes = (
(79,0,l),
(79,0,o),
(79,0,o),
(79,0,q),
(331,1432,l),
(331,1432,o),
(331,1432,o),
(331,1432,q),
(773,1432,l),
(773,1432,o),
(773,1432,o),
(773,1432,q),
(521,0,l),
(521,0,o),
(521,0,o),
(521,0,q)
);
},
{
closed = 1;
nodes = (
(943,0,l),
(943,0,o),
(943,0,o),
(943,0,q),
(639,642,l),
(938,950,l),
(1427,0,l),
(1427,0,o),
(1427,0,o),
(1427,0,q)
);
}
);
width = 1544;
},
{
anchors = (
{
name = b.uni0327;
position = "{779, -13}";
},
{
name = t.uni0302;
position = "{966, 1432}";
}
);
layerId = "E858B941-4367-47FB-AD3D-B27AC74F93CC";
shapes = (
{
closed = 1;
nodes = (
(398,261,l),
(483,784,l),
(1060,1432,l),
(1060,1432,o),
(1060,1432,o),
(1060,1432,q),
(1553,1432,l),
(1553,1432,o),
(1553,1432,o),
(1553,1432,q),
(826,657,l)
);
},
{
closed = 1;
nodes = (
(64,0,l),
(64,0,o),
(64,0,o),
(64,0,q),
(317,1432,l),
(317,1432,o),
(317,1432,o),
(317,1432,q),
(750,1432,l),
(750,1432,o),
(750,1432,o),
(750,1432,q),
(498,0,l),
(498,0,o),
(498,0,o),
(498,0,q)
);
},
{
closed = 1;
nodes = (
(849,0,l),
(849,0,o),
(849,0,o),
(849,0,q),
(599,650,l),
(892,974,l),
(1320,0,l),
(1320,0,o),
(1320,0,o),
(1320,0,q)
);
}
);
width = 1438;
},
{
anchors = (
{
name = b.uni0327;
position = "{779, -13}";
},
{
name = t.uni0302;
position = "{966, 1432}";
}
);
layerId = "B75C80CA-8025-4CF8-A3E7-75A43A0995A3";
shapes = (
{
closed = 1;
nodes = (
(267,326,l),
(318,624,l),
(1136,1432,l),
(1136,1432,o),
(1136,1432,o),
(1136,1432,q),
(1397,1432,l),
(1397,1432,o),
(1397,1432,o),
(1397,1432,q),
(699,753,l)
);
},
{
closed = 1;
nodes = (
(106,0,l),
(106,0,o),
(106,0,o),
(106,0,q),
(359,1432,l),
(359,1432,o),
(359,1432,o),
(359,1432,q),
(559,1432,l),
(559,1432,o),
(559,1432,o),
(559,1432,q),
(306,0,l),
(306,0,o),
(306,0,o),
(306,0,q)
);
},
{
closed = 1;
nodes = (
(972,0,l),
(972,0,o),
(972,0,o),
(972,0,q),
(588,751,l),
(732,898,l),
(1198,0,l),
(1198,0,o),
(1198,0,o),
(1198,0,q)
);
}
);
width = 1334;
},
{
anchors = (
{
name = b.uni0327;
position = "{705, -13}";
},
{
name = t.uni0302;
position = "{896, 1432}";
}
);
layerId = "A08665C1-CA57-4E4D-B402-868E03E7A8D5";
shapes = (
{
closed = 1;
nodes = (
(246,321,l),
(300,634,l),
(1016,1432,l),
(1016,1432,o),
(1016,1432,o),
(1016,1432,q),
(1256,1432,l),
(1256,1432,o),
(1256,1432,o),
(1256,1432,q),
(636,754,l)
);
},
{
closed = 1;
nodes = (
(89,0,l),
(89,0,o),
(89,0,o),
(89,0,q),
(342,1432,l),
(342,1432,o),
(342,1432,o),
(342,1432,q),
(536,1432,l),
(536,1432,o),
(536,1432,o),
(536,1432,q),
(283,0,l),
(283,0,o),
(283,0,o),
(283,0,q)
);
},
{
closed = 1;
nodes = (
(829,0,l),
(829,0,o),
(829,0,o),
(829,0,q),
(530,752,l),
(671,914,l),
(1042,0,l),
(1042,0,o),
(1042,0,o),
(1042,0,q)
);
}
);
width = 1169;
},
{
anchors = (
{
name = b.uni0327;
position = "{701, -13}";
},
{
name = t.uni0302;
position = "{868, 1432}";
}
);
layerId = "5EFB1F2B-6635-43CF-844A-B3185C929525";
shapes = (
{
closed = 1;
nodes = (
(223,369,l),
(242,473,l),
(1204,1432,l),
(1204,1432,o),
(1204,1432,o),
(1204,1432,q),
(1293,1432,l),
(1293,1432,o),
(1293,1432,o),
(1293,1432,q),
(661,803,l)
);
},
{
closed = 1;
nodes = (
(122,0,l),
(122,0,o),
(122,0,o),
(122,0,q),
(374,1432,l),
(374,1432,o),
(374,1432,o),
(374,1432,q),
(442,1432,l),
(442,1432,o),
(442,1432,o),
(442,1432,q),
(190,0,l),
(190,0,o),
(190,0,o),
(190,0,q)
);
},
{
closed = 1;
nodes = (
(1025,0,l),
(1025,0,o),
(1025,0,o),
(1025,0,q),
(621,795,l),
(669,844,l),
(1101,0,l),
(1101,0,o),
(1101,0,o),
(1101,0,q)
);
}
);
width = 1269;
},
{
anchors = (
{
name = b.uni0327;
position = "{615, -13}";
},
{
name = t.uni0302;
position = "{766, 1432}";
}
);
layerId = "530719F5-0959-4DA7-9A1D-C7B5EABE4A1F";
shapes = (
{
closed = 1;
nodes = (
(212,379,l),
(232,492,l),
(1064,1432,l),
(1064,1432,o),
(1064,1432,o),
(1064,1432,q),
(1147,1432,l),
(1147,1432,o),
(1147,1432,o),
(1147,1432,q),
(593,805,l)
);
},
{
closed = 1;
nodes = (
(111,0,l),
(111,0,o),
(111,0,o),
(111,0,q),
(363,1432,l),
(363,1432,o),
(363,1432,o),
(363,1432,q),
(430,1432,l),
(430,1432,o),
(430,1432,o),
(430,1432,q),
(178,0,l),
(178,0,o),
(178,0,o),
(178,0,q)
);
},
{
closed = 1;
nodes = (
(875,0,l),
(875,0,o),
(875,0,o),
(875,0,q),
(553,796,l),
(601,853,l),
(948,0,l),
(948,0,o),
(948,0,o),
(948,0,q)
);
}
);
width = 1106;
}
);
leftKerningGroup = B;
rightKerningGroup = K;
unicode = 75;
},
{
glyphname = L;
layers = (
{
anchors = (
{
name = b.uni0327;
position = "{615, 0}";
},
{
name = t.uni0335;
position = "{438, 719}";
},
{
name = t.uni0302;
position = "{552, 1432}";
}
);
layerId = "872C3892-1949-4E27-92D3-5A16DDABBAC0";
shapes = (
{
closed = 1;
nodes = (
(79,0,l),
(79,0,o),
(79,0,o),
(79,0,q),
(331,1432,l),
(331,1432,o),
(331,1432,o),
(331,1432,q),
(774,1432,l),
(774,1432,o),
(774,1432,o),
(774,1432,q),
(592,400,l),
(1186,400,l),
(1186,400,o),
(1186,400,o),
(1186,400,q),
(1117,0,l),
(1117,0,o),
(1117,0,o),
(1117,0,q)
);
}
);
width = 1272;
},
{
anchors = (
{
name = b.uni0327;
position = "{645, 0}";
},
{
name = t.uni0335;
position = "{512, 734}";
},
{
name = t.uni0302;
position = "{624, 1432}";
}
);
layerId = "E858B941-4367-47FB-AD3D-B27AC74F93CC";
shapes = (
{
closed = 1;
nodes = (
(64,0,l),
(64,0,o),
(64,0,o),
(64,0,q),
(317,1432,l),
(317,1432,o),
(317,1432,o),
(317,1432,q),
(751,1432,l),
(751,1432,o),
(751,1432,o),
(751,1432,q),
(568,393,l),
(1102,393,l),
(1102,393,o),
(1102,393,o),
(1102,393,q),
(1034,0,l),
(1034,0,o),
(1034,0,o),
(1034,0,q)
);
}
);
width = 1187;
},
{
anchors = (
{
name = b.uni0327;
position = "{645, 0}";
},
{
name = t.uni0335;
position = "{512, 734}";
},
{
name = t.uni0302;
position = "{624, 1432}";
}
);
layerId = "B75C80CA-8025-4CF8-A3E7-75A43A0995A3";
shapes = (
{
closed = 1;
nodes = (
(108,0,l),
(108,0,o),
(108,0,o),
(108,0,q),
(359,1432,l),
(359,1432,o),
(359,1432,o),
(359,1432,q),
(559,1432,l),
(559,1432,o),
(559,1432,o),
(559,1432,q),
(340,184,l),
(987,184,l),
(987,184,o),
(987,184,o),
(987,184,q),
(956,0,l),
(956,0,o),
(956,0,o),
(956,0,q)
);
}
);
width = 1119;
},
{
anchors = (
{
name = b.uni0327;
position = "{578, 0}";
},
{
name = t.uni0335;
position = "{494, 738}";
},
{
name = t.uni0302;
position = "{604, 1432}";
}
);
layerId = "A08665C1-CA57-4E4D-B402-868E03E7A8D5";
shapes = (
{
closed = 1;
nodes = (
(90,0,l),
(90,0,o),
(90,0,o),
(90,0,q),
(342,1432,l),
(342,1432,o),
(342,1432,o),
(342,1432,q),
(536,1432,l),
(536,1432,o),
(536,1432,o),
(536,1432,q),
(316,179,l),
(865,179,l),
(865,179,o),
(865,179,o),
(865,179,q),
(835,0,l),
(835,0,o),
(835,0,o),
(835,0,q)
);
}
);
width = 986;
},
{
anchors = (
{
name = b.uni0327;
position = "{543, 0}";
},
{
name = t.uni0335;
position = "{449, 742}";
},
{
name = t.uni0302;
position = "{553, 1432}";
}
);
layerId = "5EFB1F2B-6635-43CF-844A-B3185C929525";
shapes = (
{
closed = 1;
nodes = (
(123,0,l),
(123,0,o),
(123,0,o),
(123,0,q),
(374,1432,l),
(374,1432,o),
(374,1432,o),
(374,1432,q),
(443,1432,l),
(443,1432,o),
(443,1432,o),
(443,1432,q),
(202,65,l),
(876,65,l),
(876,65,o),
(876,65,o),
(876,65,q),
(865,0,l),
(865,0,o),
(865,0,o),
(865,0,q)
);
}
);
width = 1040;
},
{
anchors = (
{
name = b.uni0327;
position = "{448, 0}";
},
{
name = t.uni0335;
position = "{389, 749}";
},
{
name = t.uni0302;
position = "{491, 1432}";
}
);
layerId = "530719F5-0959-4DA7-9A1D-C7B5EABE4A1F";
shapes = (
{
closed = 1;
nodes = (
(112,0,l),
(112,0,o),
(112,0,o),
(112,0,q),
(363,1432,l),
(363,1432,o),
(363,1432,o),
(363,1432,q),
(431,1432,l),
(431,1432,o),
(431,1432,o),
(431,1432,q),
(190,63,l),
(764,63,l),
(764,63,o),
(764,63,o),
(764,63,q),
(754,0,l),
(754,0,o),
(754,0,o),
(754,0,q)
);
}
);
width = 911;
}
);
leftKerningGroup = B;
rightKerningGroup = L;
unicode = 76;
},
